%TF.GenerationSoftware,KiCad,Pcbnew,8.0.7+1*%
%TF.CreationDate,2025-02-03T22:01:07+01:00*%
%TF.ProjectId,passiveVCA,70617373-6976-4655-9643-412e6b696361,rev?*%
%TF.SameCoordinates,Original*%
%TF.FileFunction,Copper,L2,Bot*%
%TF.FilePolarity,Positive*%
%FSLAX46Y46*%
G04 Gerber Fmt 4.6, Leading zero omitted, Abs format (unit mm)*
G04 Created by KiCad (PCBNEW 8.0.7+1) date 2025-02-03 22:01:07*
%MOMM*%
%LPD*%
G01*
G04 APERTURE LIST*
%TA.AperFunction,ComponentPad*%
%ADD10C,2.600000*%
%TD*%
%TA.AperFunction,ConnectorPad*%
%ADD11C,4.400000*%
%TD*%
%TA.AperFunction,ComponentPad*%
%ADD12O,2.300000X1.400000*%
%TD*%
%TA.AperFunction,ComponentPad*%
%ADD13O,1.400000X2.300000*%
%TD*%
%TA.AperFunction,ComponentPad*%
%ADD14O,1.050000X1.500000*%
%TD*%
%TA.AperFunction,ComponentPad*%
%ADD15R,1.050000X1.500000*%
%TD*%
%TA.AperFunction,Conductor*%
%ADD16C,0.200000*%
%TD*%
G04 APERTURE END LIST*
D10*
%TO.P,H5,1,1*%
%TO.N,GND*%
X88900000Y-90805000D03*
D11*
X88900000Y-90805000D03*
%TD*%
D10*
%TO.P,H4,1,1*%
%TO.N,GND*%
X125095000Y-90805000D03*
D11*
X125095000Y-90805000D03*
%TD*%
D10*
%TO.P,H3,1,1*%
%TO.N,Net-(Q1-E)*%
X125000000Y-73000000D03*
D11*
X125000000Y-73000000D03*
%TD*%
D10*
%TO.P,H2,1,1*%
%TO.N,Net-(H2-Pad1)*%
X106680000Y-90805000D03*
D11*
X106680000Y-90805000D03*
%TD*%
%TO.P,H1,1,1*%
%TO.N,Net-(H1-Pad1)*%
X88900000Y-73025000D03*
D10*
X88900000Y-73025000D03*
%TD*%
D12*
%TO.P,U3,1,1*%
%TO.N,GND*%
X121460013Y-75740000D03*
%TO.P,U3,2,2*%
%TO.N,unconnected-(U3-Pad2)*%
X118260114Y-75740000D03*
%TO.P,U3,3,3*%
%TO.N,Net-(Q1-E)*%
X114759987Y-75740000D03*
X114759987Y-81740000D03*
%TO.P,U3,2,2*%
%TO.N,unconnected-(U3-Pad2)*%
X118260114Y-81740000D03*
%TO.P,U3,1,1*%
%TO.N,GND*%
X121460013Y-81740000D03*
%TD*%
D13*
%TO.P,U2,1,1*%
%TO.N,GND*%
X109500000Y-76899987D03*
%TO.P,U2,2,2*%
%TO.N,unconnected-(U2-Pad2)*%
X109500000Y-80099886D03*
%TO.P,U2,3,3*%
%TO.N,Net-(H2-Pad1)*%
X109500000Y-83600013D03*
X103500000Y-83600013D03*
%TO.P,U2,2,2*%
%TO.N,unconnected-(U2-Pad2)*%
X103500000Y-80099886D03*
%TO.P,U2,1,1*%
%TO.N,GND*%
X103500000Y-76899987D03*
%TD*%
D14*
%TO.P,Q1,3,E*%
%TO.N,Net-(Q1-E)*%
X119380000Y-86360000D03*
%TO.P,Q1,2,B*%
%TO.N,Net-(Q1-B)*%
X118110000Y-86360000D03*
D15*
%TO.P,Q1,1,C*%
%TO.N,Net-(Q1-C)*%
X116840000Y-86360000D03*
%TD*%
D12*
%TO.P,U1,1,1*%
%TO.N,GND*%
X91900087Y-81740000D03*
%TO.P,U1,2,2*%
%TO.N,unconnected-(U1-Pad2)*%
X95099986Y-81740000D03*
%TO.P,U1,3,3*%
%TO.N,Net-(H1-Pad1)*%
X98600113Y-81740000D03*
X98600113Y-75740000D03*
%TO.P,U1,2,2*%
%TO.N,unconnected-(U1-Pad2)*%
X95099986Y-75740000D03*
%TO.P,U1,1,1*%
%TO.N,GND*%
X91900087Y-75740000D03*
%TD*%
D16*
%TO.N,Net-(H2-Pad1)*%
X109500000Y-87985000D02*
X106680000Y-90805000D01*
X109500000Y-83600000D02*
X109500000Y-87985000D01*
%TO.N,Net-(H1-Pad1)*%
X100051800Y-75740000D02*
X100051800Y-81740000D01*
X98600100Y-75740000D02*
X100051800Y-75740000D01*
X98600100Y-81740000D02*
X100051800Y-81740000D01*
%TO.N,unconnected-(U3-Pad2)*%
X118260100Y-81740000D02*
X116808400Y-81740000D01*
X118260100Y-75740000D02*
X116808400Y-75740000D01*
X116808400Y-81740000D02*
X116808400Y-75740000D01*
%TO.N,unconnected-(U1-Pad2)*%
X96551700Y-81740000D02*
X96551700Y-75740000D01*
X95100000Y-81740000D02*
X96551700Y-81740000D01*
X95100000Y-75740000D02*
X96551700Y-75740000D01*
%TO.N,Net-(Q1-E)*%
X119380000Y-86360000D02*
X119380000Y-85308300D01*
X114760000Y-81740000D02*
X116211700Y-81740000D01*
X114760000Y-75740000D02*
X116211700Y-75740000D01*
X116211700Y-82140000D02*
X116211700Y-81740000D01*
X119380000Y-85308300D02*
X116211700Y-82140000D01*
X116359300Y-75887600D02*
X116211700Y-75740000D01*
X116359300Y-81592400D02*
X116359300Y-75887600D01*
X116211700Y-81740000D02*
X116359300Y-81592400D01*
%TD*%
%TA.AperFunction,Conductor*%
%TO.N,GND*%
G36*
X88060967Y-91521602D02*
G01*
X88183398Y-91644033D01*
X88317262Y-91741290D01*
X87175030Y-92883522D01*
X87175030Y-92883523D01*
X87363423Y-93031118D01*
X87642956Y-93200101D01*
X87642958Y-93200102D01*
X87736993Y-93242424D01*
X87790047Y-93287888D01*
X87810100Y-93354819D01*
X87790784Y-93421965D01*
X87738233Y-93468010D01*
X87686102Y-93479500D01*
X86454642Y-93479500D01*
X86387603Y-93459815D01*
X86366961Y-93443181D01*
X86261819Y-93338039D01*
X86228334Y-93276716D01*
X86225500Y-93250358D01*
X86225500Y-92018898D01*
X86245185Y-91951859D01*
X86297989Y-91906104D01*
X86367147Y-91896160D01*
X86430703Y-91925185D01*
X86462576Y-91968007D01*
X86504897Y-92062041D01*
X86504898Y-92062043D01*
X86673881Y-92341576D01*
X86821476Y-92529968D01*
X87963708Y-91387736D01*
X88060967Y-91521602D01*
G37*
%TD.AperFunction*%
%TA.AperFunction,Conductor*%
G36*
X123796373Y-70370185D02*
G01*
X123842128Y-70422989D01*
X123852072Y-70492147D01*
X123823047Y-70555703D01*
X123780225Y-70587575D01*
X123742721Y-70604455D01*
X123701368Y-70629454D01*
X123463131Y-70773473D01*
X123205960Y-70974954D01*
X122974954Y-71205960D01*
X122773473Y-71463131D01*
X122604454Y-71742723D01*
X122604453Y-71742725D01*
X122574228Y-71809882D01*
X122550767Y-71862012D01*
X122470372Y-72040642D01*
X122470366Y-72040657D01*
X122373178Y-72352547D01*
X122314289Y-72673900D01*
X122294564Y-73000000D01*
X122314289Y-73326099D01*
X122373178Y-73647452D01*
X122470366Y-73959342D01*
X122470370Y-73959354D01*
X122470373Y-73959361D01*
X122604455Y-74257279D01*
X122731545Y-74467511D01*
X122773473Y-74536868D01*
X122858087Y-74644869D01*
X122883936Y-74709781D01*
X122870587Y-74778364D01*
X122822279Y-74828842D01*
X122754349Y-74845191D01*
X122688364Y-74822218D01*
X122687591Y-74821661D01*
X122538949Y-74713667D01*
X122370650Y-74627914D01*
X122191015Y-74569548D01*
X122004460Y-74540000D01*
X121710013Y-74540000D01*
X121710013Y-75340000D01*
X121210013Y-75340000D01*
X121210013Y-74540000D01*
X120915566Y-74540000D01*
X120729010Y-74569548D01*
X120549375Y-74627914D01*
X120381072Y-74713670D01*
X120228271Y-74824685D01*
X120228266Y-74824689D01*
X120094702Y-74958253D01*
X120094698Y-74958258D01*
X119983681Y-75111061D01*
X119970828Y-75136287D01*
X119922853Y-75187082D01*
X119855032Y-75203877D01*
X119788897Y-75181339D01*
X119749859Y-75136286D01*
X119737005Y-75111059D01*
X119736874Y-75110801D01*
X119625804Y-74957927D01*
X119492187Y-74824310D01*
X119339313Y-74713240D01*
X119332524Y-74709781D01*
X119170950Y-74627454D01*
X118991232Y-74569059D01*
X118804600Y-74539500D01*
X118804595Y-74539500D01*
X117715633Y-74539500D01*
X117715628Y-74539500D01*
X117528995Y-74569059D01*
X117349277Y-74627454D01*
X117180914Y-74713240D01*
X117093693Y-74776610D01*
X117028041Y-74824310D01*
X117028039Y-74824312D01*
X117028038Y-74824312D01*
X116894426Y-74957924D01*
X116894419Y-74957933D01*
X116796327Y-75092943D01*
X116740997Y-75135609D01*
X116728104Y-75139832D01*
X116576614Y-75180423D01*
X116576611Y-75180425D01*
X116572042Y-75183063D01*
X116504141Y-75199530D01*
X116448053Y-75183060D01*
X116443485Y-75180423D01*
X116443487Y-75180423D01*
X116343194Y-75153549D01*
X116291994Y-75139830D01*
X116232335Y-75103466D01*
X116223772Y-75092943D01*
X116125677Y-74957927D01*
X115992060Y-74824310D01*
X115839186Y-74713240D01*
X115832397Y-74709781D01*
X115670823Y-74627454D01*
X115491105Y-74569059D01*
X115304473Y-74539500D01*
X115304468Y-74539500D01*
X114215506Y-74539500D01*
X114215501Y-74539500D01*
X114028868Y-74569059D01*
X113849150Y-74627454D01*
X113680787Y-74713240D01*
X113593566Y-74776610D01*
X113527914Y-74824310D01*
X113527912Y-74824312D01*
X113527911Y-74824312D01*
X113394299Y-74957924D01*
X113394299Y-74957925D01*
X113394297Y-74957927D01*
X113394057Y-74958258D01*
X113283227Y-75110800D01*
X113197441Y-75279163D01*
X113139046Y-75458881D01*
X113109487Y-75645513D01*
X113109487Y-75834486D01*
X113139046Y-76021118D01*
X113197441Y-76200836D01*
X113270241Y-76343712D01*
X113283227Y-76369199D01*
X113394297Y-76522073D01*
X113527914Y-76655690D01*
X113680788Y-76766760D01*
X113760334Y-76807290D01*
X113849150Y-76852545D01*
X113849152Y-76852545D01*
X113849155Y-76852547D01*
X113908797Y-76871926D01*
X114028868Y-76910940D01*
X114215501Y-76940500D01*
X114215506Y-76940500D01*
X115304473Y-76940500D01*
X115437780Y-76919385D01*
X115491105Y-76910940D01*
X115596484Y-76876699D01*
X115666322Y-76874704D01*
X115726155Y-76910784D01*
X115756984Y-76973485D01*
X115758800Y-76994631D01*
X115758800Y-77778233D01*
X115739115Y-77845272D01*
X115686311Y-77891027D01*
X115617153Y-77900971D01*
X115565910Y-77881336D01*
X115460080Y-77810624D01*
X115457738Y-77809059D01*
X115427471Y-77796522D01*
X115266560Y-77729870D01*
X115266552Y-77729868D01*
X115063609Y-77689500D01*
X115063605Y-77689500D01*
X114856675Y-77689500D01*
X114856670Y-77689500D01*
X114653727Y-77729868D01*
X114653719Y-77729870D01*
X114462543Y-77809058D01*
X114290482Y-77924024D01*
X114144164Y-78070342D01*
X114029198Y-78242403D01*
X113950010Y-78433579D01*
X113950008Y-78433587D01*
X113909640Y-78636530D01*
X113909640Y-78843469D01*
X113950008Y-79046412D01*
X113950010Y-79046420D01*
X114029198Y-79237596D01*
X114144164Y-79409657D01*
X114290482Y-79555975D01*
X114290485Y-79555977D01*
X114462542Y-79670941D01*
X114653720Y-79750130D01*
X114856670Y-79790499D01*
X114856674Y-79790500D01*
X114856675Y-79790500D01*
X115063606Y-79790500D01*
X115063607Y-79790499D01*
X115266560Y-79750130D01*
X115457738Y-79670941D01*
X115457739Y-79670940D01*
X115457740Y-79670940D01*
X115565910Y-79598664D01*
X115632587Y-79577786D01*
X115699967Y-79596271D01*
X115746657Y-79648250D01*
X115758800Y-79701766D01*
X115758800Y-80485368D01*
X115739115Y-80552407D01*
X115686311Y-80598162D01*
X115617153Y-80608106D01*
X115596481Y-80603299D01*
X115491105Y-80569059D01*
X115304473Y-80539500D01*
X115304468Y-80539500D01*
X114215506Y-80539500D01*
X114215501Y-80539500D01*
X114028868Y-80569059D01*
X113849150Y-80627454D01*
X113680787Y-80713240D01*
X113630696Y-80749634D01*
X113527914Y-80824310D01*
X113527912Y-80824312D01*
X113527911Y-80824312D01*
X113394299Y-80957924D01*
X113394299Y-80957925D01*
X113394297Y-80957927D01*
X113394057Y-80958258D01*
X113283227Y-81110800D01*
X113197441Y-81279163D01*
X113139046Y-81458881D01*
X113109487Y-81645513D01*
X113109487Y-81834486D01*
X113139046Y-82021118D01*
X113197441Y-82200836D01*
X113282584Y-82367937D01*
X113283227Y-82369199D01*
X113394297Y-82522073D01*
X113527914Y-82655690D01*
X113680788Y-82766760D01*
X113703847Y-82778509D01*
X113849150Y-82852545D01*
X113849152Y-82852545D01*
X113849155Y-82852547D01*
X113899466Y-82868894D01*
X114028868Y-82910940D01*
X114215501Y-82940500D01*
X114215506Y-82940500D01*
X115304473Y-82940500D01*
X115491105Y-82910940D01*
X115517813Y-82902262D01*
X115670819Y-82852547D01*
X115839186Y-82766760D01*
X115840397Y-82765879D01*
X115840938Y-82765686D01*
X115843342Y-82764214D01*
X115843651Y-82764718D01*
X115906200Y-82742393D01*
X115974256Y-82758211D01*
X116000974Y-82778509D01*
X118120284Y-84897819D01*
X118153769Y-84959142D01*
X118148785Y-85028834D01*
X118106913Y-85084767D01*
X118041449Y-85109184D01*
X118032603Y-85109500D01*
X118008992Y-85109500D01*
X117810880Y-85148907D01*
X117810868Y-85148910D01*
X117730198Y-85182325D01*
X117660729Y-85189794D01*
X117615342Y-85170036D01*
X117615114Y-85170454D01*
X117610447Y-85167905D01*
X117608432Y-85167028D01*
X117607331Y-85166204D01*
X117607330Y-85166203D01*
X117607328Y-85166202D01*
X117472482Y-85115908D01*
X117472483Y-85115908D01*
X117412883Y-85109501D01*
X117412881Y-85109500D01*
X117412873Y-85109500D01*
X117412864Y-85109500D01*
X116267129Y-85109500D01*
X116267123Y-85109501D01*
X116207516Y-85115908D01*
X116072671Y-85166202D01*
X116072664Y-85166206D01*
X115957455Y-85252452D01*
X115957452Y-85252455D01*
X115871206Y-85367664D01*
X115871202Y-85367671D01*
X115820908Y-85502517D01*
X115814501Y-85562116D01*
X115814500Y-85562135D01*
X115814500Y-87157870D01*
X115814501Y-87157876D01*
X115820908Y-87217483D01*
X115871202Y-87352328D01*
X115871206Y-87352335D01*
X115957452Y-87467544D01*
X115957455Y-87467547D01*
X116072664Y-87553793D01*
X116072671Y-87553797D01*
X116207517Y-87604091D01*
X116207516Y-87604091D01*
X116214444Y-87604835D01*
X116267127Y-87610500D01*
X117412872Y-87610499D01*
X117472483Y-87604091D01*
X117607331Y-87553796D01*
X117608430Y-87552972D01*
X117609717Y-87552492D01*
X117615112Y-87549547D01*
X117615535Y-87550322D01*
X117673887Y-87528552D01*
X117730198Y-87537673D01*
X117810873Y-87571091D01*
X117976777Y-87604091D01*
X118008992Y-87610499D01*
X118008996Y-87610500D01*
X118008997Y-87610500D01*
X118211004Y-87610500D01*
X118211005Y-87610499D01*
X118409127Y-87571091D01*
X118595756Y-87493786D01*
X118676110Y-87440094D01*
X118742786Y-87419217D01*
X118810166Y-87437701D01*
X118813865Y-87440078D01*
X118894244Y-87493786D01*
X119080873Y-87571091D01*
X119246777Y-87604091D01*
X119278992Y-87610499D01*
X119278996Y-87610500D01*
X119278997Y-87610500D01*
X119481004Y-87610500D01*
X119481005Y-87610499D01*
X119679127Y-87571091D01*
X119865756Y-87493786D01*
X120033718Y-87381558D01*
X120176558Y-87238718D01*
X120288786Y-87070756D01*
X120366091Y-86884127D01*
X120405500Y-86686003D01*
X120405500Y-86033997D01*
X120366091Y-85835873D01*
X120288786Y-85649244D01*
X120288784Y-85649241D01*
X120288782Y-85649237D01*
X120176558Y-85481281D01*
X120033725Y-85338448D01*
X120029016Y-85334584D01*
X120030159Y-85333190D01*
X119990796Y-85286072D01*
X119980501Y-85236604D01*
X119980501Y-85229245D01*
X119980501Y-85229243D01*
X119939577Y-85076515D01*
X119910639Y-85026395D01*
X119860520Y-84939584D01*
X119748716Y-84827780D01*
X119748715Y-84827779D01*
X119744385Y-84823449D01*
X119744374Y-84823439D01*
X118073116Y-83152181D01*
X118039631Y-83090858D01*
X118044615Y-83021166D01*
X118086487Y-82965233D01*
X118151951Y-82940816D01*
X118160797Y-82940500D01*
X118804600Y-82940500D01*
X118991232Y-82910940D01*
X119017940Y-82902262D01*
X119170946Y-82852547D01*
X119339313Y-82766760D01*
X119492187Y-82655690D01*
X119625804Y-82522073D01*
X119736874Y-82369199D01*
X119749859Y-82343713D01*
X119797832Y-82292918D01*
X119865652Y-82276122D01*
X119931788Y-82298658D01*
X119970829Y-82343714D01*
X119983681Y-82368938D01*
X120094698Y-82521741D01*
X120094702Y-82521746D01*
X120228266Y-82655310D01*
X120228271Y-82655314D01*
X120381072Y-82766329D01*
X120549375Y-82852085D01*
X120729010Y-82910451D01*
X120915566Y-82940000D01*
X121210013Y-82940000D01*
X121210013Y-82140000D01*
X121710013Y-82140000D01*
X121710013Y-82940000D01*
X122004460Y-82940000D01*
X122191015Y-82910451D01*
X122370650Y-82852085D01*
X122538953Y-82766329D01*
X122691754Y-82655314D01*
X122691759Y-82655310D01*
X122825323Y-82521746D01*
X122825327Y-82521741D01*
X122936342Y-82368940D01*
X123022098Y-82200637D01*
X123080464Y-82021002D01*
X123085375Y-81990000D01*
X122125699Y-81990000D01*
X122130093Y-81985606D01*
X122182754Y-81894394D01*
X122210013Y-81792661D01*
X122210013Y-81687339D01*
X122182754Y-81585606D01*
X122130093Y-81494394D01*
X122125699Y-81490000D01*
X123085375Y-81490000D01*
X123080464Y-81458997D01*
X123022098Y-81279362D01*
X122936342Y-81111059D01*
X122825327Y-80958258D01*
X122825323Y-80958253D01*
X122691759Y-80824689D01*
X122691754Y-80824685D01*
X122538953Y-80713670D01*
X122370650Y-80627914D01*
X122191015Y-80569548D01*
X122004460Y-80540000D01*
X121710013Y-80540000D01*
X121710013Y-81340000D01*
X121210013Y-81340000D01*
X121210013Y-80540000D01*
X120915566Y-80540000D01*
X120729010Y-80569548D01*
X120549375Y-80627914D01*
X120381072Y-80713670D01*
X120228271Y-80824685D01*
X120228266Y-80824689D01*
X120094702Y-80958253D01*
X120094698Y-80958258D01*
X119983681Y-81111061D01*
X119970828Y-81136287D01*
X119922853Y-81187082D01*
X119855032Y-81203877D01*
X119788897Y-81181339D01*
X119749859Y-81136286D01*
X119737005Y-81111059D01*
X119736874Y-81110801D01*
X119625804Y-80957927D01*
X119492187Y-80824310D01*
X119339313Y-80713240D01*
X119170950Y-80627454D01*
X118991232Y-80569059D01*
X118804600Y-80539500D01*
X118804595Y-80539500D01*
X117715633Y-80539500D01*
X117715628Y-80539500D01*
X117552298Y-80565369D01*
X117483005Y-80556414D01*
X117429553Y-80511418D01*
X117408913Y-80444667D01*
X117408900Y-80442896D01*
X117408900Y-78636530D01*
X119409513Y-78636530D01*
X119409513Y-78843469D01*
X119449881Y-79046412D01*
X119449883Y-79046420D01*
X119529071Y-79237596D01*
X119644037Y-79409657D01*
X119790355Y-79555975D01*
X119790358Y-79555977D01*
X119962415Y-79670941D01*
X120153593Y-79750130D01*
X120356543Y-79790499D01*
X120356547Y-79790500D01*
X120356548Y-79790500D01*
X120563479Y-79790500D01*
X120563480Y-79790499D01*
X120766433Y-79750130D01*
X120957611Y-79670941D01*
X121129668Y-79555977D01*
X121275990Y-79409655D01*
X121390954Y-79237598D01*
X121470143Y-79046420D01*
X121510513Y-78843465D01*
X121510513Y-78636535D01*
X121470143Y-78433580D01*
X121390954Y-78242402D01*
X121275990Y-78070345D01*
X121275989Y-78070344D01*
X121275988Y-78070342D01*
X121129670Y-77924024D01*
X120959953Y-77810624D01*
X120957611Y-77809059D01*
X120927344Y-77796522D01*
X120766433Y-77729870D01*
X120766425Y-77729868D01*
X120563482Y-77689500D01*
X120563478Y-77689500D01*
X120356548Y-77689500D01*
X120356543Y-77689500D01*
X120153600Y-77729868D01*
X120153592Y-77729870D01*
X119962416Y-77809058D01*
X119790355Y-77924024D01*
X119644037Y-78070342D01*
X119529071Y-78242403D01*
X119449883Y-78433579D01*
X119449881Y-78433587D01*
X119409513Y-78636530D01*
X117408900Y-78636530D01*
X117408900Y-77037103D01*
X117428585Y-76970064D01*
X117481389Y-76924309D01*
X117550547Y-76914365D01*
X117552189Y-76914613D01*
X117642584Y-76928930D01*
X117715629Y-76940500D01*
X117715633Y-76940500D01*
X118804600Y-76940500D01*
X118991232Y-76910940D01*
X119056118Y-76889857D01*
X119170946Y-76852547D01*
X119339313Y-76766760D01*
X119492187Y-76655690D01*
X119625804Y-76522073D01*
X119736874Y-76369199D01*
X119749859Y-76343713D01*
X119797832Y-76292918D01*
X119865652Y-76276122D01*
X119931788Y-76298658D01*
X119970829Y-76343714D01*
X119983681Y-76368938D01*
X120094698Y-76521741D01*
X120094702Y-76521746D01*
X120228266Y-76655310D01*
X120228271Y-76655314D01*
X120381072Y-76766329D01*
X120549375Y-76852085D01*
X120729010Y-76910451D01*
X120915566Y-76940000D01*
X121210013Y-76940000D01*
X121210013Y-76140000D01*
X121710013Y-76140000D01*
X121710013Y-76940000D01*
X122004460Y-76940000D01*
X122191015Y-76910451D01*
X122370650Y-76852085D01*
X122538953Y-76766329D01*
X122691754Y-76655314D01*
X122691759Y-76655310D01*
X122825323Y-76521746D01*
X122825327Y-76521741D01*
X122936342Y-76368940D01*
X123022098Y-76200637D01*
X123080464Y-76021002D01*
X123085375Y-75990000D01*
X122125699Y-75990000D01*
X122130093Y-75985606D01*
X122182754Y-75894394D01*
X122210013Y-75792661D01*
X122210013Y-75687339D01*
X122182754Y-75585606D01*
X122130093Y-75494394D01*
X122125699Y-75490000D01*
X123085375Y-75490000D01*
X123080464Y-75458997D01*
X123022098Y-75279362D01*
X122936342Y-75111059D01*
X122917569Y-75085219D01*
X122894089Y-75019413D01*
X122909915Y-74951359D01*
X122960020Y-74902664D01*
X123028498Y-74888789D01*
X123093607Y-74914138D01*
X123105568Y-74924653D01*
X123205960Y-75025045D01*
X123463131Y-75226526D01*
X123463134Y-75226528D01*
X123463137Y-75226530D01*
X123742721Y-75395545D01*
X124040639Y-75529627D01*
X124040652Y-75529631D01*
X124040657Y-75529633D01*
X124352547Y-75626821D01*
X124673896Y-75685710D01*
X125000000Y-75705436D01*
X125326104Y-75685710D01*
X125647453Y-75626821D01*
X125959361Y-75529627D01*
X126257279Y-75395545D01*
X126536863Y-75226530D01*
X126794036Y-75025048D01*
X127025048Y-74794036D01*
X127226530Y-74536863D01*
X127395545Y-74257279D01*
X127529627Y-73959361D01*
X127529628Y-73959354D01*
X127531164Y-73955944D01*
X127531997Y-73956319D01*
X127571739Y-73903837D01*
X127637338Y-73879782D01*
X127705527Y-73895011D01*
X127754659Y-73944689D01*
X127769500Y-74003513D01*
X127769500Y-89591101D01*
X127749815Y-89658140D01*
X127697011Y-89703895D01*
X127627853Y-89713839D01*
X127564297Y-89684814D01*
X127532424Y-89641992D01*
X127490103Y-89547958D01*
X127490101Y-89547956D01*
X127321118Y-89268423D01*
X127173522Y-89080030D01*
X126031290Y-90222262D01*
X125934033Y-90088398D01*
X125811602Y-89965967D01*
X125677736Y-89868709D01*
X126819968Y-88726476D01*
X126631576Y-88578881D01*
X126352043Y-88409898D01*
X126352041Y-88409897D01*
X126054175Y-88275839D01*
X126054164Y-88275835D01*
X125742341Y-88178667D01*
X125421038Y-88119786D01*
X125095000Y-88100065D01*
X124768961Y-88119786D01*
X124447658Y-88178667D01*
X124135835Y-88275835D01*
X124135824Y-88275839D01*
X123837958Y-88409897D01*
X123837956Y-88409898D01*
X123558422Y-88578881D01*
X123558416Y-88578886D01*
X123370030Y-88726474D01*
X123370029Y-88726476D01*
X124512262Y-89868709D01*
X124378398Y-89965967D01*
X124255967Y-90088398D01*
X124158709Y-90222262D01*
X123016476Y-89080029D01*
X123016474Y-89080030D01*
X122868886Y-89268416D01*
X122868881Y-89268422D01*
X122699898Y-89547956D01*
X122699897Y-89547958D01*
X122565839Y-89845824D01*
X122565835Y-89845835D01*
X122468667Y-90157658D01*
X122409786Y-90478961D01*
X122390065Y-90805000D01*
X122409786Y-91131038D01*
X122468667Y-91452341D01*
X122565835Y-91764164D01*
X122565839Y-91764175D01*
X122699897Y-92062041D01*
X122699898Y-92062043D01*
X122868881Y-92341576D01*
X123016476Y-92529968D01*
X124158708Y-91387736D01*
X124255967Y-91521602D01*
X124378398Y-91644033D01*
X124512262Y-91741290D01*
X123370030Y-92883522D01*
X123370030Y-92883523D01*
X123558423Y-93031118D01*
X123837956Y-93200101D01*
X123837958Y-93200102D01*
X123931993Y-93242424D01*
X123985047Y-93287888D01*
X124005100Y-93354819D01*
X123985784Y-93421965D01*
X123933233Y-93468010D01*
X123881102Y-93479500D01*
X107895118Y-93479500D01*
X107828079Y-93459815D01*
X107782324Y-93407011D01*
X107772380Y-93337853D01*
X107801405Y-93274297D01*
X107844225Y-93242424D01*
X107937279Y-93200545D01*
X108216863Y-93031530D01*
X108474036Y-92830048D01*
X108705048Y-92599036D01*
X108906530Y-92341863D01*
X109075545Y-92062279D01*
X109209627Y-91764361D01*
X109306821Y-91452453D01*
X109365710Y-91131104D01*
X109385436Y-90805000D01*
X109365710Y-90478896D01*
X109306821Y-90157547D01*
X109209627Y-89845639D01*
X109075545Y-89547721D01*
X109016905Y-89450718D01*
X108999070Y-89383168D01*
X109020587Y-89316694D01*
X109035337Y-89298896D01*
X109868713Y-88465521D01*
X109868716Y-88465520D01*
X109980520Y-88353716D01*
X110030639Y-88266904D01*
X110059577Y-88216785D01*
X110100500Y-88064058D01*
X110100500Y-87905943D01*
X110100500Y-85160804D01*
X110120185Y-85093765D01*
X110151612Y-85060488D01*
X110282073Y-84965703D01*
X110415690Y-84832086D01*
X110526760Y-84679212D01*
X110612547Y-84510845D01*
X110670940Y-84331131D01*
X110689201Y-84215835D01*
X110700500Y-84144499D01*
X110700500Y-83055526D01*
X110670940Y-82868894D01*
X110629837Y-82742393D01*
X110612547Y-82689181D01*
X110612545Y-82689178D01*
X110612545Y-82689176D01*
X110558895Y-82583883D01*
X110526760Y-82520814D01*
X110415690Y-82367940D01*
X110282073Y-82234323D01*
X110129199Y-82123253D01*
X110108568Y-82112741D01*
X109960836Y-82037467D01*
X109781119Y-81979073D01*
X109739128Y-81972422D01*
X109675994Y-81942492D01*
X109639063Y-81883180D01*
X109640061Y-81813318D01*
X109678672Y-81755085D01*
X109739127Y-81727476D01*
X109781118Y-81720826D01*
X109960832Y-81662433D01*
X110129199Y-81576646D01*
X110282073Y-81465576D01*
X110415690Y-81331959D01*
X110526760Y-81179085D01*
X110612547Y-81010718D01*
X110670940Y-80831004D01*
X110700500Y-80644372D01*
X110700500Y-79555399D01*
X110670940Y-79368767D01*
X110612545Y-79189049D01*
X110541016Y-79048667D01*
X110526760Y-79020687D01*
X110415690Y-78867813D01*
X110282073Y-78734196D01*
X110129199Y-78623126D01*
X110129198Y-78623125D01*
X110129196Y-78623124D01*
X110103712Y-78610139D01*
X110052917Y-78562164D01*
X110036122Y-78494343D01*
X110058660Y-78428209D01*
X110103717Y-78389168D01*
X110128941Y-78376316D01*
X110281741Y-78265301D01*
X110281746Y-78265297D01*
X110415310Y-78131733D01*
X110415314Y-78131728D01*
X110526329Y-77978927D01*
X110612085Y-77810624D01*
X110670451Y-77630989D01*
X110700000Y-77444434D01*
X110700000Y-77149987D01*
X109900000Y-77149987D01*
X109900000Y-76649987D01*
X110700000Y-76649987D01*
X110700000Y-76355539D01*
X110670451Y-76168984D01*
X110612085Y-75989349D01*
X110526329Y-75821046D01*
X110415314Y-75668245D01*
X110415310Y-75668240D01*
X110281746Y-75534676D01*
X110281741Y-75534672D01*
X110128940Y-75423657D01*
X109960635Y-75337900D01*
X109781004Y-75279536D01*
X109780995Y-75279534D01*
X109750000Y-75274624D01*
X109750000Y-76234301D01*
X109745606Y-76229907D01*
X109654394Y-76177246D01*
X109552661Y-76149987D01*
X109447339Y-76149987D01*
X109345606Y-76177246D01*
X109254394Y-76229907D01*
X109250000Y-76234301D01*
X109250000Y-75274624D01*
X109249999Y-75274624D01*
X109219004Y-75279534D01*
X109218995Y-75279536D01*
X109039364Y-75337900D01*
X108871059Y-75423657D01*
X108718258Y-75534672D01*
X108718253Y-75534676D01*
X108584689Y-75668240D01*
X108584685Y-75668245D01*
X108473670Y-75821046D01*
X108387914Y-75989349D01*
X108329548Y-76168984D01*
X108300000Y-76355539D01*
X108300000Y-76649987D01*
X109100000Y-76649987D01*
X109100000Y-77149987D01*
X108300000Y-77149987D01*
X108300000Y-77444434D01*
X108329548Y-77630989D01*
X108387914Y-77810624D01*
X108473670Y-77978927D01*
X108584685Y-78131728D01*
X108584689Y-78131733D01*
X108718253Y-78265297D01*
X108718258Y-78265301D01*
X108871058Y-78376316D01*
X108896284Y-78389169D01*
X108947081Y-78437143D01*
X108963877Y-78504963D01*
X108941341Y-78571099D01*
X108896288Y-78610138D01*
X108870805Y-78623122D01*
X108768885Y-78697172D01*
X108717927Y-78734196D01*
X108717925Y-78734198D01*
X108717924Y-78734198D01*
X108584312Y-78867810D01*
X108584312Y-78867811D01*
X108584310Y-78867813D01*
X108536610Y-78933465D01*
X108473240Y-79020686D01*
X108387454Y-79189049D01*
X108329059Y-79368767D01*
X108299500Y-79555399D01*
X108299500Y-80644372D01*
X108329059Y-80831004D01*
X108387454Y-81010722D01*
X108438579Y-81111059D01*
X108473240Y-81179085D01*
X108584310Y-81331959D01*
X108717927Y-81465576D01*
X108870801Y-81576646D01*
X108950347Y-81617176D01*
X109039163Y-81662431D01*
X109039165Y-81662431D01*
X109039168Y-81662433D01*
X109142976Y-81696162D01*
X109218875Y-81720824D01*
X109218876Y-81720824D01*
X109218882Y-81720826D01*
X109260872Y-81727476D01*
X109324004Y-81757404D01*
X109360936Y-81816716D01*
X109359938Y-81886578D01*
X109321329Y-81944811D01*
X109260871Y-81972422D01*
X109218880Y-81979073D01*
X109039163Y-82037467D01*
X108870800Y-82123253D01*
X108783579Y-82186623D01*
X108717927Y-82234323D01*
X108717925Y-82234325D01*
X108717924Y-82234325D01*
X108584312Y-82367937D01*
X108584312Y-82367938D01*
X108584310Y-82367940D01*
X108570428Y-82387047D01*
X108473240Y-82520813D01*
X108387454Y-82689176D01*
X108329059Y-82868894D01*
X108299500Y-83055526D01*
X108299500Y-84144499D01*
X108329059Y-84331131D01*
X108387454Y-84510849D01*
X108473240Y-84679212D01*
X108584310Y-84832086D01*
X108717927Y-84965703D01*
X108848386Y-85060487D01*
X108891051Y-85115816D01*
X108899500Y-85160804D01*
X108899500Y-87684902D01*
X108879815Y-87751941D01*
X108863181Y-87772583D01*
X108186107Y-88449656D01*
X108124784Y-88483141D01*
X108055092Y-88478157D01*
X108034280Y-88468093D01*
X107937279Y-88409455D01*
X107639361Y-88275373D01*
X107639354Y-88275370D01*
X107639342Y-88275366D01*
X107327452Y-88178178D01*
X107006099Y-88119289D01*
X106680000Y-88099564D01*
X106353900Y-88119289D01*
X106032547Y-88178178D01*
X105720657Y-88275366D01*
X105720641Y-88275372D01*
X105720639Y-88275373D01*
X105422721Y-88409455D01*
X105356221Y-88449656D01*
X105143131Y-88578473D01*
X104885960Y-88779954D01*
X104654954Y-89010960D01*
X104453473Y-89268131D01*
X104434878Y-89298891D01*
X104284455Y-89547721D01*
X104213670Y-89705000D01*
X104150372Y-89845642D01*
X104150366Y-89845657D01*
X104053178Y-90157547D01*
X103994289Y-90478900D01*
X103974564Y-90805000D01*
X103994289Y-91131099D01*
X104053178Y-91452452D01*
X104150366Y-91764342D01*
X104150370Y-91764354D01*
X104150373Y-91764361D01*
X104284455Y-92062279D01*
X104448901Y-92334306D01*
X104453473Y-92341868D01*
X104654954Y-92599039D01*
X104885960Y-92830045D01*
X105143131Y-93031526D01*
X105143134Y-93031528D01*
X105143137Y-93031530D01*
X105422721Y-93200545D01*
X105515773Y-93242424D01*
X105568828Y-93287888D01*
X105588880Y-93354819D01*
X105569564Y-93421965D01*
X105517012Y-93468010D01*
X105464882Y-93479500D01*
X90113898Y-93479500D01*
X90046859Y-93459815D01*
X90001104Y-93407011D01*
X89991160Y-93337853D01*
X90020185Y-93274297D01*
X90063007Y-93242424D01*
X90157041Y-93200102D01*
X90157043Y-93200101D01*
X90436586Y-93031112D01*
X90624968Y-92883523D01*
X90624968Y-92883522D01*
X89482736Y-91741290D01*
X89616602Y-91644033D01*
X89739033Y-91521602D01*
X89836290Y-91387736D01*
X90978522Y-92529968D01*
X90978523Y-92529968D01*
X91126112Y-92341586D01*
X91295101Y-92062043D01*
X91295102Y-92062041D01*
X91429160Y-91764175D01*
X91429164Y-91764164D01*
X91526332Y-91452341D01*
X91585213Y-91131038D01*
X91604934Y-90805000D01*
X91585213Y-90478961D01*
X91526332Y-90157658D01*
X91429164Y-89845835D01*
X91429160Y-89845824D01*
X91295102Y-89547958D01*
X91295101Y-89547956D01*
X91126118Y-89268423D01*
X90978522Y-89080030D01*
X89836290Y-90222262D01*
X89739033Y-90088398D01*
X89616602Y-89965967D01*
X89482736Y-89868709D01*
X90624968Y-88726476D01*
X90436576Y-88578881D01*
X90157043Y-88409898D01*
X90157041Y-88409897D01*
X89859175Y-88275839D01*
X89859164Y-88275835D01*
X89547341Y-88178667D01*
X89226038Y-88119786D01*
X88900000Y-88100065D01*
X88573961Y-88119786D01*
X88252658Y-88178667D01*
X87940835Y-88275835D01*
X87940824Y-88275839D01*
X87642958Y-88409897D01*
X87642956Y-88409898D01*
X87363422Y-88578881D01*
X87363416Y-88578886D01*
X87175030Y-88726474D01*
X87175029Y-88726476D01*
X88317262Y-89868709D01*
X88183398Y-89965967D01*
X88060967Y-90088398D01*
X87963709Y-90222262D01*
X86821476Y-89080029D01*
X86821474Y-89080030D01*
X86673886Y-89268416D01*
X86673881Y-89268422D01*
X86504898Y-89547956D01*
X86504896Y-89547958D01*
X86462576Y-89641992D01*
X86417111Y-89695047D01*
X86350181Y-89715099D01*
X86283034Y-89695783D01*
X86236990Y-89643231D01*
X86225500Y-89591101D01*
X86225500Y-78636530D01*
X91849587Y-78636530D01*
X91849587Y-78843469D01*
X91889955Y-79046412D01*
X91889957Y-79046420D01*
X91969145Y-79237596D01*
X92084111Y-79409657D01*
X92230429Y-79555975D01*
X92230432Y-79555977D01*
X92402489Y-79670941D01*
X92593667Y-79750130D01*
X92796617Y-79790499D01*
X92796621Y-79790500D01*
X92796622Y-79790500D01*
X93003553Y-79790500D01*
X93003554Y-79790499D01*
X93206507Y-79750130D01*
X93397685Y-79670941D01*
X93569742Y-79555977D01*
X93716064Y-79409655D01*
X93831028Y-79237598D01*
X93910217Y-79046420D01*
X93950587Y-78843465D01*
X93950587Y-78636535D01*
X93910217Y-78433580D01*
X93831028Y-78242402D01*
X93716064Y-78070345D01*
X93716063Y-78070344D01*
X93716062Y-78070342D01*
X93569744Y-77924024D01*
X93400027Y-77810624D01*
X93397685Y-77809059D01*
X93367418Y-77796522D01*
X93206507Y-77729870D01*
X93206499Y-77729868D01*
X93003556Y-77689500D01*
X93003552Y-77689500D01*
X92796622Y-77689500D01*
X92796617Y-77689500D01*
X92593674Y-77729868D01*
X92593666Y-77729870D01*
X92402490Y-77809058D01*
X92230429Y-77924024D01*
X92084111Y-78070342D01*
X91969145Y-78242403D01*
X91889957Y-78433579D01*
X91889955Y-78433587D01*
X91849587Y-78636530D01*
X86225500Y-78636530D01*
X86225500Y-74240117D01*
X86245185Y-74173078D01*
X86297989Y-74127323D01*
X86367147Y-74117379D01*
X86430703Y-74146404D01*
X86462574Y-74189223D01*
X86504455Y-74282279D01*
X86616432Y-74467511D01*
X86673473Y-74561868D01*
X86874954Y-74819039D01*
X87105960Y-75050045D01*
X87363131Y-75251526D01*
X87363134Y-75251528D01*
X87363137Y-75251530D01*
X87642721Y-75420545D01*
X87940639Y-75554627D01*
X87940652Y-75554631D01*
X87940657Y-75554633D01*
X88232304Y-75645513D01*
X88252547Y-75651821D01*
X88573896Y-75710710D01*
X88900000Y-75730436D01*
X89226104Y-75710710D01*
X89547453Y-75651821D01*
X89859361Y-75554627D01*
X90114474Y-75439809D01*
X90183685Y-75430247D01*
X90247080Y-75459621D01*
X90259655Y-75472355D01*
X90274725Y-75490000D01*
X91234401Y-75490000D01*
X91230007Y-75494394D01*
X91177346Y-75585606D01*
X91150087Y-75687339D01*
X91150087Y-75792661D01*
X91177346Y-75894394D01*
X91230007Y-75985606D01*
X91234401Y-75990000D01*
X90274725Y-75990000D01*
X90279635Y-76021002D01*
X90338001Y-76200637D01*
X90423757Y-76368940D01*
X90534772Y-76521741D01*
X90534776Y-76521746D01*
X90668340Y-76655310D01*
X90668345Y-76655314D01*
X90821146Y-76766329D01*
X90989449Y-76852085D01*
X91169084Y-76910451D01*
X91355640Y-76940000D01*
X91650087Y-76940000D01*
X91650087Y-76140000D01*
X92150087Y-76140000D01*
X92150087Y-76940000D01*
X92444534Y-76940000D01*
X92631089Y-76910451D01*
X92810724Y-76852085D01*
X92979027Y-76766329D01*
X93131828Y-76655314D01*
X93131833Y-76655310D01*
X93265397Y-76521746D01*
X93265401Y-76521741D01*
X93376416Y-76368941D01*
X93389268Y-76343717D01*
X93437241Y-76292919D01*
X93505062Y-76276122D01*
X93571197Y-76298657D01*
X93610239Y-76343712D01*
X93623224Y-76369196D01*
X93623226Y-76369199D01*
X93734296Y-76522073D01*
X93867913Y-76655690D01*
X94020787Y-76766760D01*
X94100333Y-76807290D01*
X94189149Y-76852545D01*
X94189151Y-76852545D01*
X94189154Y-76852547D01*
X94248796Y-76871926D01*
X94368867Y-76910940D01*
X94555500Y-76940500D01*
X94555505Y-76940500D01*
X95644471Y-76940500D01*
X95717515Y-76928930D01*
X95807803Y-76914630D01*
X95877095Y-76923584D01*
X95930547Y-76968580D01*
X95951187Y-77035332D01*
X95951200Y-77037103D01*
X95951200Y-80442896D01*
X95931515Y-80509935D01*
X95878711Y-80555690D01*
X95809553Y-80565634D01*
X95807802Y-80565369D01*
X95644472Y-80539500D01*
X95644467Y-80539500D01*
X94555505Y-80539500D01*
X94555500Y-80539500D01*
X94368867Y-80569059D01*
X94189149Y-80627454D01*
X94020786Y-80713240D01*
X93970695Y-80749634D01*
X93867913Y-80824310D01*
X93867911Y-80824312D01*
X93867910Y-80824312D01*
X93734298Y-80957924D01*
X93734298Y-80957925D01*
X93734296Y-80957927D01*
X93734056Y-80958258D01*
X93623222Y-81110805D01*
X93610238Y-81136288D01*
X93562263Y-81187083D01*
X93494442Y-81203877D01*
X93428307Y-81181338D01*
X93389269Y-81136284D01*
X93376416Y-81111058D01*
X93265401Y-80958258D01*
X93265397Y-80958253D01*
X93131833Y-80824689D01*
X93131828Y-80824685D01*
X92979027Y-80713670D01*
X92810724Y-80627914D01*
X92631089Y-80569548D01*
X92444534Y-80540000D01*
X92150087Y-80540000D01*
X92150087Y-81340000D01*
X91650087Y-81340000D01*
X91650087Y-80540000D01*
X91355640Y-80540000D01*
X91169084Y-80569548D01*
X90989449Y-80627914D01*
X90821146Y-80713670D01*
X90668345Y-80824685D01*
X90668340Y-80824689D01*
X90534776Y-80958253D01*
X90534772Y-80958258D01*
X90423757Y-81111059D01*
X90338001Y-81279362D01*
X90279635Y-81458997D01*
X90274725Y-81490000D01*
X91234401Y-81490000D01*
X91230007Y-81494394D01*
X91177346Y-81585606D01*
X91150087Y-81687339D01*
X91150087Y-81792661D01*
X91177346Y-81894394D01*
X91230007Y-81985606D01*
X91234401Y-81990000D01*
X90274725Y-81990000D01*
X90279635Y-82021002D01*
X90338001Y-82200637D01*
X90423757Y-82368940D01*
X90534772Y-82521741D01*
X90534776Y-82521746D01*
X90668340Y-82655310D01*
X90668345Y-82655314D01*
X90821146Y-82766329D01*
X90989449Y-82852085D01*
X91169084Y-82910451D01*
X91355640Y-82940000D01*
X91650087Y-82940000D01*
X91650087Y-82140000D01*
X92150087Y-82140000D01*
X92150087Y-82940000D01*
X92444534Y-82940000D01*
X92631089Y-82910451D01*
X92810724Y-82852085D01*
X92979027Y-82766329D01*
X93131828Y-82655314D01*
X93131833Y-82655310D01*
X93265397Y-82521746D01*
X93265401Y-82521741D01*
X93376416Y-82368941D01*
X93389268Y-82343717D01*
X93437241Y-82292919D01*
X93505062Y-82276122D01*
X93571197Y-82298657D01*
X93610239Y-82343712D01*
X93623224Y-82369196D01*
X93623226Y-82369199D01*
X93734296Y-82522073D01*
X93867913Y-82655690D01*
X94020787Y-82766760D01*
X94043846Y-82778509D01*
X94189149Y-82852545D01*
X94189151Y-82852545D01*
X94189154Y-82852547D01*
X94239465Y-82868894D01*
X94368867Y-82910940D01*
X94555500Y-82940500D01*
X94555505Y-82940500D01*
X95644472Y-82940500D01*
X95831104Y-82910940D01*
X95857812Y-82902262D01*
X96010818Y-82852547D01*
X96179185Y-82766760D01*
X96332059Y-82655690D01*
X96465676Y-82522073D01*
X96563771Y-82387056D01*
X96619101Y-82344391D01*
X96631979Y-82340172D01*
X96783484Y-82299577D01*
X96905525Y-82229116D01*
X96973425Y-82212644D01*
X97039452Y-82235497D01*
X97078010Y-82280209D01*
X97122710Y-82367937D01*
X97123353Y-82369199D01*
X97234423Y-82522073D01*
X97368040Y-82655690D01*
X97520914Y-82766760D01*
X97543973Y-82778509D01*
X97689276Y-82852545D01*
X97689278Y-82852545D01*
X97689281Y-82852547D01*
X97739592Y-82868894D01*
X97868994Y-82910940D01*
X98055627Y-82940500D01*
X98055632Y-82940500D01*
X99144599Y-82940500D01*
X99331231Y-82910940D01*
X99357939Y-82902262D01*
X99510945Y-82852547D01*
X99679312Y-82766760D01*
X99832186Y-82655690D01*
X99965803Y-82522073D01*
X100063906Y-82387045D01*
X100119235Y-82344382D01*
X100132114Y-82340162D01*
X100283584Y-82299577D01*
X100420516Y-82220520D01*
X100532320Y-82108716D01*
X100611377Y-81971784D01*
X100652300Y-81819057D01*
X100652300Y-79555399D01*
X102299500Y-79555399D01*
X102299500Y-80644372D01*
X102329059Y-80831004D01*
X102387454Y-81010722D01*
X102438579Y-81111059D01*
X102473240Y-81179085D01*
X102584310Y-81331959D01*
X102717927Y-81465576D01*
X102870801Y-81576646D01*
X102950347Y-81617176D01*
X103039163Y-81662431D01*
X103039165Y-81662431D01*
X103039168Y-81662433D01*
X103142976Y-81696162D01*
X103218875Y-81720824D01*
X103218876Y-81720824D01*
X103218882Y-81720826D01*
X103260872Y-81727476D01*
X103324004Y-81757404D01*
X103360936Y-81816716D01*
X103359938Y-81886578D01*
X103321329Y-81944811D01*
X103260871Y-81972422D01*
X103218880Y-81979073D01*
X103039163Y-82037467D01*
X102870800Y-82123253D01*
X102783579Y-82186623D01*
X102717927Y-82234323D01*
X102717925Y-82234325D01*
X102717924Y-82234325D01*
X102584312Y-82367937D01*
X102584312Y-82367938D01*
X102584310Y-82367940D01*
X102570428Y-82387047D01*
X102473240Y-82520813D01*
X102387454Y-82689176D01*
X102329059Y-82868894D01*
X102299500Y-83055526D01*
X102299500Y-84144499D01*
X102329059Y-84331131D01*
X102387454Y-84510849D01*
X102473240Y-84679212D01*
X102584310Y-84832086D01*
X102717927Y-84965703D01*
X102870801Y-85076773D01*
X102935032Y-85109500D01*
X103039163Y-85162558D01*
X103039165Y-85162558D01*
X103039168Y-85162560D01*
X103099998Y-85182325D01*
X103218881Y-85220953D01*
X103405514Y-85250513D01*
X103405519Y-85250513D01*
X103594486Y-85250513D01*
X103781118Y-85220953D01*
X103816837Y-85209347D01*
X103960832Y-85162560D01*
X104129199Y-85076773D01*
X104282073Y-84965703D01*
X104415690Y-84832086D01*
X104526760Y-84679212D01*
X104612547Y-84510845D01*
X104670940Y-84331131D01*
X104689201Y-84215835D01*
X104700500Y-84144499D01*
X104700500Y-83296390D01*
X105449500Y-83296390D01*
X105449500Y-83503329D01*
X105489868Y-83706272D01*
X105489870Y-83706280D01*
X105569058Y-83897456D01*
X105684024Y-84069517D01*
X105830342Y-84215835D01*
X105830345Y-84215837D01*
X106002402Y-84330801D01*
X106193580Y-84409990D01*
X106396530Y-84450359D01*
X106396534Y-84450360D01*
X106396535Y-84450360D01*
X106603466Y-84450360D01*
X106603467Y-84450359D01*
X106806420Y-84409990D01*
X106997598Y-84330801D01*
X107169655Y-84215837D01*
X107315977Y-84069515D01*
X107430941Y-83897458D01*
X107510130Y-83706280D01*
X107550500Y-83503325D01*
X107550500Y-83296395D01*
X107510130Y-83093440D01*
X107430941Y-82902262D01*
X107315977Y-82730205D01*
X107315975Y-82730202D01*
X107169657Y-82583884D01*
X107075263Y-82520813D01*
X106997598Y-82468919D01*
X106806420Y-82389730D01*
X106806412Y-82389728D01*
X106603469Y-82349360D01*
X106603465Y-82349360D01*
X106396535Y-82349360D01*
X106396530Y-82349360D01*
X106193587Y-82389728D01*
X106193579Y-82389730D01*
X106002403Y-82468918D01*
X105830342Y-82583884D01*
X105684024Y-82730202D01*
X105569058Y-82902263D01*
X105489870Y-83093439D01*
X105489868Y-83093447D01*
X105449500Y-83296390D01*
X104700500Y-83296390D01*
X104700500Y-83055526D01*
X104670940Y-82868894D01*
X104629837Y-82742393D01*
X104612547Y-82689181D01*
X104612545Y-82689178D01*
X104612545Y-82689176D01*
X104558895Y-82583883D01*
X104526760Y-82520814D01*
X104415690Y-82367940D01*
X104282073Y-82234323D01*
X104129199Y-82123253D01*
X104108568Y-82112741D01*
X103960836Y-82037467D01*
X103781119Y-81979073D01*
X103739128Y-81972422D01*
X103675994Y-81942492D01*
X103639063Y-81883180D01*
X103640061Y-81813318D01*
X103678672Y-81755085D01*
X103739127Y-81727476D01*
X103781118Y-81720826D01*
X103960832Y-81662433D01*
X104129199Y-81576646D01*
X104282073Y-81465576D01*
X104415690Y-81331959D01*
X104526760Y-81179085D01*
X104612547Y-81010718D01*
X104670940Y-80831004D01*
X104700500Y-80644372D01*
X104700500Y-79555399D01*
X104670940Y-79368767D01*
X104612545Y-79189049D01*
X104541016Y-79048667D01*
X104526760Y-79020687D01*
X104415690Y-78867813D01*
X104282073Y-78734196D01*
X104129199Y-78623126D01*
X104129198Y-78623125D01*
X104129196Y-78623124D01*
X104103712Y-78610139D01*
X104052917Y-78562164D01*
X104036122Y-78494343D01*
X104058660Y-78428209D01*
X104103717Y-78389168D01*
X104128941Y-78376316D01*
X104281741Y-78265301D01*
X104281746Y-78265297D01*
X104415310Y-78131733D01*
X104415314Y-78131728D01*
X104526329Y-77978927D01*
X104612085Y-77810624D01*
X104616669Y-77796517D01*
X105449500Y-77796517D01*
X105449500Y-78003456D01*
X105489868Y-78206399D01*
X105489870Y-78206407D01*
X105565572Y-78389168D01*
X105569059Y-78397585D01*
X105603671Y-78449386D01*
X105684024Y-78569644D01*
X105830342Y-78715962D01*
X105830345Y-78715964D01*
X106002402Y-78830928D01*
X106193580Y-78910117D01*
X106396530Y-78950486D01*
X106396534Y-78950487D01*
X106396535Y-78950487D01*
X106603466Y-78950487D01*
X106603467Y-78950486D01*
X106806420Y-78910117D01*
X106997598Y-78830928D01*
X107169655Y-78715964D01*
X107315977Y-78569642D01*
X107430941Y-78397585D01*
X107510130Y-78206407D01*
X107550500Y-78003452D01*
X107550500Y-77796522D01*
X107510130Y-77593567D01*
X107430941Y-77402389D01*
X107315977Y-77230332D01*
X107315975Y-77230329D01*
X107169657Y-77084011D01*
X107004241Y-76973485D01*
X106997598Y-76969046D01*
X106996487Y-76968586D01*
X106806420Y-76889857D01*
X106806412Y-76889855D01*
X106603469Y-76849487D01*
X106603465Y-76849487D01*
X106396535Y-76849487D01*
X106396530Y-76849487D01*
X106193587Y-76889855D01*
X106193579Y-76889857D01*
X106002403Y-76969045D01*
X105830342Y-77084011D01*
X105684024Y-77230329D01*
X105569058Y-77402390D01*
X105489870Y-77593566D01*
X105489868Y-77593574D01*
X105449500Y-77796517D01*
X104616669Y-77796517D01*
X104670451Y-77630989D01*
X104700000Y-77444434D01*
X104700000Y-77149987D01*
X103900000Y-77149987D01*
X103900000Y-76649987D01*
X104700000Y-76649987D01*
X104700000Y-76355539D01*
X104670451Y-76168984D01*
X104612085Y-75989349D01*
X104526329Y-75821046D01*
X104415314Y-75668245D01*
X104415310Y-75668240D01*
X104281746Y-75534676D01*
X104281741Y-75534672D01*
X104128940Y-75423657D01*
X103960635Y-75337900D01*
X103781004Y-75279536D01*
X103780995Y-75279534D01*
X103750000Y-75274624D01*
X103750000Y-76234301D01*
X103745606Y-76229907D01*
X103654394Y-76177246D01*
X103552661Y-76149987D01*
X103447339Y-76149987D01*
X103345606Y-76177246D01*
X103254394Y-76229907D01*
X103250000Y-76234301D01*
X103250000Y-75274624D01*
X103249999Y-75274624D01*
X103219004Y-75279534D01*
X103218995Y-75279536D01*
X103039364Y-75337900D01*
X102871059Y-75423657D01*
X102718258Y-75534672D01*
X102718253Y-75534676D01*
X102584689Y-75668240D01*
X102584685Y-75668245D01*
X102473670Y-75821046D01*
X102387914Y-75989349D01*
X102329548Y-76168984D01*
X102300000Y-76355539D01*
X102300000Y-76649987D01*
X103100000Y-76649987D01*
X103100000Y-77149987D01*
X102300000Y-77149987D01*
X102300000Y-77444434D01*
X102329548Y-77630989D01*
X102387914Y-77810624D01*
X102473670Y-77978927D01*
X102584685Y-78131728D01*
X102584689Y-78131733D01*
X102718253Y-78265297D01*
X102718258Y-78265301D01*
X102871058Y-78376316D01*
X102896284Y-78389169D01*
X102947081Y-78437143D01*
X102963877Y-78504963D01*
X102941341Y-78571099D01*
X102896288Y-78610138D01*
X102870805Y-78623122D01*
X102768885Y-78697172D01*
X102717927Y-78734196D01*
X102717925Y-78734198D01*
X102717924Y-78734198D01*
X102584312Y-78867810D01*
X102584312Y-78867811D01*
X102584310Y-78867813D01*
X102536610Y-78933465D01*
X102473240Y-79020686D01*
X102387454Y-79189049D01*
X102329059Y-79368767D01*
X102299500Y-79555399D01*
X100652300Y-79555399D01*
X100652300Y-75660943D01*
X100611377Y-75508216D01*
X100566362Y-75430247D01*
X100532324Y-75371290D01*
X100532318Y-75371282D01*
X100420517Y-75259481D01*
X100420509Y-75259475D01*
X100283590Y-75180426D01*
X100283585Y-75180423D01*
X100190763Y-75155551D01*
X100132128Y-75139840D01*
X100072469Y-75103476D01*
X100063905Y-75092952D01*
X99966043Y-74958258D01*
X99965803Y-74957927D01*
X99832186Y-74824310D01*
X99679312Y-74713240D01*
X99672523Y-74709781D01*
X99510949Y-74627454D01*
X99331231Y-74569059D01*
X99144599Y-74539500D01*
X99144594Y-74539500D01*
X98055632Y-74539500D01*
X98055627Y-74539500D01*
X97868994Y-74569059D01*
X97689276Y-74627454D01*
X97520913Y-74713240D01*
X97433692Y-74776610D01*
X97368040Y-74824310D01*
X97368038Y-74824312D01*
X97368037Y-74824312D01*
X97234425Y-74957924D01*
X97234425Y-74957925D01*
X97234423Y-74957927D01*
X97234183Y-74958258D01*
X97123351Y-75110803D01*
X97078009Y-75199791D01*
X97030035Y-75250586D01*
X96962213Y-75267381D01*
X96905526Y-75250883D01*
X96783484Y-75180423D01*
X96783485Y-75180423D01*
X96709340Y-75160556D01*
X96631994Y-75139831D01*
X96572335Y-75103467D01*
X96563771Y-75092943D01*
X96465676Y-74957927D01*
X96332059Y-74824310D01*
X96179185Y-74713240D01*
X96172396Y-74709781D01*
X96010822Y-74627454D01*
X95831104Y-74569059D01*
X95644472Y-74539500D01*
X95644467Y-74539500D01*
X94555505Y-74539500D01*
X94555500Y-74539500D01*
X94368867Y-74569059D01*
X94189149Y-74627454D01*
X94020786Y-74713240D01*
X93933565Y-74776610D01*
X93867913Y-74824310D01*
X93867911Y-74824312D01*
X93867910Y-74824312D01*
X93734298Y-74957924D01*
X93734298Y-74957925D01*
X93734296Y-74957927D01*
X93734056Y-74958258D01*
X93623222Y-75110805D01*
X93610238Y-75136288D01*
X93562263Y-75187083D01*
X93494442Y-75203877D01*
X93428307Y-75181338D01*
X93389269Y-75136284D01*
X93376416Y-75111058D01*
X93265401Y-74958258D01*
X93265397Y-74958253D01*
X93131833Y-74824689D01*
X93131828Y-74824685D01*
X92979027Y-74713670D01*
X92810724Y-74627914D01*
X92631089Y-74569548D01*
X92444534Y-74540000D01*
X92150087Y-74540000D01*
X92150087Y-75340000D01*
X91650087Y-75340000D01*
X91650087Y-74540000D01*
X91359604Y-74540000D01*
X91292565Y-74520315D01*
X91246810Y-74467511D01*
X91236866Y-74398353D01*
X91253485Y-74351852D01*
X91295545Y-74282279D01*
X91429627Y-73984361D01*
X91526821Y-73672453D01*
X91585710Y-73351104D01*
X91605436Y-73025000D01*
X91585710Y-72698896D01*
X91526821Y-72377547D01*
X91443226Y-72109280D01*
X91429633Y-72065657D01*
X91429631Y-72065652D01*
X91429627Y-72065639D01*
X91295545Y-71767721D01*
X91126530Y-71488137D01*
X91126528Y-71488134D01*
X91126526Y-71488131D01*
X90925045Y-71230960D01*
X90694039Y-70999954D01*
X90436868Y-70798473D01*
X90395508Y-70773470D01*
X90157279Y-70629455D01*
X90064226Y-70587575D01*
X90011172Y-70542112D01*
X89991120Y-70475181D01*
X90010436Y-70408035D01*
X90062988Y-70361990D01*
X90115118Y-70350500D01*
X123729334Y-70350500D01*
X123796373Y-70370185D01*
G37*
%TD.AperFunction*%
%TA.AperFunction,Conductor*%
G36*
X127173522Y-92529968D02*
G01*
X127173523Y-92529968D01*
X127321112Y-92341586D01*
X127490101Y-92062043D01*
X127490102Y-92062041D01*
X127532424Y-91968007D01*
X127577888Y-91914953D01*
X127644819Y-91894900D01*
X127711965Y-91914216D01*
X127758010Y-91966767D01*
X127769500Y-92018898D01*
X127769500Y-93250358D01*
X127749815Y-93317397D01*
X127733181Y-93338039D01*
X127628039Y-93443181D01*
X127566716Y-93476666D01*
X127540358Y-93479500D01*
X126308898Y-93479500D01*
X126241859Y-93459815D01*
X126196104Y-93407011D01*
X126186160Y-93337853D01*
X126215185Y-93274297D01*
X126258007Y-93242424D01*
X126352041Y-93200102D01*
X126352043Y-93200101D01*
X126631586Y-93031112D01*
X126819968Y-92883523D01*
X126819968Y-92883522D01*
X125677736Y-91741290D01*
X125811602Y-91644033D01*
X125934033Y-91521602D01*
X126031290Y-91387736D01*
X127173522Y-92529968D01*
G37*
%TD.AperFunction*%
%TD*%
M02*
