%TF.GenerationSoftware,KiCad,Pcbnew,8.0.7+1*%
%TF.CreationDate,2025-02-03T22:01:07+01:00*%
%TF.ProjectId,passiveVCA,70617373-6976-4655-9643-412e6b696361,rev?*%
%TF.SameCoordinates,Original*%
%TF.FileFunction,Soldermask,Top*%
%TF.FilePolarity,Negative*%
%FSLAX46Y46*%
G04 Gerber Fmt 4.6, Leading zero omitted, Abs format (unit mm)*
G04 Created by KiCad (PCBNEW 8.0.7+1) date 2025-02-03 22:01:07*
%MOMM*%
%LPD*%
G01*
G04 APERTURE LIST*
G04 Aperture macros list*
%AMRoundRect*
0 Rectangle with rounded corners*
0 $1 Rounding radius*
0 $2 $3 $4 $5 $6 $7 $8 $9 X,Y pos of 4 corners*
0 Add a 4 corners polygon primitive as box body*
4,1,4,$2,$3,$4,$5,$6,$7,$8,$9,$2,$3,0*
0 Add four circle primitives for the rounded corners*
1,1,$1+$1,$2,$3*
1,1,$1+$1,$4,$5*
1,1,$1+$1,$6,$7*
1,1,$1+$1,$8,$9*
0 Add four rect primitives between the rounded corners*
20,1,$1+$1,$2,$3,$4,$5,0*
20,1,$1+$1,$4,$5,$6,$7,0*
20,1,$1+$1,$6,$7,$8,$9,0*
20,1,$1+$1,$8,$9,$2,$3,0*%
G04 Aperture macros list end*
%ADD10C,0.000000*%
%ADD11C,2.600000*%
%ADD12C,4.400000*%
%ADD13C,1.600000*%
%ADD14O,2.300000X1.400000*%
%ADD15O,1.400000X2.300000*%
%ADD16RoundRect,0.135000X-0.135000X-0.185000X0.135000X-0.185000X0.135000X0.185000X-0.135000X0.185000X0*%
%ADD17O,1.050000X1.500000*%
%ADD18R,1.050000X1.500000*%
%ADD19RoundRect,0.140000X-0.140000X-0.170000X0.140000X-0.170000X0.140000X0.170000X-0.140000X0.170000X0*%
G04 APERTURE END LIST*
D10*
%TO.C,REF\u002A\u002A*%
G36*
X99910714Y-90341773D02*
G01*
X99557143Y-90341773D01*
X99557143Y-90695338D01*
X99203572Y-90695338D01*
X99203572Y-91048904D01*
X98850002Y-91048904D01*
X98850002Y-91402470D01*
X99203572Y-91402470D01*
X99203572Y-91756035D01*
X99557143Y-91756035D01*
X99557143Y-92109601D01*
X99910714Y-92109601D01*
X99910714Y-92463167D01*
X99203572Y-92463167D01*
X99203572Y-92109601D01*
X98850002Y-92109601D01*
X98850002Y-91756035D01*
X98496431Y-91756035D01*
X98496431Y-91402470D01*
X98142860Y-91402470D01*
X98142860Y-91048904D01*
X98496431Y-91048904D01*
X98496431Y-90695338D01*
X98850002Y-90695338D01*
X98850002Y-90341773D01*
X99203572Y-90341773D01*
X99203572Y-89988207D01*
X99910714Y-89988207D01*
X99910714Y-90341773D01*
G37*
G36*
X96728575Y-92463207D02*
G01*
X95314287Y-92463207D01*
X95314287Y-92109641D01*
X96021428Y-92109641D01*
X96021428Y-90341793D01*
X95314287Y-90341793D01*
X95314287Y-89988207D01*
X96728575Y-89988207D01*
X96728575Y-92463207D01*
G37*
%TD*%
D11*
%TO.C,H5*%
X88900000Y-90805000D03*
D12*
X88900000Y-90805000D03*
%TD*%
D11*
%TO.C,H4*%
X125095000Y-90805000D03*
D12*
X125095000Y-90805000D03*
%TD*%
D11*
%TO.C,H3*%
X125000000Y-73000000D03*
D12*
X125000000Y-73000000D03*
%TD*%
D11*
%TO.C,H2*%
X106680000Y-90805000D03*
D12*
X106680000Y-90805000D03*
%TD*%
%TO.C,H1*%
X88900000Y-73025000D03*
D11*
X88900000Y-73025000D03*
%TD*%
D13*
%TO.C,U3*%
X120460013Y-78740000D03*
X114960140Y-78740000D03*
D14*
X121460013Y-75740000D03*
X118260114Y-75740000D03*
X114759987Y-75740000D03*
X114759987Y-81740000D03*
X118260114Y-81740000D03*
X121460013Y-81740000D03*
%TD*%
D15*
%TO.C,U2*%
X109500000Y-76899987D03*
X109500000Y-80099886D03*
X109500000Y-83600013D03*
X103500000Y-83600013D03*
X103500000Y-80099886D03*
X103500000Y-76899987D03*
D13*
X106500000Y-83399860D03*
X106500000Y-77899987D03*
%TD*%
D16*
%TO.C,R1*%
X97790000Y-84455000D03*
X98810000Y-84455000D03*
%TD*%
D17*
%TO.C,Q1*%
X119380000Y-86360000D03*
X118110000Y-86360000D03*
D18*
X116840000Y-86360000D03*
%TD*%
D16*
%TO.C,R2*%
X112010000Y-85090000D03*
X113030000Y-85090000D03*
%TD*%
D19*
%TO.C,C1*%
X98810000Y-86360000D03*
X99770000Y-86360000D03*
%TD*%
D13*
%TO.C,U1*%
X92900087Y-78740000D03*
X98399960Y-78740000D03*
D14*
X91900087Y-81740000D03*
X95099986Y-81740000D03*
X98600113Y-81740000D03*
X98600113Y-75740000D03*
X95099986Y-75740000D03*
X91900087Y-75740000D03*
%TD*%
M02*
