M48
; DRILL file {KiCad 8.0.7+1} date 2025-02-03T22:01:07+0100
; FORMAT={-:-/ absolute / inch / decimal}
; #@! TF.CreationDate,2025-02-03T22:01:07+01:00
; #@! TF.GenerationSoftware,Kicad,Pcbnew,8.0.7+1
; #@! TF.FileFunction,Plated,1,2,PTH
FMAT,2
INCH
; #@! TA.AperFunction,Plated,PTH,ComponentDrill
T1C0.0295
; #@! TA.AperFunction,Plated,PTH,ComponentDrill
T2C0.0315
; #@! TA.AperFunction,Plated,PTH,ComponentDrill
T3C0.0866
%
G90
G05
T1
X4.6Y-3.4
X4.65Y-3.4
X4.7Y-3.4
T3
X3.5Y-2.875
X3.5Y-3.575
X4.2Y-3.575
X4.9213Y-2.874
X4.925Y-3.575
T2
G00X3.6043Y-2.9819
M15
G01X3.6319Y-2.9819
M16
G05
G00X3.6043Y-3.2181
M15
G01X3.6319Y-3.2181
M16
G05
G00X3.7303Y-2.9819
M15
G01X3.7579Y-2.9819
M16
G05
G00X3.7303Y-3.2181
M15
G01X3.7579Y-3.2181
M16
G05
G00X3.8681Y-2.9819
M15
G01X3.8957Y-2.9819
M16
G05
G00X3.8681Y-3.2181
M15
G01X3.8957Y-3.2181
M16
G05
G00X4.0748Y-3.0138
M15
G01X4.0748Y-3.0413
M16
G05
G00X4.0748Y-3.1398
M15
G01X4.0748Y-3.1673
M16
G05
G00X4.0748Y-3.2776
M15
G01X4.0748Y-3.3051
M16
G05
G00X4.311Y-3.0138
M15
G01X4.311Y-3.0413
M16
G05
G00X4.311Y-3.1398
M15
G01X4.311Y-3.1673
M16
G05
G00X4.311Y-3.2776
M15
G01X4.311Y-3.3051
M16
G05
G00X4.5319Y-2.9819
M15
G01X4.5043Y-2.9819
M16
G05
G00X4.5319Y-3.2181
M15
G01X4.5043Y-3.2181
M16
G05
G00X4.6697Y-2.9819
M15
G01X4.6421Y-2.9819
M16
G05
G00X4.6697Y-3.2181
M15
G01X4.6421Y-3.2181
M16
G05
G00X4.7957Y-2.9819
M15
G01X4.7681Y-2.9819
M16
G05
G00X4.7957Y-3.2181
M15
G01X4.7681Y-3.2181
M16
G05
M30
