%TF.GenerationSoftware,KiCad,Pcbnew,8.0.7+1*%
%TF.CreationDate,2025-02-03T22:01:07+01:00*%
%TF.ProjectId,passiveVCA,70617373-6976-4655-9643-412e6b696361,rev?*%
%TF.SameCoordinates,Original*%
%TF.FileFunction,Legend,Top*%
%TF.FilePolarity,Positive*%
%FSLAX46Y46*%
G04 Gerber Fmt 4.6, Leading zero omitted, Abs format (unit mm)*
G04 Created by KiCad (PCBNEW 8.0.7+1) date 2025-02-03 22:01:07*
%MOMM*%
%LPD*%
G01*
G04 APERTURE LIST*
G04 Aperture macros list*
%AMRoundRect*
0 Rectangle with rounded corners*
0 $1 Rounding radius*
0 $2 $3 $4 $5 $6 $7 $8 $9 X,Y pos of 4 corners*
0 Add a 4 corners polygon primitive as box body*
4,1,4,$2,$3,$4,$5,$6,$7,$8,$9,$2,$3,0*
0 Add four circle primitives for the rounded corners*
1,1,$1+$1,$2,$3*
1,1,$1+$1,$4,$5*
1,1,$1+$1,$6,$7*
1,1,$1+$1,$8,$9*
0 Add four rect primitives between the rounded corners*
20,1,$1+$1,$2,$3,$4,$5,0*
20,1,$1+$1,$4,$5,$6,$7,0*
20,1,$1+$1,$6,$7,$8,$9,0*
20,1,$1+$1,$8,$9,$2,$3,0*%
G04 Aperture macros list end*
%ADD10C,0.000000*%
%ADD11C,0.059999*%
%ADD12C,0.059995*%
%ADD13C,0.254001*%
%ADD14C,0.120000*%
%ADD15C,2.600000*%
%ADD16C,4.400000*%
%ADD17C,1.600000*%
%ADD18O,2.300000X1.400000*%
%ADD19O,1.400000X2.300000*%
%ADD20RoundRect,0.135000X-0.135000X-0.185000X0.135000X-0.185000X0.135000X0.185000X-0.135000X0.185000X0*%
%ADD21O,1.050000X1.500000*%
%ADD22R,1.050000X1.500000*%
%ADD23RoundRect,0.140000X-0.140000X-0.170000X0.140000X-0.170000X0.140000X0.170000X-0.140000X0.170000X0*%
G04 APERTURE END LIST*
D10*
G36*
X127177365Y-86789161D02*
G01*
X127322125Y-86789161D01*
X127322125Y-86933921D01*
X127466885Y-86933921D01*
X127466885Y-87368182D01*
X127322125Y-87368182D01*
X127322125Y-87512943D01*
X127177365Y-87512943D01*
X127177365Y-87657703D01*
X126453595Y-87657703D01*
X126453595Y-87512918D01*
X126453595Y-86789150D01*
X126743100Y-86789150D01*
X126743100Y-87512918D01*
X127032605Y-87512918D01*
X127032605Y-87368158D01*
X127177365Y-87368158D01*
X127177365Y-86933896D01*
X127032605Y-86933896D01*
X127032608Y-86861530D01*
X127032608Y-86789150D01*
X126743100Y-86789150D01*
X126453595Y-86789150D01*
X126453595Y-86644401D01*
X127177365Y-86644401D01*
X127177365Y-86789161D01*
G37*
G36*
X97121337Y-73095176D02*
G01*
X97410846Y-73095176D01*
X97410846Y-73239930D01*
X96542323Y-73239930D01*
X96542323Y-73095176D01*
X96831832Y-73095176D01*
X96831832Y-72660915D01*
X96687072Y-72660915D01*
X96687078Y-72588538D01*
X96687078Y-72516161D01*
X97121337Y-72516161D01*
X97121337Y-73095176D01*
G37*
G36*
X122865013Y-92954772D02*
G01*
X122760674Y-92954772D01*
X122760674Y-93059112D01*
X122238953Y-93059112D01*
X122238953Y-92954772D01*
X122656334Y-92954772D01*
X122656334Y-92850433D01*
X122238953Y-92850433D01*
X122238953Y-92746093D01*
X122134613Y-92746093D01*
X122134613Y-92746082D01*
X122134613Y-92537404D01*
X122238953Y-92537404D01*
X122238953Y-92537393D01*
X122343289Y-92537393D01*
X122343289Y-92746082D01*
X122656323Y-92746082D01*
X122656323Y-92537393D01*
X122343289Y-92537393D01*
X122238953Y-92537393D01*
X122238945Y-92485221D01*
X122238945Y-92433051D01*
X122865013Y-92433051D01*
X122865013Y-92954772D01*
G37*
G36*
X104875885Y-87245948D02*
G01*
X105020645Y-87245948D01*
X105020645Y-87390708D01*
X104731139Y-87390708D01*
X104731139Y-87245948D01*
X104441624Y-87245948D01*
X104441624Y-87390708D01*
X104296864Y-87390708D01*
X104296864Y-87824970D01*
X104441624Y-87824970D01*
X104441624Y-87969730D01*
X104731133Y-87969730D01*
X104731133Y-87824970D01*
X105020640Y-87824970D01*
X105020640Y-87969730D01*
X104875880Y-87969730D01*
X104875880Y-88114490D01*
X104296864Y-88114490D01*
X104296864Y-87969730D01*
X104152104Y-87969730D01*
X104152104Y-87824970D01*
X104007344Y-87824970D01*
X104007344Y-87390708D01*
X104152104Y-87390708D01*
X104152104Y-87245948D01*
X104296864Y-87245948D01*
X104296870Y-87173568D01*
X104296870Y-87101188D01*
X104875885Y-87101188D01*
X104875885Y-87245948D01*
G37*
G36*
X119206707Y-71559385D02*
G01*
X118962643Y-71559385D01*
X118962643Y-71315323D01*
X119206707Y-71315323D01*
X119206707Y-71559385D01*
G37*
G36*
X109508004Y-87535461D02*
G01*
X109652764Y-87535461D01*
X109652764Y-88114477D01*
X109363257Y-88114477D01*
X109363257Y-87535461D01*
X108928995Y-87535461D01*
X108928995Y-88114477D01*
X108639487Y-88114477D01*
X108639481Y-87752584D01*
X108639481Y-87390701D01*
X109508004Y-87390701D01*
X109508004Y-87535461D01*
G37*
G36*
X113578350Y-91413030D02*
G01*
X113682690Y-91413030D01*
X113682690Y-91830407D01*
X113056624Y-91830407D01*
X113056624Y-91726068D01*
X112952284Y-91726068D01*
X112952284Y-91726064D01*
X112952284Y-91621728D01*
X113056624Y-91621728D01*
X113056624Y-91621724D01*
X113160973Y-91621724D01*
X113160973Y-91726064D01*
X113474007Y-91726064D01*
X113474007Y-91621724D01*
X113160973Y-91621724D01*
X113056624Y-91621724D01*
X113056624Y-91517389D01*
X113474001Y-91517389D01*
X113474001Y-91413049D01*
X113056624Y-91413049D01*
X113056630Y-91360860D01*
X113056630Y-91308690D01*
X113578350Y-91308690D01*
X113578350Y-91413030D01*
G37*
G36*
X125150811Y-86789157D02*
G01*
X124571793Y-86789157D01*
X124571793Y-86933917D01*
X124427033Y-86933917D01*
X124427033Y-87368179D01*
X124571793Y-87368179D01*
X124571793Y-87512939D01*
X124861298Y-87512939D01*
X124861298Y-87223432D01*
X124716538Y-87223432D01*
X124716538Y-87078672D01*
X125150799Y-87078672D01*
X125150799Y-87657687D01*
X124427033Y-87657687D01*
X124427033Y-87512927D01*
X124282273Y-87512927D01*
X124282273Y-87368167D01*
X124137513Y-87368167D01*
X124137513Y-86933906D01*
X124282273Y-86933906D01*
X124282273Y-86789146D01*
X124427033Y-86789146D01*
X124427040Y-86716777D01*
X124427040Y-86644397D01*
X125150811Y-86644397D01*
X125150811Y-86789157D01*
G37*
G36*
X98424122Y-72660915D02*
G01*
X98568882Y-72660915D01*
X98568882Y-73095177D01*
X98424122Y-73095177D01*
X98424122Y-73239930D01*
X97700353Y-73239930D01*
X97700353Y-73095177D01*
X97555593Y-73095177D01*
X97555593Y-72660915D01*
X97700353Y-72660915D01*
X97845107Y-72660915D01*
X97845107Y-73095177D01*
X98279368Y-73095177D01*
X98279368Y-72660915D01*
X97845107Y-72660915D01*
X97700353Y-72660915D01*
X97700353Y-72516161D01*
X98424122Y-72516161D01*
X98424122Y-72660915D01*
G37*
G36*
X93518476Y-73870757D02*
G01*
X93228967Y-73870757D01*
X93228967Y-73726003D01*
X93518476Y-73726003D01*
X93518476Y-73870757D01*
G37*
G36*
X108205220Y-87969714D02*
G01*
X108494727Y-87969714D01*
X108494727Y-88114475D01*
X107626204Y-88114475D01*
X107626204Y-87969714D01*
X107915711Y-87969714D01*
X107915711Y-87535453D01*
X107770951Y-87535453D01*
X107770958Y-87463079D01*
X107770958Y-87390699D01*
X108205220Y-87390699D01*
X108205220Y-87969714D01*
G37*
D11*
X126156157Y-75560761D02*
X126157681Y-75560877D01*
X126159182Y-75561068D01*
X126160659Y-75561332D01*
X126162111Y-75561667D01*
X126163534Y-75562071D01*
X126164928Y-75562543D01*
X126166290Y-75563080D01*
X126167619Y-75563681D01*
X126168913Y-75564343D01*
X126170169Y-75565066D01*
X126171386Y-75565846D01*
X126172562Y-75566683D01*
X126173696Y-75567573D01*
X126174784Y-75568516D01*
X126175826Y-75569509D01*
X126176819Y-75570551D01*
X126177762Y-75571640D01*
X126178653Y-75572773D01*
X126179489Y-75573949D01*
X126180269Y-75575167D01*
X126180992Y-75576423D01*
X126181654Y-75577716D01*
X126182255Y-75579045D01*
X126182792Y-75580408D01*
X126183264Y-75581801D01*
X126183668Y-75583225D01*
X126184003Y-75584676D01*
X126184267Y-75586154D01*
X126184458Y-75587655D01*
X126184574Y-75589179D01*
X126184613Y-75590722D01*
X126184574Y-75592266D01*
X126184458Y-75593790D01*
X126184267Y-75595291D01*
X126184003Y-75596768D01*
X126183668Y-75598220D01*
X126183264Y-75599643D01*
X126182792Y-75601037D01*
X126182255Y-75602400D01*
X126181654Y-75603728D01*
X126180992Y-75605022D01*
X126180269Y-75606278D01*
X126179489Y-75607495D01*
X126178653Y-75608672D01*
X126177762Y-75609805D01*
X126176819Y-75610893D01*
X126175826Y-75611935D01*
X126174784Y-75612929D01*
X126173696Y-75613872D01*
X126172562Y-75614762D01*
X126171386Y-75615599D01*
X126170169Y-75616379D01*
X126168913Y-75617101D01*
X126167619Y-75617764D01*
X126166290Y-75618365D01*
X126164928Y-75618902D01*
X126163534Y-75619374D01*
X126162111Y-75619778D01*
X126160659Y-75620113D01*
X126159182Y-75620377D01*
X126157681Y-75620568D01*
X126156157Y-75620684D01*
X126154614Y-75620723D01*
X126153070Y-75620684D01*
X126151547Y-75620568D01*
X126150045Y-75620377D01*
X126148568Y-75620113D01*
X126147117Y-75619778D01*
X126145693Y-75619374D01*
X126144299Y-75618902D01*
X126142937Y-75618365D01*
X126141608Y-75617764D01*
X126140315Y-75617101D01*
X126139059Y-75616379D01*
X126137841Y-75615599D01*
X126136665Y-75614762D01*
X126135532Y-75613872D01*
X126134444Y-75612929D01*
X126133402Y-75611935D01*
X126132408Y-75610893D01*
X126131466Y-75609805D01*
X126130575Y-75608672D01*
X126129739Y-75607495D01*
X126128958Y-75606278D01*
X126128236Y-75605022D01*
X126127573Y-75603728D01*
X126126973Y-75602400D01*
X126126435Y-75601037D01*
X126125964Y-75599643D01*
X126125560Y-75598220D01*
X126125225Y-75596768D01*
X126124961Y-75595291D01*
X126124770Y-75593790D01*
X126124654Y-75592266D01*
X126124615Y-75590722D01*
X126124654Y-75589179D01*
X126124770Y-75587655D01*
X126124961Y-75586154D01*
X126125225Y-75584676D01*
X126125560Y-75583225D01*
X126125964Y-75581801D01*
X126126435Y-75580408D01*
X126126973Y-75579045D01*
X126127573Y-75577716D01*
X126128236Y-75576423D01*
X126128958Y-75575167D01*
X126129739Y-75573949D01*
X126130575Y-75572773D01*
X126131466Y-75571640D01*
X126132408Y-75570551D01*
X126133402Y-75569509D01*
X126134444Y-75568516D01*
X126135532Y-75567573D01*
X126136665Y-75566683D01*
X126137841Y-75565846D01*
X126139059Y-75565066D01*
X126140315Y-75564343D01*
X126141608Y-75563681D01*
X126142937Y-75563080D01*
X126144299Y-75562543D01*
X126145693Y-75562071D01*
X126147117Y-75561667D01*
X126148568Y-75561332D01*
X126150045Y-75561068D01*
X126151547Y-75560877D01*
X126153070Y-75560761D01*
X126154614Y-75560722D01*
X126156157Y-75560761D01*
G36*
X126156157Y-75560761D02*
G01*
X126157681Y-75560877D01*
X126159182Y-75561068D01*
X126160659Y-75561332D01*
X126162111Y-75561667D01*
X126163534Y-75562071D01*
X126164928Y-75562543D01*
X126166290Y-75563080D01*
X126167619Y-75563681D01*
X126168913Y-75564343D01*
X126170169Y-75565066D01*
X126171386Y-75565846D01*
X126172562Y-75566683D01*
X126173696Y-75567573D01*
X126174784Y-75568516D01*
X126175826Y-75569509D01*
X126176819Y-75570551D01*
X126177762Y-75571640D01*
X126178653Y-75572773D01*
X126179489Y-75573949D01*
X126180269Y-75575167D01*
X126180992Y-75576423D01*
X126181654Y-75577716D01*
X126182255Y-75579045D01*
X126182792Y-75580408D01*
X126183264Y-75581801D01*
X126183668Y-75583225D01*
X126184003Y-75584676D01*
X126184267Y-75586154D01*
X126184458Y-75587655D01*
X126184574Y-75589179D01*
X126184613Y-75590722D01*
X126184574Y-75592266D01*
X126184458Y-75593790D01*
X126184267Y-75595291D01*
X126184003Y-75596768D01*
X126183668Y-75598220D01*
X126183264Y-75599643D01*
X126182792Y-75601037D01*
X126182255Y-75602400D01*
X126181654Y-75603728D01*
X126180992Y-75605022D01*
X126180269Y-75606278D01*
X126179489Y-75607495D01*
X126178653Y-75608672D01*
X126177762Y-75609805D01*
X126176819Y-75610893D01*
X126175826Y-75611935D01*
X126174784Y-75612929D01*
X126173696Y-75613872D01*
X126172562Y-75614762D01*
X126171386Y-75615599D01*
X126170169Y-75616379D01*
X126168913Y-75617101D01*
X126167619Y-75617764D01*
X126166290Y-75618365D01*
X126164928Y-75618902D01*
X126163534Y-75619374D01*
X126162111Y-75619778D01*
X126160659Y-75620113D01*
X126159182Y-75620377D01*
X126157681Y-75620568D01*
X126156157Y-75620684D01*
X126154614Y-75620723D01*
X126153070Y-75620684D01*
X126151547Y-75620568D01*
X126150045Y-75620377D01*
X126148568Y-75620113D01*
X126147117Y-75619778D01*
X126145693Y-75619374D01*
X126144299Y-75618902D01*
X126142937Y-75618365D01*
X126141608Y-75617764D01*
X126140315Y-75617101D01*
X126139059Y-75616379D01*
X126137841Y-75615599D01*
X126136665Y-75614762D01*
X126135532Y-75613872D01*
X126134444Y-75612929D01*
X126133402Y-75611935D01*
X126132408Y-75610893D01*
X126131466Y-75609805D01*
X126130575Y-75608672D01*
X126129739Y-75607495D01*
X126128958Y-75606278D01*
X126128236Y-75605022D01*
X126127573Y-75603728D01*
X126126973Y-75602400D01*
X126126435Y-75601037D01*
X126125964Y-75599643D01*
X126125560Y-75598220D01*
X126125225Y-75596768D01*
X126124961Y-75595291D01*
X126124770Y-75593790D01*
X126124654Y-75592266D01*
X126124615Y-75590722D01*
X126124654Y-75589179D01*
X126124770Y-75587655D01*
X126124961Y-75586154D01*
X126125225Y-75584676D01*
X126125560Y-75583225D01*
X126125964Y-75581801D01*
X126126435Y-75580408D01*
X126126973Y-75579045D01*
X126127573Y-75577716D01*
X126128236Y-75576423D01*
X126128958Y-75575167D01*
X126129739Y-75573949D01*
X126130575Y-75572773D01*
X126131466Y-75571640D01*
X126132408Y-75570551D01*
X126133402Y-75569509D01*
X126134444Y-75568516D01*
X126135532Y-75567573D01*
X126136665Y-75566683D01*
X126137841Y-75565846D01*
X126139059Y-75565066D01*
X126140315Y-75564343D01*
X126141608Y-75563681D01*
X126142937Y-75563080D01*
X126144299Y-75562543D01*
X126145693Y-75562071D01*
X126147117Y-75561667D01*
X126148568Y-75561332D01*
X126150045Y-75561068D01*
X126151547Y-75560877D01*
X126153070Y-75560761D01*
X126154614Y-75560722D01*
X126156157Y-75560761D01*
G37*
D10*
G36*
X112326218Y-91308688D02*
G01*
X112743595Y-91308688D01*
X112743595Y-91413028D01*
X112847935Y-91413028D01*
X112847935Y-91830406D01*
X112639246Y-91830406D01*
X112639246Y-91413028D01*
X112326212Y-91413028D01*
X112326212Y-91830406D01*
X112117529Y-91830406D01*
X112117529Y-91100000D01*
X112326218Y-91100000D01*
X112326218Y-91308688D01*
G37*
G36*
X114830483Y-92537393D02*
G01*
X115039170Y-92537393D01*
X115039170Y-92433053D01*
X115352204Y-92433053D01*
X115352204Y-92537393D01*
X115247864Y-92537393D01*
X115247864Y-92641733D01*
X115143524Y-92641733D01*
X115143524Y-92746072D01*
X115247864Y-92746072D01*
X115247864Y-92850412D01*
X115352204Y-92850412D01*
X115352204Y-92954751D01*
X115039170Y-92954751D01*
X115039170Y-92850412D01*
X114934830Y-92850412D01*
X114934830Y-92746072D01*
X114830490Y-92746072D01*
X114830490Y-92954761D01*
X114621804Y-92954761D01*
X114621796Y-92589567D01*
X114621796Y-92224361D01*
X114830483Y-92224361D01*
X114830483Y-92537393D01*
G37*
G36*
X97256638Y-71559385D02*
G01*
X97012576Y-71559385D01*
X97012576Y-71315323D01*
X97256638Y-71315323D01*
X97256638Y-71559385D01*
G37*
G36*
X117742325Y-71559385D02*
G01*
X117498265Y-71559385D01*
X117498265Y-71315323D01*
X117742325Y-71315323D01*
X117742325Y-71559385D01*
G37*
G36*
X113995728Y-91308688D02*
G01*
X114413109Y-91308688D01*
X114413109Y-91413028D01*
X114517449Y-91413028D01*
X114517449Y-91726062D01*
X114413109Y-91726062D01*
X114413109Y-91830402D01*
X113891388Y-91830402D01*
X113891388Y-91726066D01*
X113891388Y-91726062D01*
X113787049Y-91726062D01*
X113787039Y-91413032D01*
X113995728Y-91413032D01*
X113995728Y-91726066D01*
X114308762Y-91726066D01*
X114308762Y-91413032D01*
X113995728Y-91413032D01*
X113787039Y-91413032D01*
X113787039Y-91100000D01*
X113995728Y-91100000D01*
X113995728Y-91308688D01*
G37*
G36*
X96252817Y-73239930D02*
G01*
X95384294Y-73239930D01*
X95384294Y-73095177D01*
X95384294Y-73095176D01*
X95239534Y-73095176D01*
X95239534Y-72660915D01*
X95384294Y-72660915D01*
X95529048Y-72660915D01*
X95529048Y-73095177D01*
X95963308Y-73095177D01*
X95963308Y-72660915D01*
X95529048Y-72660915D01*
X95384294Y-72660915D01*
X95384294Y-72516161D01*
X95963308Y-72516161D01*
X95963308Y-72226654D01*
X96252817Y-72226654D01*
X96252817Y-73239930D01*
G37*
G36*
X93792003Y-72660915D02*
G01*
X93936763Y-72660915D01*
X93936763Y-73239930D01*
X93068239Y-73239930D01*
X93068239Y-73095177D01*
X93068239Y-73095176D01*
X92923478Y-73095176D01*
X92923478Y-72950423D01*
X93212987Y-72950423D01*
X93212987Y-73095177D01*
X93647249Y-73095177D01*
X93647249Y-72950423D01*
X93212987Y-72950423D01*
X92923478Y-72950423D01*
X92923478Y-72950422D01*
X93068239Y-72950422D01*
X93068239Y-72805668D01*
X93647254Y-72805668D01*
X93647254Y-72660915D01*
X93068239Y-72660915D01*
X93068233Y-72588538D01*
X93068233Y-72516161D01*
X93792003Y-72516161D01*
X93792003Y-72660915D01*
G37*
G36*
X121159203Y-71559385D02*
G01*
X119694825Y-71559385D01*
X119694825Y-71315323D01*
X121159203Y-71315323D01*
X121159203Y-71559385D01*
G37*
G36*
X90930806Y-86739299D02*
G01*
X91075561Y-86739299D01*
X91075561Y-86884059D01*
X91220314Y-86884059D01*
X91220314Y-87318321D01*
X91075560Y-87318321D01*
X91075560Y-87463081D01*
X90930806Y-87463081D01*
X90930806Y-87607841D01*
X90207037Y-87607841D01*
X90207038Y-87463054D01*
X90207038Y-87101175D01*
X90207038Y-86739286D01*
X90496545Y-86739286D01*
X90496545Y-87463054D01*
X90786052Y-87463054D01*
X90786052Y-87318294D01*
X90930806Y-87318294D01*
X90930806Y-86884033D01*
X90786052Y-86884033D01*
X90786053Y-86811666D01*
X90786053Y-86739286D01*
X90496545Y-86739286D01*
X90207038Y-86739286D01*
X90207038Y-86594539D01*
X90930806Y-86594539D01*
X90930806Y-86739299D01*
G37*
G36*
X107385149Y-70786156D02*
G01*
X107629214Y-70786156D01*
X107629214Y-71762406D01*
X107141089Y-71762406D01*
X107141089Y-70786156D01*
X106408900Y-70786156D01*
X106408900Y-71762406D01*
X105920775Y-71762406D01*
X105920775Y-70542094D01*
X107385149Y-70542094D01*
X107385149Y-70786156D01*
G37*
G36*
X119525997Y-91934753D02*
G01*
X118795582Y-91934753D01*
X118795582Y-91830413D01*
X119525997Y-91830413D01*
X119525997Y-91934753D01*
G37*
G36*
X105454899Y-87535453D02*
G01*
X105599659Y-87535453D01*
X105599659Y-87680213D01*
X105744419Y-87680213D01*
X105744419Y-87535453D01*
X105889180Y-87535453D01*
X105889180Y-87101192D01*
X106178686Y-87101192D01*
X106178686Y-87680208D01*
X106033926Y-87680208D01*
X106033926Y-87824968D01*
X105889166Y-87824968D01*
X105889166Y-87969728D01*
X105744406Y-87969728D01*
X105744406Y-88114488D01*
X105599646Y-88114488D01*
X105599646Y-87969728D01*
X105454886Y-87969728D01*
X105454886Y-87824968D01*
X105310126Y-87824968D01*
X105310126Y-87680208D01*
X105165366Y-87680208D01*
X105165392Y-87390699D01*
X105165392Y-87101192D01*
X105454899Y-87101192D01*
X105454899Y-87535453D01*
G37*
G36*
X116382328Y-72660915D02*
G01*
X116527088Y-72660915D01*
X116527088Y-73239930D01*
X115658566Y-73239930D01*
X115658566Y-73095177D01*
X115513806Y-73095177D01*
X115513806Y-72950423D01*
X115658566Y-72950423D01*
X115803307Y-72950423D01*
X115803307Y-73095177D01*
X116237572Y-73095177D01*
X116237572Y-72950423D01*
X115803307Y-72950423D01*
X115658566Y-72950423D01*
X115658566Y-72805669D01*
X116237583Y-72805669D01*
X116237583Y-72660915D01*
X115658566Y-72660915D01*
X115658558Y-72588538D01*
X115658558Y-72516162D01*
X116382328Y-72516162D01*
X116382328Y-72660915D01*
G37*
G36*
X118843140Y-73239930D02*
G01*
X117974617Y-73239930D01*
X117974617Y-73095177D01*
X117829857Y-73095177D01*
X117829857Y-72660915D01*
X117974617Y-72660915D01*
X118119374Y-72660915D01*
X118119374Y-73095177D01*
X118553635Y-73095177D01*
X118553635Y-72660915D01*
X118119374Y-72660915D01*
X117974617Y-72660915D01*
X117974617Y-72516162D01*
X118553635Y-72516162D01*
X118553635Y-72226654D01*
X118843140Y-72226654D01*
X118843140Y-73239930D01*
G37*
G36*
X115665242Y-91621721D02*
G01*
X115978276Y-91621721D01*
X115978276Y-91308688D01*
X116186962Y-91308688D01*
X116186962Y-91830409D01*
X116082623Y-91830409D01*
X116082623Y-91934749D01*
X115560902Y-91934749D01*
X115560902Y-91830409D01*
X115978283Y-91830409D01*
X115978283Y-91726070D01*
X115560902Y-91726070D01*
X115560902Y-91621730D01*
X115456562Y-91621730D01*
X115456555Y-91465206D01*
X115456555Y-91308688D01*
X115665242Y-91308688D01*
X115665242Y-91621721D01*
G37*
G36*
X120047711Y-92954770D02*
G01*
X119839024Y-92954770D01*
X119839024Y-92746082D01*
X120047711Y-92746082D01*
X120047711Y-92954770D01*
G37*
G36*
X117647786Y-92433050D02*
G01*
X117856472Y-92433050D01*
X117856472Y-92537389D01*
X117647786Y-92537389D01*
X117647786Y-92954767D01*
X117439099Y-92954767D01*
X117439099Y-92537389D01*
X117230412Y-92537389D01*
X117230412Y-92433050D01*
X117439099Y-92433050D01*
X117439099Y-92224361D01*
X117647786Y-92224361D01*
X117647786Y-92433050D01*
G37*
G36*
X125585068Y-86789161D02*
G01*
X125729828Y-86789161D01*
X125729828Y-86933921D01*
X125874588Y-86933921D01*
X125874588Y-87078681D01*
X126019348Y-87078681D01*
X126019348Y-86644420D01*
X126308853Y-86644420D01*
X126308853Y-87657695D01*
X126019348Y-87657695D01*
X126019348Y-87512935D01*
X125874588Y-87512935D01*
X125874588Y-87368175D01*
X125729828Y-87368175D01*
X125729828Y-87223415D01*
X125585068Y-87223415D01*
X125585068Y-87657676D01*
X125295563Y-87657676D01*
X125295563Y-86644401D01*
X125585068Y-86644401D01*
X125585068Y-86789161D01*
G37*
G36*
X121014450Y-72660915D02*
G01*
X121159211Y-72660915D01*
X121159211Y-73095177D01*
X121014450Y-73095177D01*
X121014450Y-73239931D01*
X120290680Y-73239931D01*
X120290680Y-73095177D01*
X120145920Y-73095177D01*
X120145920Y-72660915D01*
X120290680Y-72660915D01*
X120435433Y-72660915D01*
X120435433Y-73095177D01*
X120869694Y-73095177D01*
X120869694Y-72660915D01*
X120435433Y-72660915D01*
X120290680Y-72660915D01*
X120290680Y-72516162D01*
X121014450Y-72516162D01*
X121014450Y-72660915D01*
G37*
G36*
X94816014Y-71559385D02*
G01*
X94571951Y-71559385D01*
X94571951Y-71315323D01*
X94816014Y-71315323D01*
X94816014Y-71559385D01*
G37*
G36*
X108205222Y-87245948D02*
G01*
X107915713Y-87245948D01*
X107915713Y-87101188D01*
X108205222Y-87101188D01*
X108205222Y-87245948D01*
G37*
G36*
X94371019Y-73095176D02*
G01*
X94805278Y-73095176D01*
X94805278Y-72516161D01*
X95094787Y-72516161D01*
X95094787Y-73239930D01*
X94226264Y-73239930D01*
X94226264Y-73095176D01*
X94081504Y-73095176D01*
X94081510Y-72805669D01*
X94081510Y-72516161D01*
X94371019Y-72516161D01*
X94371019Y-73095176D01*
G37*
G36*
X95304139Y-71559385D02*
G01*
X95060076Y-71559385D01*
X95060076Y-71315323D01*
X95304139Y-71315323D01*
X95304139Y-71559385D01*
G37*
G36*
X119711666Y-73095177D02*
G01*
X120001171Y-73095177D01*
X120001171Y-73239931D01*
X119132649Y-73239931D01*
X119132649Y-73095177D01*
X119422154Y-73095177D01*
X119422154Y-72660915D01*
X119277394Y-72660915D01*
X119277405Y-72588539D01*
X119277405Y-72516162D01*
X119711666Y-72516162D01*
X119711666Y-73095177D01*
G37*
G36*
X119525990Y-92537391D02*
G01*
X119004269Y-92537391D01*
X119004269Y-92850425D01*
X119525990Y-92850425D01*
X119525990Y-92954765D01*
X118899922Y-92954765D01*
X118899922Y-92850425D01*
X118795582Y-92850425D01*
X118795582Y-92537391D01*
X118899922Y-92537391D01*
X118899922Y-92433051D01*
X119525990Y-92433051D01*
X119525990Y-92537391D01*
G37*
G36*
X116082619Y-92537391D02*
G01*
X116186959Y-92537391D01*
X116186959Y-92954768D01*
X115560891Y-92954768D01*
X115560891Y-92850429D01*
X115456551Y-92850429D01*
X115456551Y-92850425D01*
X115456551Y-92746089D01*
X115560891Y-92746089D01*
X115560891Y-92746085D01*
X115665242Y-92746085D01*
X115665242Y-92850425D01*
X115978276Y-92850425D01*
X115978276Y-92746085D01*
X115665242Y-92746085D01*
X115560891Y-92746085D01*
X115560891Y-92641750D01*
X115978272Y-92641750D01*
X115978272Y-92537410D01*
X115560891Y-92537410D01*
X115560898Y-92485221D01*
X115560898Y-92433051D01*
X116082619Y-92433051D01*
X116082619Y-92537391D01*
G37*
G36*
X88904255Y-86739293D02*
G01*
X88325239Y-86739293D01*
X88325239Y-86884054D01*
X88180485Y-86884054D01*
X88180485Y-87318315D01*
X88325239Y-87318315D01*
X88325239Y-87463075D01*
X88614747Y-87463075D01*
X88614747Y-87173568D01*
X88469992Y-87173568D01*
X88469992Y-87028808D01*
X88904254Y-87028808D01*
X88904254Y-87607824D01*
X88180486Y-87607824D01*
X88180486Y-87463064D01*
X88035731Y-87463064D01*
X88035731Y-87318303D01*
X87890977Y-87318303D01*
X87890977Y-86884042D01*
X88035731Y-86884042D01*
X88035731Y-86739282D01*
X88180486Y-86739282D01*
X88180486Y-86594533D01*
X88904255Y-86594533D01*
X88904255Y-86739293D01*
G37*
G36*
X105676714Y-72006469D02*
G01*
X103968275Y-72006469D01*
X103968275Y-71762406D01*
X105676714Y-71762406D01*
X105676714Y-72006469D01*
G37*
G36*
X122656327Y-91726068D02*
G01*
X122865013Y-91726068D01*
X122865013Y-91830407D01*
X122238945Y-91830407D01*
X122238945Y-91726068D01*
X122447632Y-91726068D01*
X122447632Y-91308690D01*
X122343293Y-91308690D01*
X122343293Y-91204351D01*
X122447632Y-91204351D01*
X122447640Y-91152171D01*
X122447640Y-91100002D01*
X122656327Y-91100002D01*
X122656327Y-91726068D01*
G37*
G36*
X89338516Y-86739299D02*
G01*
X89483270Y-86739299D01*
X89483270Y-86884059D01*
X89628024Y-86884059D01*
X89628024Y-87028819D01*
X89772779Y-87028819D01*
X89772779Y-86594558D01*
X90062286Y-86594558D01*
X90062286Y-87607833D01*
X89772777Y-87607833D01*
X89772777Y-87463073D01*
X89628023Y-87463073D01*
X89628023Y-87318313D01*
X89483269Y-87318313D01*
X89483269Y-87173553D01*
X89338515Y-87173553D01*
X89338515Y-87607814D01*
X89049008Y-87607814D01*
X89049008Y-87101175D01*
X89049008Y-86594539D01*
X89338516Y-86594539D01*
X89338516Y-86739299D01*
G37*
G36*
X118586888Y-92537391D02*
G01*
X118691227Y-92537391D01*
X118691227Y-92746080D01*
X118169506Y-92746080D01*
X118169506Y-92850419D01*
X118586888Y-92850419D01*
X118586888Y-92954759D01*
X118065167Y-92954759D01*
X118065167Y-92850419D01*
X117960827Y-92850419D01*
X117960827Y-92641736D01*
X117960827Y-92537397D01*
X118169510Y-92537397D01*
X118169510Y-92641736D01*
X118482544Y-92641736D01*
X118482544Y-92537397D01*
X118169510Y-92537397D01*
X117960827Y-92537397D01*
X117960827Y-92537385D01*
X118065167Y-92537385D01*
X118065167Y-92433051D01*
X118586888Y-92433051D01*
X118586888Y-92537391D01*
G37*
G36*
X121717228Y-91830409D02*
G01*
X121508541Y-91830409D01*
X121508541Y-91621721D01*
X121717228Y-91621721D01*
X121717228Y-91830409D01*
G37*
G36*
X121612873Y-92537389D02*
G01*
X121717213Y-92537389D01*
X121717213Y-92433050D01*
X122030247Y-92433050D01*
X122030247Y-92537389D01*
X121717224Y-92537389D01*
X121717224Y-92641729D01*
X121612885Y-92641729D01*
X121612885Y-92954761D01*
X121404194Y-92954761D01*
X121404187Y-92693910D01*
X121404187Y-92433050D01*
X121612873Y-92433050D01*
X121612873Y-92537389D01*
G37*
G36*
X116917374Y-92537391D02*
G01*
X117021714Y-92537391D01*
X117021714Y-92850425D01*
X116917374Y-92850425D01*
X116917374Y-92954765D01*
X116395653Y-92954765D01*
X116395653Y-92850427D01*
X116395653Y-92850425D01*
X116291313Y-92850425D01*
X116291313Y-92537393D01*
X116499997Y-92537393D01*
X116499997Y-92850427D01*
X116813031Y-92850427D01*
X116813031Y-92537393D01*
X116499997Y-92537393D01*
X116291313Y-92537393D01*
X116291313Y-92537391D01*
X116395653Y-92537391D01*
X116395653Y-92433051D01*
X116917374Y-92433051D01*
X116917374Y-92537391D01*
G37*
G36*
X118482548Y-91204341D02*
G01*
X118586888Y-91204341D01*
X118586888Y-91308681D01*
X118691227Y-91308681D01*
X118691227Y-91830402D01*
X118482544Y-91830402D01*
X118482544Y-91621713D01*
X118169510Y-91621713D01*
X118169510Y-91830402D01*
X117960820Y-91830402D01*
X117960820Y-91517373D01*
X118169525Y-91517373D01*
X118482560Y-91517373D01*
X118482560Y-91308685D01*
X118378220Y-91308685D01*
X118378205Y-91256515D01*
X118378205Y-91204345D01*
X118273865Y-91204345D01*
X118273865Y-91308685D01*
X118169525Y-91308685D01*
X118169525Y-91517373D01*
X117960820Y-91517373D01*
X117960820Y-91308685D01*
X117960820Y-91308681D01*
X118065159Y-91308681D01*
X118065159Y-91204341D01*
X118169499Y-91204341D01*
X118169514Y-91152171D01*
X118169514Y-91100002D01*
X118482548Y-91100002D01*
X118482548Y-91204341D01*
G37*
G36*
X116961342Y-73095177D02*
G01*
X117395604Y-73095177D01*
X117395604Y-72516162D01*
X117685109Y-72516162D01*
X117685109Y-73239930D01*
X116816586Y-73239930D01*
X116816586Y-73095177D01*
X116671826Y-73095177D01*
X116671837Y-72805669D01*
X116671837Y-72516162D01*
X116961342Y-72516162D01*
X116961342Y-73095177D01*
G37*
G36*
X120869690Y-74015510D02*
G01*
X121159195Y-74015510D01*
X121159195Y-74160265D01*
X120869694Y-74160265D01*
X120869694Y-74739280D01*
X120580185Y-74739280D01*
X120580185Y-74160265D01*
X120290680Y-74160265D01*
X120290680Y-74015510D01*
X120580185Y-74015510D01*
X120580185Y-73726003D01*
X120869690Y-73726003D01*
X120869690Y-74015510D01*
G37*
G36*
X96036326Y-71315323D02*
G01*
X96280388Y-71315323D01*
X96280388Y-71559385D01*
X96524452Y-71559385D01*
X96524452Y-71803448D01*
X95792263Y-71803448D01*
X95792263Y-71559385D01*
X95548201Y-71559385D01*
X95548201Y-71315323D01*
X95304139Y-71315323D01*
X95304139Y-71071260D01*
X96036326Y-71071260D01*
X96036326Y-71315323D01*
G37*
G36*
X116500000Y-91413032D02*
G01*
X116604340Y-91413032D01*
X116604340Y-91517371D01*
X116708680Y-91517371D01*
X116708680Y-91413032D01*
X116813019Y-91413032D01*
X116813019Y-91100000D01*
X117021706Y-91100000D01*
X117021706Y-91517377D01*
X116917366Y-91517377D01*
X116917366Y-91621717D01*
X116813027Y-91621717D01*
X116813027Y-91726056D01*
X116708687Y-91726056D01*
X116708687Y-91830396D01*
X116604348Y-91830396D01*
X116604348Y-91726056D01*
X116500008Y-91726056D01*
X116500008Y-91621717D01*
X116395668Y-91621717D01*
X116395668Y-91517377D01*
X116291329Y-91517377D01*
X116291313Y-91308688D01*
X116291313Y-91100000D01*
X116500000Y-91100000D01*
X116500000Y-91413032D01*
G37*
G36*
X117752140Y-91204341D02*
G01*
X117856480Y-91204341D01*
X117856480Y-91308681D01*
X117647782Y-91308681D01*
X117647782Y-91204341D01*
X117439099Y-91204341D01*
X117439099Y-91308681D01*
X117334759Y-91308681D01*
X117334759Y-91621713D01*
X117439099Y-91621713D01*
X117439099Y-91726053D01*
X117647786Y-91726053D01*
X117647786Y-91621713D01*
X117856472Y-91621713D01*
X117856472Y-91726053D01*
X117752133Y-91726053D01*
X117752133Y-91830392D01*
X117334755Y-91830392D01*
X117334755Y-91726053D01*
X117230416Y-91726053D01*
X117230416Y-91621713D01*
X117126076Y-91621713D01*
X117126076Y-91308681D01*
X117230416Y-91308681D01*
X117230416Y-91204341D01*
X117334755Y-91204341D01*
X117334759Y-91152171D01*
X117334759Y-91100002D01*
X117752140Y-91100002D01*
X117752140Y-91204341D01*
G37*
G36*
X111908839Y-91413030D02*
G01*
X111491461Y-91413030D01*
X111491461Y-91517370D01*
X111908839Y-91517370D01*
X111908839Y-91621709D01*
X112013178Y-91621709D01*
X112013178Y-91726049D01*
X111908839Y-91726049D01*
X111908839Y-91830388D01*
X111282772Y-91830388D01*
X111282772Y-91726049D01*
X111804495Y-91726049D01*
X111804495Y-91621709D01*
X111387118Y-91621709D01*
X111387118Y-91517370D01*
X111282778Y-91517370D01*
X111282778Y-91413030D01*
X111387118Y-91413030D01*
X111387118Y-91308690D01*
X111908839Y-91308690D01*
X111908839Y-91413030D01*
G37*
G36*
X93518474Y-74594525D02*
G01*
X93807983Y-74594525D01*
X93807983Y-74739279D01*
X92939460Y-74739279D01*
X92939460Y-74594525D01*
X93228967Y-74594525D01*
X93228967Y-74160264D01*
X93084207Y-74160264D01*
X93084215Y-74087887D01*
X93084215Y-74015510D01*
X93518474Y-74015510D01*
X93518474Y-74594525D01*
G37*
G36*
X118474514Y-71315323D02*
G01*
X118718579Y-71315323D01*
X118718579Y-71559385D01*
X118962639Y-71559385D01*
X118962639Y-71803448D01*
X118230450Y-71803448D01*
X118230450Y-71559385D01*
X117986389Y-71559385D01*
X117986389Y-71315323D01*
X117742329Y-71315323D01*
X117742325Y-71193292D01*
X117742325Y-71071260D01*
X118474514Y-71071260D01*
X118474514Y-71315323D01*
G37*
G36*
X119277401Y-74594526D02*
G01*
X119711663Y-74594526D01*
X119711663Y-74015511D01*
X120001168Y-74015511D01*
X120001168Y-74739280D01*
X119132645Y-74739280D01*
X119132645Y-74594526D01*
X118987885Y-74594526D01*
X118987896Y-74305018D01*
X118987896Y-74015511D01*
X119277401Y-74015511D01*
X119277401Y-74594526D01*
G37*
G36*
X97121339Y-72371408D02*
G01*
X96831832Y-72371408D01*
X96831832Y-72226654D01*
X97121339Y-72226654D01*
X97121339Y-72371408D01*
G37*
G36*
X94821260Y-74160265D02*
G01*
X94966020Y-74160265D01*
X94966020Y-74739279D01*
X94676505Y-74739279D01*
X94676505Y-74160264D01*
X94242244Y-74160264D01*
X94242244Y-74739279D01*
X93952735Y-74739279D01*
X93952737Y-74377395D01*
X93952737Y-74015510D01*
X94821260Y-74015510D01*
X94821260Y-74160265D01*
G37*
G36*
X119943371Y-91621721D02*
G01*
X120152058Y-91621721D01*
X120152058Y-91308688D01*
X120360745Y-91308688D01*
X120360745Y-91621721D01*
X120256405Y-91621721D01*
X120256405Y-91726060D01*
X120152066Y-91726060D01*
X120152066Y-91830400D01*
X119943379Y-91830400D01*
X119943379Y-91726060D01*
X119839039Y-91726060D01*
X119839039Y-91621721D01*
X119734700Y-91621721D01*
X119734684Y-91465206D01*
X119734684Y-91308688D01*
X119943371Y-91308688D01*
X119943371Y-91621721D01*
G37*
G36*
X93351638Y-71559385D02*
G01*
X93107577Y-71559385D01*
X93107577Y-71315323D01*
X93351638Y-71315323D01*
X93351638Y-71559385D01*
G37*
G36*
X119711663Y-72371408D02*
G01*
X119422158Y-72371408D01*
X119422158Y-72226654D01*
X119711663Y-72226654D01*
X119711663Y-72371408D01*
G37*
G36*
X109581713Y-72006469D02*
G01*
X107873274Y-72006469D01*
X107873274Y-71762406D01*
X109581713Y-71762406D01*
X109581713Y-72006469D01*
G37*
D11*
X88056058Y-81860761D02*
X88057582Y-81860877D01*
X88059083Y-81861068D01*
X88060561Y-81861331D01*
X88062012Y-81861666D01*
X88063436Y-81862071D01*
X88064830Y-81862542D01*
X88066192Y-81863079D01*
X88067521Y-81863680D01*
X88068815Y-81864343D01*
X88070071Y-81865065D01*
X88071288Y-81865845D01*
X88072465Y-81866682D01*
X88073598Y-81867572D01*
X88074687Y-81868515D01*
X88075728Y-81869509D01*
X88076722Y-81870551D01*
X88077665Y-81871639D01*
X88078555Y-81872772D01*
X88079392Y-81873949D01*
X88080172Y-81875166D01*
X88080895Y-81876422D01*
X88081557Y-81877716D01*
X88082158Y-81879044D01*
X88082695Y-81880407D01*
X88083167Y-81881801D01*
X88083571Y-81883224D01*
X88083906Y-81884676D01*
X88084170Y-81886153D01*
X88084361Y-81887654D01*
X88084476Y-81889178D01*
X88084515Y-81890722D01*
X88084476Y-81892265D01*
X88084360Y-81893789D01*
X88084169Y-81895290D01*
X88083906Y-81896768D01*
X88083571Y-81898219D01*
X88083166Y-81899643D01*
X88082695Y-81901036D01*
X88082158Y-81902399D01*
X88081557Y-81903728D01*
X88080894Y-81905021D01*
X88080172Y-81906277D01*
X88079392Y-81907495D01*
X88078555Y-81908671D01*
X88077665Y-81909804D01*
X88076722Y-81910893D01*
X88075729Y-81911935D01*
X88074687Y-81912928D01*
X88073598Y-81913871D01*
X88072465Y-81914761D01*
X88071289Y-81915598D01*
X88070071Y-81916378D01*
X88068815Y-81917101D01*
X88067522Y-81917763D01*
X88066193Y-81918364D01*
X88064830Y-81918901D01*
X88063436Y-81919373D01*
X88062013Y-81919777D01*
X88060561Y-81920112D01*
X88059084Y-81920376D01*
X88057583Y-81920566D01*
X88056059Y-81920682D01*
X88054515Y-81920721D01*
X88052971Y-81920682D01*
X88051448Y-81920566D01*
X88049946Y-81920376D01*
X88048469Y-81920112D01*
X88047017Y-81919777D01*
X88045594Y-81919373D01*
X88044200Y-81918901D01*
X88042837Y-81918364D01*
X88041508Y-81917763D01*
X88040215Y-81917101D01*
X88038958Y-81916378D01*
X88037741Y-81915598D01*
X88036565Y-81914761D01*
X88035432Y-81913871D01*
X88034343Y-81912928D01*
X88033301Y-81911935D01*
X88032308Y-81910893D01*
X88031365Y-81909804D01*
X88030474Y-81908671D01*
X88029638Y-81907495D01*
X88028857Y-81906277D01*
X88028135Y-81905021D01*
X88027472Y-81903728D01*
X88026872Y-81902399D01*
X88026334Y-81901036D01*
X88025863Y-81899643D01*
X88025459Y-81898219D01*
X88025124Y-81896768D01*
X88024860Y-81895290D01*
X88024669Y-81893789D01*
X88024553Y-81892265D01*
X88024514Y-81890722D01*
X88024553Y-81889178D01*
X88024669Y-81887654D01*
X88024860Y-81886153D01*
X88025124Y-81884676D01*
X88025459Y-81883224D01*
X88025863Y-81881801D01*
X88026334Y-81880407D01*
X88026872Y-81879044D01*
X88027472Y-81877716D01*
X88028135Y-81876422D01*
X88028857Y-81875166D01*
X88029638Y-81873949D01*
X88030474Y-81872772D01*
X88031365Y-81871639D01*
X88032308Y-81870551D01*
X88033301Y-81869509D01*
X88034343Y-81868515D01*
X88035431Y-81867572D01*
X88036565Y-81866682D01*
X88037741Y-81865845D01*
X88038958Y-81865065D01*
X88040214Y-81864343D01*
X88041508Y-81863680D01*
X88042837Y-81863079D01*
X88044199Y-81862542D01*
X88045593Y-81862071D01*
X88047017Y-81861666D01*
X88048468Y-81861331D01*
X88049946Y-81861068D01*
X88051447Y-81860877D01*
X88052970Y-81860761D01*
X88054514Y-81860722D01*
X88056058Y-81860761D01*
D10*
G36*
X117254200Y-71559385D02*
G01*
X115789826Y-71559385D01*
X115789826Y-71315323D01*
X117254200Y-71315323D01*
X117254200Y-71559385D01*
G37*
G36*
X114830483Y-91308688D02*
G01*
X115247864Y-91308688D01*
X115247864Y-91413028D01*
X115352204Y-91413028D01*
X115352204Y-91726062D01*
X115247864Y-91726062D01*
X115247864Y-91830402D01*
X114726143Y-91830402D01*
X114726143Y-91726066D01*
X114726143Y-91726062D01*
X114621804Y-91726062D01*
X114621796Y-91413032D01*
X114830487Y-91413032D01*
X114830487Y-91726066D01*
X115143521Y-91726066D01*
X115143521Y-91413032D01*
X114830487Y-91413032D01*
X114621796Y-91413032D01*
X114621796Y-91100000D01*
X114830483Y-91100000D01*
X114830483Y-91308688D01*
G37*
G36*
X96768514Y-71559385D02*
G01*
X96524452Y-71559385D01*
X96524452Y-71315323D01*
X96768514Y-71315323D01*
X96768514Y-71559385D01*
G37*
G36*
X120986817Y-91204341D02*
G01*
X121091156Y-91204341D01*
X121091156Y-91308681D01*
X121195496Y-91308681D01*
X121195496Y-91621713D01*
X121091156Y-91621713D01*
X121091156Y-91726053D01*
X120986817Y-91726053D01*
X120986817Y-91830392D01*
X120673783Y-91830392D01*
X120673783Y-91726053D01*
X120569443Y-91726053D01*
X120569443Y-91621723D01*
X120569443Y-91621713D01*
X120465103Y-91621713D01*
X120465103Y-91308681D01*
X120569443Y-91308681D01*
X120569443Y-91204345D01*
X120673786Y-91204345D01*
X120673786Y-91621723D01*
X120778126Y-91621723D01*
X120778126Y-91726062D01*
X120986813Y-91726062D01*
X120986813Y-91308685D01*
X120882473Y-91308685D01*
X120882473Y-91204345D01*
X120673786Y-91204345D01*
X120569443Y-91204345D01*
X120569443Y-91204341D01*
X120673783Y-91204341D01*
X120673783Y-91100002D01*
X120986817Y-91100002D01*
X120986817Y-91204341D01*
G37*
G36*
X94083825Y-71315323D02*
G01*
X94327888Y-71315323D01*
X94327888Y-71559385D01*
X94571951Y-71559385D01*
X94571951Y-71803448D01*
X93839763Y-71803448D01*
X93839763Y-71559385D01*
X93595702Y-71559385D01*
X93595702Y-71315323D01*
X93351639Y-71315323D01*
X93351638Y-71193292D01*
X93351638Y-71071260D01*
X94083825Y-71071260D01*
X94083825Y-71315323D01*
G37*
G36*
X121091153Y-92537391D02*
G01*
X121195492Y-92537391D01*
X121195492Y-92850425D01*
X121091153Y-92850425D01*
X121091153Y-92954765D01*
X120569432Y-92954765D01*
X120569432Y-92850427D01*
X120569432Y-92850425D01*
X120465092Y-92850425D01*
X120465092Y-92537393D01*
X120673775Y-92537393D01*
X120673775Y-92850427D01*
X120986809Y-92850427D01*
X120986809Y-92537393D01*
X120673775Y-92537393D01*
X120465092Y-92537393D01*
X120465092Y-92537391D01*
X120569432Y-92537391D01*
X120569432Y-92433051D01*
X121091153Y-92433051D01*
X121091153Y-92537391D01*
G37*
G36*
X118698391Y-74160265D02*
G01*
X118843151Y-74160265D01*
X118843151Y-74594526D01*
X118698391Y-74594526D01*
X118698391Y-74739280D01*
X117974621Y-74739280D01*
X117974621Y-74594526D01*
X117829861Y-74594526D01*
X117829861Y-74160265D01*
X117974621Y-74160265D01*
X118119374Y-74160265D01*
X118119374Y-74594526D01*
X118553635Y-74594526D01*
X118553635Y-74160265D01*
X118119374Y-74160265D01*
X117974621Y-74160265D01*
X117974621Y-74015510D01*
X118698391Y-74015510D01*
X118698391Y-74160265D01*
G37*
G36*
X97988826Y-71315323D02*
G01*
X98232886Y-71315323D01*
X98232886Y-71559385D01*
X98476948Y-71559385D01*
X98476948Y-71315323D01*
X98721009Y-71315323D01*
X98721009Y-71559385D01*
X98476950Y-71559385D01*
X98476950Y-71803448D01*
X97744764Y-71803448D01*
X97744764Y-71559385D01*
X97500701Y-71559385D01*
X97500701Y-71315323D01*
X97256639Y-71315323D01*
X97256639Y-71071260D01*
X97988826Y-71071260D01*
X97988826Y-71315323D01*
G37*
D11*
X103776001Y-72600660D02*
X103777479Y-72600769D01*
X103778944Y-72600951D01*
X103780394Y-72601204D01*
X103781826Y-72601527D01*
X103783239Y-72601919D01*
X103784629Y-72602379D01*
X103785994Y-72602906D01*
X103787332Y-72603499D01*
X103788641Y-72604157D01*
X103789916Y-72604878D01*
X103791158Y-72605663D01*
X103792362Y-72606509D01*
X103793526Y-72607416D01*
X103794649Y-72608383D01*
X103795727Y-72609409D01*
X103796753Y-72610487D01*
X103797720Y-72611610D01*
X103798627Y-72612774D01*
X103799474Y-72613978D01*
X103800258Y-72615220D01*
X103800980Y-72616496D01*
X103801638Y-72617804D01*
X103802231Y-72619142D01*
X103802758Y-72620507D01*
X103803218Y-72621898D01*
X103803610Y-72623310D01*
X103803933Y-72624743D01*
X103804186Y-72626193D01*
X103804367Y-72627658D01*
X103804477Y-72629135D01*
X103804514Y-72630623D01*
X103804477Y-72632110D01*
X103804367Y-72633588D01*
X103804186Y-72635053D01*
X103803933Y-72636503D01*
X103803610Y-72637935D01*
X103803218Y-72639348D01*
X103802758Y-72640738D01*
X103802231Y-72642103D01*
X103801638Y-72643441D01*
X103800980Y-72644750D01*
X103800258Y-72646026D01*
X103799474Y-72647267D01*
X103798627Y-72648471D01*
X103797720Y-72649636D01*
X103796753Y-72650758D01*
X103795727Y-72651836D01*
X103794649Y-72652862D01*
X103793526Y-72653829D01*
X103792362Y-72654736D01*
X103791158Y-72655583D01*
X103789916Y-72656367D01*
X103788641Y-72657089D01*
X103787332Y-72657747D01*
X103785994Y-72658339D01*
X103784629Y-72658866D01*
X103783239Y-72659326D01*
X103781826Y-72659718D01*
X103780394Y-72660041D01*
X103778944Y-72660294D01*
X103777479Y-72660476D01*
X103776001Y-72660586D01*
X103774514Y-72660623D01*
X103773026Y-72660586D01*
X103771548Y-72660476D01*
X103770083Y-72660294D01*
X103768633Y-72660041D01*
X103767201Y-72659718D01*
X103765788Y-72659326D01*
X103764398Y-72658866D01*
X103763033Y-72658339D01*
X103761695Y-72657747D01*
X103760387Y-72657089D01*
X103759111Y-72656367D01*
X103757869Y-72655583D01*
X103756665Y-72654736D01*
X103755501Y-72653829D01*
X103754378Y-72652862D01*
X103753300Y-72651836D01*
X103752274Y-72650758D01*
X103751307Y-72649636D01*
X103750400Y-72648471D01*
X103749553Y-72647267D01*
X103748769Y-72646026D01*
X103748047Y-72644750D01*
X103747389Y-72643441D01*
X103746796Y-72642103D01*
X103746270Y-72640738D01*
X103745810Y-72639348D01*
X103745418Y-72637935D01*
X103745095Y-72636503D01*
X103744842Y-72635053D01*
X103744660Y-72633588D01*
X103744550Y-72632110D01*
X103744513Y-72630623D01*
X103744550Y-72629135D01*
X103744660Y-72627658D01*
X103744842Y-72626193D01*
X103745095Y-72624743D01*
X103745418Y-72623310D01*
X103745810Y-72621898D01*
X103746270Y-72620507D01*
X103746796Y-72619142D01*
X103747389Y-72617804D01*
X103748047Y-72616496D01*
X103748769Y-72615220D01*
X103749553Y-72613978D01*
X103750400Y-72612774D01*
X103751307Y-72611610D01*
X103752274Y-72610487D01*
X103753300Y-72609409D01*
X103754378Y-72608383D01*
X103755501Y-72607416D01*
X103756665Y-72606509D01*
X103757869Y-72605663D01*
X103759111Y-72604878D01*
X103760387Y-72604157D01*
X103761695Y-72603499D01*
X103763033Y-72602906D01*
X103764398Y-72602379D01*
X103765788Y-72601919D01*
X103767201Y-72601527D01*
X103768633Y-72601204D01*
X103770083Y-72600951D01*
X103771548Y-72600769D01*
X103773026Y-72600660D01*
X103774514Y-72600623D01*
X103776001Y-72600660D01*
G36*
X103776001Y-72600660D02*
G01*
X103777479Y-72600769D01*
X103778944Y-72600951D01*
X103780394Y-72601204D01*
X103781826Y-72601527D01*
X103783239Y-72601919D01*
X103784629Y-72602379D01*
X103785994Y-72602906D01*
X103787332Y-72603499D01*
X103788641Y-72604157D01*
X103789916Y-72604878D01*
X103791158Y-72605663D01*
X103792362Y-72606509D01*
X103793526Y-72607416D01*
X103794649Y-72608383D01*
X103795727Y-72609409D01*
X103796753Y-72610487D01*
X103797720Y-72611610D01*
X103798627Y-72612774D01*
X103799474Y-72613978D01*
X103800258Y-72615220D01*
X103800980Y-72616496D01*
X103801638Y-72617804D01*
X103802231Y-72619142D01*
X103802758Y-72620507D01*
X103803218Y-72621898D01*
X103803610Y-72623310D01*
X103803933Y-72624743D01*
X103804186Y-72626193D01*
X103804367Y-72627658D01*
X103804477Y-72629135D01*
X103804514Y-72630623D01*
X103804477Y-72632110D01*
X103804367Y-72633588D01*
X103804186Y-72635053D01*
X103803933Y-72636503D01*
X103803610Y-72637935D01*
X103803218Y-72639348D01*
X103802758Y-72640738D01*
X103802231Y-72642103D01*
X103801638Y-72643441D01*
X103800980Y-72644750D01*
X103800258Y-72646026D01*
X103799474Y-72647267D01*
X103798627Y-72648471D01*
X103797720Y-72649636D01*
X103796753Y-72650758D01*
X103795727Y-72651836D01*
X103794649Y-72652862D01*
X103793526Y-72653829D01*
X103792362Y-72654736D01*
X103791158Y-72655583D01*
X103789916Y-72656367D01*
X103788641Y-72657089D01*
X103787332Y-72657747D01*
X103785994Y-72658339D01*
X103784629Y-72658866D01*
X103783239Y-72659326D01*
X103781826Y-72659718D01*
X103780394Y-72660041D01*
X103778944Y-72660294D01*
X103777479Y-72660476D01*
X103776001Y-72660586D01*
X103774514Y-72660623D01*
X103773026Y-72660586D01*
X103771548Y-72660476D01*
X103770083Y-72660294D01*
X103768633Y-72660041D01*
X103767201Y-72659718D01*
X103765788Y-72659326D01*
X103764398Y-72658866D01*
X103763033Y-72658339D01*
X103761695Y-72657747D01*
X103760387Y-72657089D01*
X103759111Y-72656367D01*
X103757869Y-72655583D01*
X103756665Y-72654736D01*
X103755501Y-72653829D01*
X103754378Y-72652862D01*
X103753300Y-72651836D01*
X103752274Y-72650758D01*
X103751307Y-72649636D01*
X103750400Y-72648471D01*
X103749553Y-72647267D01*
X103748769Y-72646026D01*
X103748047Y-72644750D01*
X103747389Y-72643441D01*
X103746796Y-72642103D01*
X103746270Y-72640738D01*
X103745810Y-72639348D01*
X103745418Y-72637935D01*
X103745095Y-72636503D01*
X103744842Y-72635053D01*
X103744660Y-72633588D01*
X103744550Y-72632110D01*
X103744513Y-72630623D01*
X103744550Y-72629135D01*
X103744660Y-72627658D01*
X103744842Y-72626193D01*
X103745095Y-72624743D01*
X103745418Y-72623310D01*
X103745810Y-72621898D01*
X103746270Y-72620507D01*
X103746796Y-72619142D01*
X103747389Y-72617804D01*
X103748047Y-72616496D01*
X103748769Y-72615220D01*
X103749553Y-72613978D01*
X103750400Y-72612774D01*
X103751307Y-72611610D01*
X103752274Y-72610487D01*
X103753300Y-72609409D01*
X103754378Y-72608383D01*
X103755501Y-72607416D01*
X103756665Y-72606509D01*
X103757869Y-72605663D01*
X103759111Y-72604878D01*
X103760387Y-72604157D01*
X103761695Y-72603499D01*
X103763033Y-72602906D01*
X103764398Y-72602379D01*
X103765788Y-72601919D01*
X103767201Y-72601527D01*
X103768633Y-72601204D01*
X103770083Y-72600951D01*
X103771548Y-72600769D01*
X103773026Y-72600660D01*
X103774514Y-72600623D01*
X103776001Y-72600660D01*
G37*
D10*
%TO.C,REF\u002A\u002A*%
G36*
X101679282Y-90341793D02*
G01*
X102032855Y-90341793D01*
X102032855Y-90695358D01*
X102386428Y-90695358D01*
X102386428Y-91048924D01*
X102740002Y-91048924D01*
X102740002Y-91402490D01*
X102386428Y-91402490D01*
X102386428Y-91756055D01*
X102032855Y-91756055D01*
X102032855Y-92109621D01*
X101679282Y-92109621D01*
X101679282Y-92463187D01*
X100972140Y-92463187D01*
X100972140Y-92109621D01*
X101325714Y-92109621D01*
X101325714Y-91756055D01*
X101679287Y-91756055D01*
X101679287Y-91402490D01*
X102032860Y-91402490D01*
X102032860Y-91048924D01*
X101679287Y-91048924D01*
X101679287Y-90695358D01*
X101325714Y-90695358D01*
X101325714Y-90341793D01*
X100972140Y-90341793D01*
X100972140Y-89988227D01*
X101679282Y-89988227D01*
X101679282Y-90341793D01*
G37*
G36*
X94254287Y-90341793D02*
G01*
X93547145Y-90341793D01*
X93547145Y-92109641D01*
X94254287Y-92109641D01*
X94254287Y-92463207D01*
X92839999Y-92463207D01*
X92839999Y-89988227D01*
X94254287Y-89988227D01*
X94254287Y-90341793D01*
G37*
D12*
%TO.C,U3*%
X125760115Y-75590013D02*
G75*
G02*
X125700119Y-75590013I-29998J0D01*
G01*
X125700119Y-75590013D02*
G75*
G02*
X125760115Y-75590013I29998J0D01*
G01*
D13*
X123260114Y-81270175D02*
X125730117Y-81270175D01*
X125730117Y-81270175D02*
X125730117Y-76199995D01*
X125730117Y-76199995D02*
X123260114Y-76199995D01*
X113528974Y-81740000D02*
X111760089Y-81740000D01*
X111760089Y-81740000D02*
X111760089Y-75818994D01*
X113528974Y-75740000D02*
X111760089Y-75740000D01*
X117028974Y-75740000D02*
X115991255Y-75740000D01*
X120228974Y-75740000D02*
X119491255Y-75740000D01*
X123260114Y-75740000D02*
X122691255Y-75740000D01*
X117028974Y-81740000D02*
X115991255Y-81740000D01*
X120228974Y-81740000D02*
X119491255Y-81740000D01*
X123260114Y-81740000D02*
X122691255Y-81740000D01*
X123260114Y-81740000D02*
X123260114Y-75740000D01*
%TO.C,U2*%
X109500000Y-75099886D02*
X103500000Y-75099886D01*
X109500000Y-75099886D02*
X109500000Y-75668745D01*
X109500000Y-78131026D02*
X109500000Y-78868745D01*
X109500000Y-81331026D02*
X109500000Y-82368745D01*
X103500000Y-75099886D02*
X103500000Y-75668745D01*
X103500000Y-78131026D02*
X103500000Y-78868745D01*
X103500000Y-81331026D02*
X103500000Y-82368745D01*
X103500000Y-84831026D02*
X103500000Y-86599911D01*
X109500000Y-86599911D02*
X103578994Y-86599911D01*
X109500000Y-84831026D02*
X109500000Y-86599911D01*
X103959995Y-72629883D02*
X103959995Y-75099886D01*
X109030175Y-72629883D02*
X103959995Y-72629883D01*
X109030175Y-75099886D02*
X109030175Y-72629883D01*
D12*
X103380011Y-72629883D02*
G75*
G02*
X103320015Y-72629883I-29998J0D01*
G01*
X103320015Y-72629883D02*
G75*
G02*
X103380011Y-72629883I29998J0D01*
G01*
D14*
%TO.C,R1*%
X98146359Y-84075000D02*
X98453641Y-84075000D01*
X98146359Y-84835000D02*
X98453641Y-84835000D01*
%TO.C,Q1*%
X118110000Y-83760000D02*
G75*
G02*
X119948478Y-88198478I0J-2600000D01*
G01*
X116271522Y-88198478D02*
G75*
G02*
X118110000Y-83759999I1838478J1838478D01*
G01*
X116310000Y-88210000D02*
X119910000Y-88210000D01*
%TO.C,R2*%
X112366359Y-84710000D02*
X112673641Y-84710000D01*
X112366359Y-85470000D02*
X112673641Y-85470000D01*
%TO.C,C1*%
X99182164Y-86000000D02*
X99397836Y-86000000D01*
X99182164Y-86720000D02*
X99397836Y-86720000D01*
D12*
%TO.C,U1*%
X87659981Y-81889987D02*
G75*
G02*
X87599985Y-81889987I-29998J0D01*
G01*
X87599985Y-81889987D02*
G75*
G02*
X87659981Y-81889987I29998J0D01*
G01*
D13*
X90099986Y-76209825D02*
X87629983Y-76209825D01*
X87629983Y-76209825D02*
X87629983Y-81280005D01*
X87629983Y-81280005D02*
X90099986Y-81280005D01*
X99831126Y-75740000D02*
X101600011Y-75740000D01*
X101600011Y-75740000D02*
X101600011Y-81661006D01*
X99831126Y-81740000D02*
X101600011Y-81740000D01*
X96331126Y-81740000D02*
X97368845Y-81740000D01*
X93131126Y-81740000D02*
X93868845Y-81740000D01*
X90099986Y-81740000D02*
X90668845Y-81740000D01*
X96331126Y-75740000D02*
X97368845Y-75740000D01*
X93131126Y-75740000D02*
X93868845Y-75740000D01*
X90099986Y-75740000D02*
X90668845Y-75740000D01*
X90099986Y-75740000D02*
X90099986Y-81740000D01*
%TD*%
%LPC*%
D10*
%TO.C,REF\u002A\u002A*%
G36*
X99910714Y-90341773D02*
G01*
X99557143Y-90341773D01*
X99557143Y-90695338D01*
X99203572Y-90695338D01*
X99203572Y-91048904D01*
X98850002Y-91048904D01*
X98850002Y-91402470D01*
X99203572Y-91402470D01*
X99203572Y-91756035D01*
X99557143Y-91756035D01*
X99557143Y-92109601D01*
X99910714Y-92109601D01*
X99910714Y-92463167D01*
X99203572Y-92463167D01*
X99203572Y-92109601D01*
X98850002Y-92109601D01*
X98850002Y-91756035D01*
X98496431Y-91756035D01*
X98496431Y-91402470D01*
X98142860Y-91402470D01*
X98142860Y-91048904D01*
X98496431Y-91048904D01*
X98496431Y-90695338D01*
X98850002Y-90695338D01*
X98850002Y-90341773D01*
X99203572Y-90341773D01*
X99203572Y-89988207D01*
X99910714Y-89988207D01*
X99910714Y-90341773D01*
G37*
G36*
X96728575Y-92463207D02*
G01*
X95314287Y-92463207D01*
X95314287Y-92109641D01*
X96021428Y-92109641D01*
X96021428Y-90341793D01*
X95314287Y-90341793D01*
X95314287Y-89988207D01*
X96728575Y-89988207D01*
X96728575Y-92463207D01*
G37*
%TD*%
D15*
%TO.C,H5*%
X88900000Y-90805000D03*
D16*
X88900000Y-90805000D03*
%TD*%
D15*
%TO.C,H4*%
X125095000Y-90805000D03*
D16*
X125095000Y-90805000D03*
%TD*%
D15*
%TO.C,H3*%
X125000000Y-73000000D03*
D16*
X125000000Y-73000000D03*
%TD*%
D15*
%TO.C,H2*%
X106680000Y-90805000D03*
D16*
X106680000Y-90805000D03*
%TD*%
%TO.C,H1*%
X88900000Y-73025000D03*
D15*
X88900000Y-73025000D03*
%TD*%
D17*
%TO.C,U3*%
X120460013Y-78740000D03*
X114960140Y-78740000D03*
D18*
X121460013Y-75740000D03*
X118260114Y-75740000D03*
X114759987Y-75740000D03*
X114759987Y-81740000D03*
X118260114Y-81740000D03*
X121460013Y-81740000D03*
%TD*%
D19*
%TO.C,U2*%
X109500000Y-76899987D03*
X109500000Y-80099886D03*
X109500000Y-83600013D03*
X103500000Y-83600013D03*
X103500000Y-80099886D03*
X103500000Y-76899987D03*
D17*
X106500000Y-83399860D03*
X106500000Y-77899987D03*
%TD*%
D20*
%TO.C,R1*%
X97790000Y-84455000D03*
X98810000Y-84455000D03*
%TD*%
D21*
%TO.C,Q1*%
X119380000Y-86360000D03*
X118110000Y-86360000D03*
D22*
X116840000Y-86360000D03*
%TD*%
D20*
%TO.C,R2*%
X112010000Y-85090000D03*
X113030000Y-85090000D03*
%TD*%
D23*
%TO.C,C1*%
X98810000Y-86360000D03*
X99770000Y-86360000D03*
%TD*%
D17*
%TO.C,U1*%
X92900087Y-78740000D03*
X98399960Y-78740000D03*
D18*
X91900087Y-81740000D03*
X95099986Y-81740000D03*
X98600113Y-81740000D03*
X98600113Y-75740000D03*
X95099986Y-75740000D03*
X91900087Y-75740000D03*
%TD*%
%LPD*%
M02*
