%TF.GenerationSoftware,KiCad,Pcbnew,8.0.7+1*%
%TF.CreationDate,2025-02-03T22:01:07+01:00*%
%TF.ProjectId,passiveVCA,70617373-6976-4655-9643-412e6b696361,rev?*%
%TF.SameCoordinates,Original*%
%TF.FileFunction,Copper,L1,Top*%
%TF.FilePolarity,Positive*%
%FSLAX46Y46*%
G04 Gerber Fmt 4.6, Leading zero omitted, Abs format (unit mm)*
G04 Created by KiCad (PCBNEW 8.0.7+1) date 2025-02-03 22:01:07*
%MOMM*%
%LPD*%
G01*
G04 APERTURE LIST*
G04 Aperture macros list*
%AMRoundRect*
0 Rectangle with rounded corners*
0 $1 Rounding radius*
0 $2 $3 $4 $5 $6 $7 $8 $9 X,Y pos of 4 corners*
0 Add a 4 corners polygon primitive as box body*
4,1,4,$2,$3,$4,$5,$6,$7,$8,$9,$2,$3,0*
0 Add four circle primitives for the rounded corners*
1,1,$1+$1,$2,$3*
1,1,$1+$1,$4,$5*
1,1,$1+$1,$6,$7*
1,1,$1+$1,$8,$9*
0 Add four rect primitives between the rounded corners*
20,1,$1+$1,$2,$3,$4,$5,0*
20,1,$1+$1,$4,$5,$6,$7,0*
20,1,$1+$1,$6,$7,$8,$9,0*
20,1,$1+$1,$8,$9,$2,$3,0*%
G04 Aperture macros list end*
%TA.AperFunction,EtchedComponent*%
%ADD10C,0.000000*%
%TD*%
%TA.AperFunction,ComponentPad*%
%ADD11C,2.600000*%
%TD*%
%TA.AperFunction,ConnectorPad*%
%ADD12C,4.400000*%
%TD*%
%TA.AperFunction,ComponentPad*%
%ADD13O,2.300000X1.400000*%
%TD*%
%TA.AperFunction,ComponentPad*%
%ADD14O,1.400000X2.300000*%
%TD*%
%TA.AperFunction,SMDPad,CuDef*%
%ADD15RoundRect,0.135000X-0.135000X-0.185000X0.135000X-0.185000X0.135000X0.185000X-0.135000X0.185000X0*%
%TD*%
%TA.AperFunction,ComponentPad*%
%ADD16O,1.050000X1.500000*%
%TD*%
%TA.AperFunction,ComponentPad*%
%ADD17R,1.050000X1.500000*%
%TD*%
%TA.AperFunction,SMDPad,CuDef*%
%ADD18RoundRect,0.140000X-0.140000X-0.170000X0.140000X-0.170000X0.140000X0.170000X-0.140000X0.170000X0*%
%TD*%
%TA.AperFunction,Conductor*%
%ADD19C,0.200000*%
%TD*%
G04 APERTURE END LIST*
D10*
%TA.AperFunction,EtchedComponent*%
%TO.C,REF\u002A\u002A*%
G36*
X99911426Y-90341793D02*
G01*
X99557855Y-90341793D01*
X99557855Y-90695358D01*
X99204284Y-90695358D01*
X99204284Y-91048924D01*
X98850714Y-91048924D01*
X98850714Y-91402490D01*
X99204284Y-91402490D01*
X99204284Y-91756055D01*
X99557855Y-91756055D01*
X99557855Y-92109621D01*
X99911426Y-92109621D01*
X99911426Y-92463187D01*
X99204284Y-92463187D01*
X99204284Y-92109621D01*
X98850714Y-92109621D01*
X98850714Y-91756055D01*
X98497143Y-91756055D01*
X98497143Y-91402490D01*
X98143572Y-91402490D01*
X98143572Y-91048924D01*
X98497143Y-91048924D01*
X98497143Y-90695358D01*
X98850714Y-90695358D01*
X98850714Y-90341793D01*
X99204284Y-90341793D01*
X99204284Y-89988227D01*
X99911426Y-89988227D01*
X99911426Y-90341793D01*
G37*
%TD.AperFunction*%
%TA.AperFunction,EtchedComponent*%
G36*
X96729287Y-92463227D02*
G01*
X95314999Y-92463227D01*
X95314999Y-92109661D01*
X96022140Y-92109661D01*
X96022140Y-90341813D01*
X95314999Y-90341813D01*
X95314999Y-89988227D01*
X96729287Y-89988227D01*
X96729287Y-92463227D01*
G37*
%TD.AperFunction*%
%TD*%
D11*
%TO.P,H5,1,1*%
%TO.N,GND*%
X88900000Y-90805000D03*
D12*
X88900000Y-90805000D03*
%TD*%
D11*
%TO.P,H4,1,1*%
%TO.N,GND*%
X125095000Y-90805000D03*
D12*
X125095000Y-90805000D03*
%TD*%
D11*
%TO.P,H3,1,1*%
%TO.N,Net-(Q1-E)*%
X125000000Y-73000000D03*
D12*
X125000000Y-73000000D03*
%TD*%
D11*
%TO.P,H2,1,1*%
%TO.N,Net-(H2-Pad1)*%
X106680000Y-90805000D03*
D12*
X106680000Y-90805000D03*
%TD*%
%TO.P,H1,1,1*%
%TO.N,Net-(H1-Pad1)*%
X88900000Y-73025000D03*
D11*
X88900000Y-73025000D03*
%TD*%
D13*
%TO.P,U3,1,1*%
%TO.N,GND*%
X121460013Y-75740000D03*
%TO.P,U3,2,2*%
%TO.N,unconnected-(U3-Pad2)*%
X118260114Y-75740000D03*
%TO.P,U3,3,3*%
%TO.N,Net-(Q1-E)*%
X114759987Y-75740000D03*
X114759987Y-81740000D03*
%TO.P,U3,2,2*%
%TO.N,unconnected-(U3-Pad2)*%
X118260114Y-81740000D03*
%TO.P,U3,1,1*%
%TO.N,GND*%
X121460013Y-81740000D03*
%TD*%
D14*
%TO.P,U2,1,1*%
%TO.N,GND*%
X109500000Y-76899987D03*
%TO.P,U2,2,2*%
%TO.N,unconnected-(U2-Pad2)*%
X109500000Y-80099886D03*
%TO.P,U2,3,3*%
%TO.N,Net-(H2-Pad1)*%
X109500000Y-83600013D03*
X103500000Y-83600013D03*
%TO.P,U2,2,2*%
%TO.N,unconnected-(U2-Pad2)*%
X103500000Y-80099886D03*
%TO.P,U2,1,1*%
%TO.N,GND*%
X103500000Y-76899987D03*
%TD*%
D15*
%TO.P,R1,1*%
%TO.N,Net-(H1-Pad1)*%
X97790000Y-84455000D03*
%TO.P,R1,2*%
%TO.N,Net-(C1-Pad1)*%
X98810000Y-84455000D03*
%TD*%
D16*
%TO.P,Q1,3,E*%
%TO.N,Net-(Q1-E)*%
X119380000Y-86360000D03*
%TO.P,Q1,2,B*%
%TO.N,Net-(Q1-B)*%
X118110000Y-86360000D03*
D17*
%TO.P,Q1,1,C*%
%TO.N,Net-(Q1-C)*%
X116840000Y-86360000D03*
%TD*%
D15*
%TO.P,R2,1*%
%TO.N,Net-(H2-Pad1)*%
X112010000Y-85090000D03*
%TO.P,R2,2*%
%TO.N,Net-(Q1-B)*%
X113030000Y-85090000D03*
%TD*%
D18*
%TO.P,C1,1*%
%TO.N,Net-(C1-Pad1)*%
X98810000Y-86360000D03*
%TO.P,C1,2*%
%TO.N,Net-(Q1-C)*%
X99770000Y-86360000D03*
%TD*%
D13*
%TO.P,U1,1,1*%
%TO.N,GND*%
X91900087Y-81740000D03*
%TO.P,U1,2,2*%
%TO.N,unconnected-(U1-Pad2)*%
X95099986Y-81740000D03*
%TO.P,U1,3,3*%
%TO.N,Net-(H1-Pad1)*%
X98600113Y-81740000D03*
X98600113Y-75740000D03*
%TO.P,U1,2,2*%
%TO.N,unconnected-(U1-Pad2)*%
X95099986Y-75740000D03*
%TO.P,U1,1,1*%
%TO.N,GND*%
X91900087Y-75740000D03*
%TD*%
D19*
%TO.N,Net-(H2-Pad1)*%
X109538300Y-85090000D02*
X109500000Y-85051700D01*
X112010000Y-85090000D02*
X109538300Y-85090000D01*
X109500000Y-83600000D02*
X109500000Y-84800800D01*
X109500000Y-84800800D02*
X109500000Y-85051700D01*
X109249100Y-85051700D02*
X103500000Y-85051700D01*
X109500000Y-84800800D02*
X109249100Y-85051700D01*
X103500000Y-83600000D02*
X103500000Y-85051700D01*
%TO.N,Net-(H1-Pad1)*%
X97148400Y-83813400D02*
X97790000Y-84455000D01*
X97148400Y-81740000D02*
X97148400Y-83813400D01*
X98600100Y-81740000D02*
X97148400Y-81740000D01*
X94433400Y-73025000D02*
X88900000Y-73025000D01*
X97148400Y-75740000D02*
X94433400Y-73025000D01*
X98600100Y-75740000D02*
X97148400Y-75740000D01*
%TO.N,unconnected-(U2-Pad2)*%
X109500000Y-81551600D02*
X103500000Y-81551600D01*
X109500000Y-80099900D02*
X109500000Y-81551600D01*
X103500000Y-80099900D02*
X103500000Y-81551600D01*
%TO.N,Net-(Q1-B)*%
X113248300Y-85308300D02*
X113030000Y-85090000D01*
X118110000Y-85308300D02*
X113248300Y-85308300D01*
X118110000Y-86360000D02*
X118110000Y-85308300D01*
%TO.N,Net-(Q1-E)*%
X118951700Y-73000000D02*
X125000000Y-73000000D01*
X116211700Y-75740000D02*
X118951700Y-73000000D01*
X114760000Y-75740000D02*
X116211700Y-75740000D01*
%TO.N,Net-(Q1-C)*%
X99770000Y-86360000D02*
X116840000Y-86360000D01*
%TO.N,Net-(C1-Pad1)*%
X98810000Y-86360000D02*
X98810000Y-84455000D01*
%TD*%
%TA.AperFunction,Conductor*%
%TO.N,GND*%
G36*
X88060967Y-91521602D02*
G01*
X88183398Y-91644033D01*
X88317262Y-91741290D01*
X87175030Y-92883522D01*
X87175030Y-92883523D01*
X87363423Y-93031118D01*
X87642956Y-93200101D01*
X87642958Y-93200102D01*
X87736993Y-93242424D01*
X87790047Y-93287888D01*
X87810100Y-93354819D01*
X87790784Y-93421965D01*
X87738233Y-93468010D01*
X87686102Y-93479500D01*
X86454642Y-93479500D01*
X86387603Y-93459815D01*
X86366961Y-93443181D01*
X86261819Y-93338039D01*
X86228334Y-93276716D01*
X86225500Y-93250358D01*
X86225500Y-92018898D01*
X86245185Y-91951859D01*
X86297989Y-91906104D01*
X86367147Y-91896160D01*
X86430703Y-91925185D01*
X86462576Y-91968007D01*
X86504897Y-92062041D01*
X86504898Y-92062043D01*
X86673881Y-92341576D01*
X86821476Y-92529968D01*
X87963708Y-91387736D01*
X88060967Y-91521602D01*
G37*
%TD.AperFunction*%
%TA.AperFunction,Conductor*%
G36*
X123796373Y-70370185D02*
G01*
X123842128Y-70422989D01*
X123852072Y-70492147D01*
X123823047Y-70555703D01*
X123780225Y-70587575D01*
X123742721Y-70604455D01*
X123701368Y-70629454D01*
X123463131Y-70773473D01*
X123205960Y-70974954D01*
X122974954Y-71205960D01*
X122773473Y-71463131D01*
X122604454Y-71742723D01*
X122604453Y-71742725D01*
X122574228Y-71809882D01*
X122550767Y-71862012D01*
X122470372Y-72040642D01*
X122470366Y-72040657D01*
X122385692Y-72312390D01*
X122346955Y-72370538D01*
X122282930Y-72398512D01*
X122267307Y-72399500D01*
X119030757Y-72399500D01*
X118872643Y-72399500D01*
X118719915Y-72440423D01*
X118719914Y-72440423D01*
X118719912Y-72440424D01*
X118719909Y-72440425D01*
X118669796Y-72469359D01*
X118669795Y-72469360D01*
X118626497Y-72494358D01*
X118582985Y-72519479D01*
X118582982Y-72519481D01*
X116222788Y-74879676D01*
X116161465Y-74913161D01*
X116091773Y-74908177D01*
X116047426Y-74879676D01*
X115992062Y-74824312D01*
X115992060Y-74824310D01*
X115839186Y-74713240D01*
X115832397Y-74709781D01*
X115670823Y-74627454D01*
X115491105Y-74569059D01*
X115304473Y-74539500D01*
X115304468Y-74539500D01*
X114215506Y-74539500D01*
X114215501Y-74539500D01*
X114028868Y-74569059D01*
X113849150Y-74627454D01*
X113680787Y-74713240D01*
X113593566Y-74776610D01*
X113527914Y-74824310D01*
X113527912Y-74824312D01*
X113527911Y-74824312D01*
X113394299Y-74957924D01*
X113394299Y-74957925D01*
X113394297Y-74957927D01*
X113349625Y-75019413D01*
X113283227Y-75110800D01*
X113197441Y-75279163D01*
X113139046Y-75458881D01*
X113109487Y-75645513D01*
X113109487Y-75834486D01*
X113139046Y-76021118D01*
X113197441Y-76200836D01*
X113268435Y-76340168D01*
X113283227Y-76369199D01*
X113394297Y-76522073D01*
X113527914Y-76655690D01*
X113680788Y-76766760D01*
X113760334Y-76807290D01*
X113849150Y-76852545D01*
X113849152Y-76852545D01*
X113849155Y-76852547D01*
X113945484Y-76883846D01*
X114028868Y-76910940D01*
X114215501Y-76940500D01*
X114215506Y-76940500D01*
X115304473Y-76940500D01*
X115491105Y-76910940D01*
X115555991Y-76889857D01*
X115670819Y-76852547D01*
X115839186Y-76766760D01*
X115992060Y-76655690D01*
X116125677Y-76522073D01*
X116223772Y-76387056D01*
X116279101Y-76344392D01*
X116291979Y-76340173D01*
X116443485Y-76299577D01*
X116493604Y-76270639D01*
X116565528Y-76229114D01*
X116633428Y-76212644D01*
X116699454Y-76235497D01*
X116738010Y-76280207D01*
X116783354Y-76369199D01*
X116894424Y-76522073D01*
X117028041Y-76655690D01*
X117180915Y-76766760D01*
X117260461Y-76807290D01*
X117349277Y-76852545D01*
X117349279Y-76852545D01*
X117349282Y-76852547D01*
X117445611Y-76883846D01*
X117528995Y-76910940D01*
X117715628Y-76940500D01*
X117715633Y-76940500D01*
X118804600Y-76940500D01*
X118991232Y-76910940D01*
X119056118Y-76889857D01*
X119170946Y-76852547D01*
X119339313Y-76766760D01*
X119492187Y-76655690D01*
X119625804Y-76522073D01*
X119736874Y-76369199D01*
X119749859Y-76343713D01*
X119797832Y-76292918D01*
X119865652Y-76276122D01*
X119931788Y-76298658D01*
X119970829Y-76343714D01*
X119983681Y-76368938D01*
X120094698Y-76521741D01*
X120094702Y-76521746D01*
X120228266Y-76655310D01*
X120228271Y-76655314D01*
X120381072Y-76766329D01*
X120549375Y-76852085D01*
X120729010Y-76910451D01*
X120915566Y-76940000D01*
X121210013Y-76940000D01*
X121210013Y-76140000D01*
X121710013Y-76140000D01*
X121710013Y-76940000D01*
X122004460Y-76940000D01*
X122191015Y-76910451D01*
X122370650Y-76852085D01*
X122538953Y-76766329D01*
X122691754Y-76655314D01*
X122691759Y-76655310D01*
X122825323Y-76521746D01*
X122825327Y-76521741D01*
X122936342Y-76368940D01*
X123022098Y-76200637D01*
X123080464Y-76021002D01*
X123085375Y-75990000D01*
X122125699Y-75990000D01*
X122130093Y-75985606D01*
X122182754Y-75894394D01*
X122210013Y-75792661D01*
X122210013Y-75687339D01*
X122182754Y-75585606D01*
X122130093Y-75494394D01*
X122125699Y-75490000D01*
X123085375Y-75490000D01*
X123080464Y-75458997D01*
X123022098Y-75279362D01*
X122936342Y-75111059D01*
X122917569Y-75085219D01*
X122894089Y-75019413D01*
X122909915Y-74951359D01*
X122960020Y-74902664D01*
X123028498Y-74888789D01*
X123093607Y-74914138D01*
X123105568Y-74924653D01*
X123205960Y-75025045D01*
X123463131Y-75226526D01*
X123463134Y-75226528D01*
X123463137Y-75226530D01*
X123742721Y-75395545D01*
X124040639Y-75529627D01*
X124040652Y-75529631D01*
X124040657Y-75529633D01*
X124352547Y-75626821D01*
X124673896Y-75685710D01*
X125000000Y-75705436D01*
X125326104Y-75685710D01*
X125647453Y-75626821D01*
X125959361Y-75529627D01*
X126257279Y-75395545D01*
X126536863Y-75226530D01*
X126794036Y-75025048D01*
X127025048Y-74794036D01*
X127226530Y-74536863D01*
X127395545Y-74257279D01*
X127529627Y-73959361D01*
X127529628Y-73959354D01*
X127531164Y-73955944D01*
X127531997Y-73956319D01*
X127571739Y-73903837D01*
X127637338Y-73879782D01*
X127705527Y-73895011D01*
X127754659Y-73944689D01*
X127769500Y-74003513D01*
X127769500Y-89591101D01*
X127749815Y-89658140D01*
X127697011Y-89703895D01*
X127627853Y-89713839D01*
X127564297Y-89684814D01*
X127532424Y-89641992D01*
X127490103Y-89547958D01*
X127490101Y-89547956D01*
X127321118Y-89268423D01*
X127173522Y-89080030D01*
X126031290Y-90222262D01*
X125934033Y-90088398D01*
X125811602Y-89965967D01*
X125677736Y-89868709D01*
X126819968Y-88726476D01*
X126631576Y-88578881D01*
X126352043Y-88409898D01*
X126352041Y-88409897D01*
X126054175Y-88275839D01*
X126054164Y-88275835D01*
X125742341Y-88178667D01*
X125421038Y-88119786D01*
X125095000Y-88100065D01*
X124768961Y-88119786D01*
X124447658Y-88178667D01*
X124135835Y-88275835D01*
X124135824Y-88275839D01*
X123837958Y-88409897D01*
X123837956Y-88409898D01*
X123558422Y-88578881D01*
X123558416Y-88578886D01*
X123370030Y-88726474D01*
X123370029Y-88726476D01*
X124512262Y-89868709D01*
X124378398Y-89965967D01*
X124255967Y-90088398D01*
X124158709Y-90222262D01*
X123016476Y-89080029D01*
X123016474Y-89080030D01*
X122868886Y-89268416D01*
X122868881Y-89268422D01*
X122699898Y-89547956D01*
X122699897Y-89547958D01*
X122565839Y-89845824D01*
X122565835Y-89845835D01*
X122468667Y-90157658D01*
X122409786Y-90478961D01*
X122390065Y-90805000D01*
X122409786Y-91131038D01*
X122468667Y-91452341D01*
X122565835Y-91764164D01*
X122565839Y-91764175D01*
X122699897Y-92062041D01*
X122699898Y-92062043D01*
X122868881Y-92341576D01*
X123016476Y-92529968D01*
X124158708Y-91387736D01*
X124255967Y-91521602D01*
X124378398Y-91644033D01*
X124512262Y-91741290D01*
X123370030Y-92883522D01*
X123370030Y-92883523D01*
X123558423Y-93031118D01*
X123837956Y-93200101D01*
X123837958Y-93200102D01*
X123931993Y-93242424D01*
X123985047Y-93287888D01*
X124005100Y-93354819D01*
X123985784Y-93421965D01*
X123933233Y-93468010D01*
X123881102Y-93479500D01*
X107895118Y-93479500D01*
X107828079Y-93459815D01*
X107782324Y-93407011D01*
X107772380Y-93337853D01*
X107801405Y-93274297D01*
X107844225Y-93242424D01*
X107937279Y-93200545D01*
X108216863Y-93031530D01*
X108474036Y-92830048D01*
X108705048Y-92599036D01*
X108906530Y-92341863D01*
X109075545Y-92062279D01*
X109209627Y-91764361D01*
X109306821Y-91452453D01*
X109365710Y-91131104D01*
X109385436Y-90805000D01*
X109365710Y-90478896D01*
X109306821Y-90157547D01*
X109245189Y-89959762D01*
X109209633Y-89845657D01*
X109209631Y-89845652D01*
X109209627Y-89845639D01*
X109075545Y-89547721D01*
X108906530Y-89268137D01*
X108906528Y-89268134D01*
X108906526Y-89268131D01*
X108705045Y-89010960D01*
X108474039Y-88779954D01*
X108216868Y-88578473D01*
X108209306Y-88573901D01*
X107937279Y-88409455D01*
X107639361Y-88275373D01*
X107639354Y-88275370D01*
X107639342Y-88275366D01*
X107327452Y-88178178D01*
X107006099Y-88119289D01*
X106680000Y-88099564D01*
X106353900Y-88119289D01*
X106032547Y-88178178D01*
X105720657Y-88275366D01*
X105720641Y-88275372D01*
X105720639Y-88275373D01*
X105422721Y-88409455D01*
X105352825Y-88451708D01*
X105143131Y-88578473D01*
X104885960Y-88779954D01*
X104654954Y-89010960D01*
X104453473Y-89268131D01*
X104284454Y-89547723D01*
X104284453Y-89547725D01*
X104258137Y-89606198D01*
X104180711Y-89778232D01*
X104150372Y-89845642D01*
X104150366Y-89845657D01*
X104053178Y-90157547D01*
X103994289Y-90478900D01*
X103974564Y-90805000D01*
X103994289Y-91131099D01*
X104053178Y-91452452D01*
X104150366Y-91764342D01*
X104150370Y-91764354D01*
X104150373Y-91764361D01*
X104284455Y-92062279D01*
X104429568Y-92302325D01*
X104453473Y-92341868D01*
X104654954Y-92599039D01*
X104885960Y-92830045D01*
X105143131Y-93031526D01*
X105143134Y-93031528D01*
X105143137Y-93031530D01*
X105422721Y-93200545D01*
X105515773Y-93242424D01*
X105568828Y-93287888D01*
X105588880Y-93354819D01*
X105569564Y-93421965D01*
X105517012Y-93468010D01*
X105464882Y-93479500D01*
X90113898Y-93479500D01*
X90046859Y-93459815D01*
X90001104Y-93407011D01*
X89991160Y-93337853D01*
X90020185Y-93274297D01*
X90063007Y-93242424D01*
X90157041Y-93200102D01*
X90157043Y-93200101D01*
X90436586Y-93031112D01*
X90624968Y-92883523D01*
X90624968Y-92883522D01*
X89482736Y-91741290D01*
X89616602Y-91644033D01*
X89739033Y-91521602D01*
X89836290Y-91387736D01*
X90978522Y-92529968D01*
X90978523Y-92529968D01*
X91126112Y-92341586D01*
X91295101Y-92062043D01*
X91295102Y-92062041D01*
X91429160Y-91764175D01*
X91429164Y-91764164D01*
X91526332Y-91452341D01*
X91585213Y-91131038D01*
X91604934Y-90805000D01*
X91585213Y-90478961D01*
X91526332Y-90157658D01*
X91473535Y-89988226D01*
X94809499Y-89988226D01*
X94809499Y-90341815D01*
X94814643Y-90413753D01*
X94843337Y-90511473D01*
X94853891Y-90547416D01*
X94855181Y-90551807D01*
X94932966Y-90672843D01*
X94932970Y-90672847D01*
X95041699Y-90767062D01*
X95041705Y-90767067D01*
X95060462Y-90775633D01*
X95172579Y-90826836D01*
X95172582Y-90826836D01*
X95172583Y-90826837D01*
X95314999Y-90847313D01*
X95392640Y-90847313D01*
X95459679Y-90866998D01*
X95505434Y-90919802D01*
X95516640Y-90971313D01*
X95516640Y-91480161D01*
X95496955Y-91547200D01*
X95444151Y-91592955D01*
X95392640Y-91604161D01*
X95314996Y-91604161D01*
X95243058Y-91609305D01*
X95105004Y-91649843D01*
X94983968Y-91727628D01*
X94983964Y-91727632D01*
X94889749Y-91836361D01*
X94889743Y-91836370D01*
X94829975Y-91967241D01*
X94829974Y-91967246D01*
X94809499Y-92109660D01*
X94809499Y-92463229D01*
X94814643Y-92535167D01*
X94840665Y-92623787D01*
X94855169Y-92673182D01*
X94855181Y-92673221D01*
X94932966Y-92794257D01*
X94932970Y-92794261D01*
X95035982Y-92883522D01*
X95041705Y-92888481D01*
X95082173Y-92906962D01*
X95172579Y-92948250D01*
X95172582Y-92948250D01*
X95172583Y-92948251D01*
X95314999Y-92968727D01*
X95315002Y-92968727D01*
X96729287Y-92968727D01*
X96801227Y-92963582D01*
X96939279Y-92923046D01*
X97060319Y-92845258D01*
X97154541Y-92736521D01*
X97214311Y-92605643D01*
X97234787Y-92463227D01*
X97234787Y-91048923D01*
X97638072Y-91048923D01*
X97638072Y-91402492D01*
X97643216Y-91474430D01*
X97671910Y-91572150D01*
X97682820Y-91609306D01*
X97683754Y-91612484D01*
X97761539Y-91733520D01*
X97761543Y-91733524D01*
X97813552Y-91778590D01*
X97870278Y-91827744D01*
X97870282Y-91827746D01*
X97870284Y-91827747D01*
X97964782Y-91870903D01*
X98017586Y-91916657D01*
X98032247Y-91948758D01*
X98037323Y-91966044D01*
X98037326Y-91966050D01*
X98115110Y-92087085D01*
X98115114Y-92087089D01*
X98223843Y-92181304D01*
X98223849Y-92181309D01*
X98223853Y-92181311D01*
X98223855Y-92181312D01*
X98318353Y-92224468D01*
X98371157Y-92270222D01*
X98385818Y-92302325D01*
X98390892Y-92319607D01*
X98390897Y-92319616D01*
X98468681Y-92440651D01*
X98468685Y-92440655D01*
X98494737Y-92463229D01*
X98577420Y-92534875D01*
X98671925Y-92578034D01*
X98724727Y-92623787D01*
X98739389Y-92655891D01*
X98744465Y-92673178D01*
X98744467Y-92673182D01*
X98822251Y-92794217D01*
X98822255Y-92794221D01*
X98881156Y-92845259D01*
X98930990Y-92888441D01*
X98971458Y-92906922D01*
X99061864Y-92948210D01*
X99061867Y-92948210D01*
X99061868Y-92948211D01*
X99204284Y-92968687D01*
X99204287Y-92968687D01*
X99911426Y-92968687D01*
X99983366Y-92963542D01*
X100121418Y-92923006D01*
X100242458Y-92845218D01*
X100336680Y-92736481D01*
X100388146Y-92623787D01*
X100396449Y-92605606D01*
X100396450Y-92605601D01*
X100416926Y-92463187D01*
X100416926Y-92109621D01*
X100411781Y-92037681D01*
X100371245Y-91899629D01*
X100325044Y-91827739D01*
X100293458Y-91778590D01*
X100293454Y-91778586D01*
X100184725Y-91684371D01*
X100184723Y-91684370D01*
X100184720Y-91684367D01*
X100152243Y-91669535D01*
X100090214Y-91641207D01*
X100037410Y-91595452D01*
X100022749Y-91563347D01*
X100017675Y-91546066D01*
X100017674Y-91546065D01*
X100017674Y-91546063D01*
X99939886Y-91425023D01*
X99939883Y-91425020D01*
X99831151Y-91330802D01*
X99825177Y-91326963D01*
X99779422Y-91274159D01*
X99769479Y-91205000D01*
X99798505Y-91141445D01*
X99825175Y-91118333D01*
X99888887Y-91077389D01*
X99983109Y-90968652D01*
X100026265Y-90874151D01*
X100072018Y-90821351D01*
X100104120Y-90806690D01*
X100121418Y-90801612D01*
X100242458Y-90723824D01*
X100336680Y-90615087D01*
X100396450Y-90484209D01*
X100416926Y-90341793D01*
X100416926Y-89988227D01*
X100411781Y-89916287D01*
X100371245Y-89778235D01*
X100324180Y-89705000D01*
X100293458Y-89657196D01*
X100293454Y-89657192D01*
X100184725Y-89562977D01*
X100184723Y-89562975D01*
X100184720Y-89562973D01*
X100184716Y-89562971D01*
X100053845Y-89503203D01*
X100053840Y-89503202D01*
X99911426Y-89482727D01*
X99204284Y-89482727D01*
X99204281Y-89482727D01*
X99132343Y-89487871D01*
X98994289Y-89528409D01*
X98873253Y-89606194D01*
X98873249Y-89606198D01*
X98779034Y-89714927D01*
X98779028Y-89714936D01*
X98735874Y-89809431D01*
X98690119Y-89862235D01*
X98658017Y-89876895D01*
X98640727Y-89881972D01*
X98640718Y-89881976D01*
X98519683Y-89959760D01*
X98519679Y-89959764D01*
X98425464Y-90068493D01*
X98425457Y-90068503D01*
X98382304Y-90162995D01*
X98336549Y-90215799D01*
X98304450Y-90230459D01*
X98287152Y-90235538D01*
X98287147Y-90235541D01*
X98166112Y-90313325D01*
X98166108Y-90313329D01*
X98071893Y-90422058D01*
X98071887Y-90422068D01*
X98028733Y-90516561D01*
X97982978Y-90569365D01*
X97950879Y-90584025D01*
X97933581Y-90589104D01*
X97933576Y-90589107D01*
X97812541Y-90666891D01*
X97812537Y-90666895D01*
X97718322Y-90775624D01*
X97718316Y-90775633D01*
X97658548Y-90906504D01*
X97658547Y-90906509D01*
X97638072Y-91048923D01*
X97234787Y-91048923D01*
X97234787Y-89988227D01*
X97229642Y-89916287D01*
X97189106Y-89778235D01*
X97142041Y-89705000D01*
X97111319Y-89657196D01*
X97111315Y-89657192D01*
X97002586Y-89562977D01*
X97002584Y-89562975D01*
X97002581Y-89562973D01*
X97002577Y-89562971D01*
X96871706Y-89503203D01*
X96871701Y-89503202D01*
X96729287Y-89482727D01*
X95314999Y-89482727D01*
X95314996Y-89482727D01*
X95243058Y-89487871D01*
X95105004Y-89528409D01*
X94983968Y-89606194D01*
X94983964Y-89606198D01*
X94889749Y-89714927D01*
X94889743Y-89714936D01*
X94829975Y-89845807D01*
X94829974Y-89845812D01*
X94809499Y-89988226D01*
X91473535Y-89988226D01*
X91429164Y-89845835D01*
X91429160Y-89845824D01*
X91295102Y-89547958D01*
X91295101Y-89547956D01*
X91126118Y-89268423D01*
X90978522Y-89080030D01*
X89836290Y-90222262D01*
X89739033Y-90088398D01*
X89616602Y-89965967D01*
X89482736Y-89868709D01*
X90624968Y-88726476D01*
X90436576Y-88578881D01*
X90157043Y-88409898D01*
X90157041Y-88409897D01*
X89859175Y-88275839D01*
X89859164Y-88275835D01*
X89547341Y-88178667D01*
X89226038Y-88119786D01*
X88900000Y-88100065D01*
X88573961Y-88119786D01*
X88252658Y-88178667D01*
X87940835Y-88275835D01*
X87940824Y-88275839D01*
X87642958Y-88409897D01*
X87642956Y-88409898D01*
X87363422Y-88578881D01*
X87363416Y-88578886D01*
X87175030Y-88726474D01*
X87175029Y-88726476D01*
X88317262Y-89868709D01*
X88183398Y-89965967D01*
X88060967Y-90088398D01*
X87963709Y-90222262D01*
X86821476Y-89080029D01*
X86821474Y-89080030D01*
X86673886Y-89268416D01*
X86673881Y-89268422D01*
X86504898Y-89547956D01*
X86504896Y-89547958D01*
X86462576Y-89641992D01*
X86417111Y-89695047D01*
X86350181Y-89715099D01*
X86283034Y-89695783D01*
X86236990Y-89643231D01*
X86225500Y-89591101D01*
X86225500Y-81490000D01*
X90274725Y-81490000D01*
X91234401Y-81490000D01*
X91230007Y-81494394D01*
X91177346Y-81585606D01*
X91150087Y-81687339D01*
X91150087Y-81792661D01*
X91177346Y-81894394D01*
X91230007Y-81985606D01*
X91234401Y-81990000D01*
X90274725Y-81990000D01*
X90279635Y-82021002D01*
X90338001Y-82200637D01*
X90423757Y-82368940D01*
X90534772Y-82521741D01*
X90534776Y-82521746D01*
X90668340Y-82655310D01*
X90668345Y-82655314D01*
X90821146Y-82766329D01*
X90989449Y-82852085D01*
X91169084Y-82910451D01*
X91355640Y-82940000D01*
X91650087Y-82940000D01*
X91650087Y-82140000D01*
X92150087Y-82140000D01*
X92150087Y-82940000D01*
X92444534Y-82940000D01*
X92631089Y-82910451D01*
X92810724Y-82852085D01*
X92979027Y-82766329D01*
X93131828Y-82655314D01*
X93131833Y-82655310D01*
X93265397Y-82521746D01*
X93265401Y-82521741D01*
X93376416Y-82368941D01*
X93389268Y-82343717D01*
X93437241Y-82292919D01*
X93505062Y-82276122D01*
X93571197Y-82298657D01*
X93610239Y-82343712D01*
X93623224Y-82369196D01*
X93623226Y-82369199D01*
X93734296Y-82522073D01*
X93867913Y-82655690D01*
X94020787Y-82766760D01*
X94100333Y-82807290D01*
X94189149Y-82852545D01*
X94189151Y-82852545D01*
X94189154Y-82852547D01*
X94285483Y-82883846D01*
X94368867Y-82910940D01*
X94555500Y-82940500D01*
X94555505Y-82940500D01*
X95644472Y-82940500D01*
X95831104Y-82910940D01*
X95857812Y-82902262D01*
X96010818Y-82852547D01*
X96179185Y-82766760D01*
X96332059Y-82655690D01*
X96336219Y-82651530D01*
X96397542Y-82618045D01*
X96467234Y-82623029D01*
X96523167Y-82664901D01*
X96547584Y-82730365D01*
X96547900Y-82739211D01*
X96547900Y-83726730D01*
X96547899Y-83726748D01*
X96547899Y-83892454D01*
X96547898Y-83892454D01*
X96547899Y-83892457D01*
X96580897Y-84015607D01*
X96588824Y-84045187D01*
X96602869Y-84069513D01*
X96602870Y-84069515D01*
X96667877Y-84182112D01*
X96667881Y-84182117D01*
X96786749Y-84300985D01*
X96786755Y-84300990D01*
X96983181Y-84497416D01*
X97016666Y-84558739D01*
X97019500Y-84585096D01*
X97019500Y-84704168D01*
X97019501Y-84704192D01*
X97022335Y-84740205D01*
X97067129Y-84894388D01*
X97067131Y-84894393D01*
X97148863Y-85032595D01*
X97148869Y-85032603D01*
X97262396Y-85146130D01*
X97262400Y-85146133D01*
X97262402Y-85146135D01*
X97400607Y-85227869D01*
X97424013Y-85234669D01*
X97554791Y-85272664D01*
X97554794Y-85272664D01*
X97554796Y-85272665D01*
X97590819Y-85275500D01*
X97989180Y-85275499D01*
X98025204Y-85272665D01*
X98050905Y-85265198D01*
X98120773Y-85265397D01*
X98179444Y-85303338D01*
X98208288Y-85366976D01*
X98209500Y-85384274D01*
X98209500Y-85693333D01*
X98189815Y-85760372D01*
X98173181Y-85781014D01*
X98159887Y-85794307D01*
X98159881Y-85794315D01*
X98077505Y-85933606D01*
X98077504Y-85933609D01*
X98032357Y-86089002D01*
X98032356Y-86089008D01*
X98029500Y-86125302D01*
X98029500Y-86594697D01*
X98032356Y-86630991D01*
X98032357Y-86630997D01*
X98077504Y-86786390D01*
X98077505Y-86786393D01*
X98159881Y-86925684D01*
X98159887Y-86925692D01*
X98274307Y-87040112D01*
X98274311Y-87040115D01*
X98274313Y-87040117D01*
X98413605Y-87122494D01*
X98454587Y-87134400D01*
X98569002Y-87167642D01*
X98569005Y-87167642D01*
X98569007Y-87167643D01*
X98605310Y-87170500D01*
X98605318Y-87170500D01*
X99014682Y-87170500D01*
X99014690Y-87170500D01*
X99050993Y-87167643D01*
X99050995Y-87167642D01*
X99050997Y-87167642D01*
X99091975Y-87155736D01*
X99206395Y-87122494D01*
X99226879Y-87110379D01*
X99294601Y-87093196D01*
X99353119Y-87110379D01*
X99373605Y-87122494D01*
X99373607Y-87122494D01*
X99373608Y-87122495D01*
X99529002Y-87167642D01*
X99529005Y-87167642D01*
X99529007Y-87167643D01*
X99565310Y-87170500D01*
X99565318Y-87170500D01*
X99974682Y-87170500D01*
X99974690Y-87170500D01*
X100010993Y-87167643D01*
X100010995Y-87167642D01*
X100010997Y-87167642D01*
X100051975Y-87155736D01*
X100166395Y-87122494D01*
X100305687Y-87040117D01*
X100348984Y-86996820D01*
X100410307Y-86963334D01*
X100436666Y-86960500D01*
X115690501Y-86960500D01*
X115757540Y-86980185D01*
X115803295Y-87032989D01*
X115814501Y-87084500D01*
X115814501Y-87157876D01*
X115820908Y-87217483D01*
X115871202Y-87352328D01*
X115871206Y-87352335D01*
X115957452Y-87467544D01*
X115957455Y-87467547D01*
X116072664Y-87553793D01*
X116072671Y-87553797D01*
X116207517Y-87604091D01*
X116207516Y-87604091D01*
X116214444Y-87604835D01*
X116267127Y-87610500D01*
X117412872Y-87610499D01*
X117472483Y-87604091D01*
X117607331Y-87553796D01*
X117608430Y-87552972D01*
X117609717Y-87552492D01*
X117615112Y-87549547D01*
X117615535Y-87550322D01*
X117673887Y-87528552D01*
X117730198Y-87537673D01*
X117810873Y-87571091D01*
X117976777Y-87604091D01*
X118008992Y-87610499D01*
X118008996Y-87610500D01*
X118008997Y-87610500D01*
X118211004Y-87610500D01*
X118211005Y-87610499D01*
X118409127Y-87571091D01*
X118595756Y-87493786D01*
X118676110Y-87440094D01*
X118742786Y-87419217D01*
X118810166Y-87437701D01*
X118813865Y-87440078D01*
X118894244Y-87493786D01*
X119080873Y-87571091D01*
X119246777Y-87604091D01*
X119278992Y-87610499D01*
X119278996Y-87610500D01*
X119278997Y-87610500D01*
X119481004Y-87610500D01*
X119481005Y-87610499D01*
X119679127Y-87571091D01*
X119865756Y-87493786D01*
X120033718Y-87381558D01*
X120176558Y-87238718D01*
X120288786Y-87070756D01*
X120366091Y-86884127D01*
X120405500Y-86686003D01*
X120405500Y-86033997D01*
X120366091Y-85835873D01*
X120288786Y-85649244D01*
X120288784Y-85649241D01*
X120288782Y-85649237D01*
X120176558Y-85481281D01*
X120033718Y-85338441D01*
X119865762Y-85226217D01*
X119865752Y-85226212D01*
X119679127Y-85148909D01*
X119679119Y-85148907D01*
X119481007Y-85109500D01*
X119481003Y-85109500D01*
X119278997Y-85109500D01*
X119278992Y-85109500D01*
X119080880Y-85148907D01*
X119080872Y-85148909D01*
X118894243Y-85226213D01*
X118881589Y-85234669D01*
X118814910Y-85255545D01*
X118747531Y-85237058D01*
X118700842Y-85185078D01*
X118692928Y-85163663D01*
X118669577Y-85076516D01*
X118644220Y-85032596D01*
X118590524Y-84939590D01*
X118590518Y-84939582D01*
X118478717Y-84827781D01*
X118478709Y-84827775D01*
X118341790Y-84748726D01*
X118341786Y-84748724D01*
X118341784Y-84748723D01*
X118189057Y-84707800D01*
X118189056Y-84707800D01*
X113857421Y-84707800D01*
X113790382Y-84688115D01*
X113750689Y-84646921D01*
X113714126Y-84585096D01*
X113671135Y-84512402D01*
X113671133Y-84512400D01*
X113671130Y-84512396D01*
X113557603Y-84398869D01*
X113557595Y-84398863D01*
X113419393Y-84317131D01*
X113419388Y-84317129D01*
X113265208Y-84272335D01*
X113265202Y-84272334D01*
X113229181Y-84269500D01*
X112830830Y-84269500D01*
X112830808Y-84269501D01*
X112794794Y-84272335D01*
X112640611Y-84317129D01*
X112640604Y-84317132D01*
X112583119Y-84351128D01*
X112515395Y-84368309D01*
X112456881Y-84351128D01*
X112399395Y-84317132D01*
X112399388Y-84317129D01*
X112245208Y-84272335D01*
X112245202Y-84272334D01*
X112209181Y-84269500D01*
X111810830Y-84269500D01*
X111810808Y-84269501D01*
X111774794Y-84272335D01*
X111620611Y-84317129D01*
X111620606Y-84317131D01*
X111482404Y-84398863D01*
X111482400Y-84398866D01*
X111464256Y-84417011D01*
X111428084Y-84453182D01*
X111366764Y-84486666D01*
X111340405Y-84489500D01*
X110790154Y-84489500D01*
X110723115Y-84469815D01*
X110677360Y-84417011D01*
X110667416Y-84347853D01*
X110670180Y-84335956D01*
X110669803Y-84335866D01*
X110670936Y-84331142D01*
X110670940Y-84331131D01*
X110689201Y-84215837D01*
X110700500Y-84144499D01*
X110700500Y-83055526D01*
X110670940Y-82868894D01*
X110628803Y-82739211D01*
X110612547Y-82689181D01*
X110612545Y-82689178D01*
X110612545Y-82689176D01*
X110558895Y-82583883D01*
X110526760Y-82520814D01*
X110415690Y-82367940D01*
X110282073Y-82234323D01*
X110129199Y-82123253D01*
X110108568Y-82112741D01*
X110040209Y-82077910D01*
X109989413Y-82029935D01*
X109972618Y-81962114D01*
X109989117Y-81905425D01*
X109995486Y-81894394D01*
X110059577Y-81783384D01*
X110096519Y-81645513D01*
X113109487Y-81645513D01*
X113109487Y-81834486D01*
X113139046Y-82021118D01*
X113197441Y-82200836D01*
X113277166Y-82357303D01*
X113283227Y-82369199D01*
X113394297Y-82522073D01*
X113527914Y-82655690D01*
X113680788Y-82766760D01*
X113760334Y-82807290D01*
X113849150Y-82852545D01*
X113849152Y-82852545D01*
X113849155Y-82852547D01*
X113945484Y-82883846D01*
X114028868Y-82910940D01*
X114215501Y-82940500D01*
X114215506Y-82940500D01*
X115304473Y-82940500D01*
X115491105Y-82910940D01*
X115517813Y-82902262D01*
X115670819Y-82852547D01*
X115839186Y-82766760D01*
X115992060Y-82655690D01*
X116125677Y-82522073D01*
X116236747Y-82369199D01*
X116322534Y-82200832D01*
X116380927Y-82021118D01*
X116387577Y-81979127D01*
X116417505Y-81915995D01*
X116476816Y-81879064D01*
X116546679Y-81880060D01*
X116604912Y-81918670D01*
X116632523Y-81979128D01*
X116639174Y-82021119D01*
X116697568Y-82200836D01*
X116777293Y-82357303D01*
X116783354Y-82369199D01*
X116894424Y-82522073D01*
X117028041Y-82655690D01*
X117180915Y-82766760D01*
X117260461Y-82807290D01*
X117349277Y-82852545D01*
X117349279Y-82852545D01*
X117349282Y-82852547D01*
X117445611Y-82883846D01*
X117528995Y-82910940D01*
X117715628Y-82940500D01*
X117715633Y-82940500D01*
X118804600Y-82940500D01*
X118991232Y-82910940D01*
X119017940Y-82902262D01*
X119170946Y-82852547D01*
X119339313Y-82766760D01*
X119492187Y-82655690D01*
X119625804Y-82522073D01*
X119736874Y-82369199D01*
X119749859Y-82343713D01*
X119797832Y-82292918D01*
X119865652Y-82276122D01*
X119931788Y-82298658D01*
X119970829Y-82343714D01*
X119983681Y-82368938D01*
X120094698Y-82521741D01*
X120094702Y-82521746D01*
X120228266Y-82655310D01*
X120228271Y-82655314D01*
X120381072Y-82766329D01*
X120549375Y-82852085D01*
X120729010Y-82910451D01*
X120915566Y-82940000D01*
X121210013Y-82940000D01*
X121210013Y-82140000D01*
X121710013Y-82140000D01*
X121710013Y-82940000D01*
X122004460Y-82940000D01*
X122191015Y-82910451D01*
X122370650Y-82852085D01*
X122538953Y-82766329D01*
X122691754Y-82655314D01*
X122691759Y-82655310D01*
X122825323Y-82521746D01*
X122825327Y-82521741D01*
X122936342Y-82368940D01*
X123022098Y-82200637D01*
X123080464Y-82021002D01*
X123085375Y-81990000D01*
X122125699Y-81990000D01*
X122130093Y-81985606D01*
X122182754Y-81894394D01*
X122210013Y-81792661D01*
X122210013Y-81687339D01*
X122182754Y-81585606D01*
X122130093Y-81494394D01*
X122125699Y-81490000D01*
X123085375Y-81490000D01*
X123080464Y-81458997D01*
X123022098Y-81279362D01*
X122936342Y-81111059D01*
X122825327Y-80958258D01*
X122825323Y-80958253D01*
X122691759Y-80824689D01*
X122691754Y-80824685D01*
X122538953Y-80713670D01*
X122370650Y-80627914D01*
X122191015Y-80569548D01*
X122004460Y-80540000D01*
X121710013Y-80540000D01*
X121710013Y-81340000D01*
X121210013Y-81340000D01*
X121210013Y-80540000D01*
X120915566Y-80540000D01*
X120729010Y-80569548D01*
X120549375Y-80627914D01*
X120381072Y-80713670D01*
X120228271Y-80824685D01*
X120228266Y-80824689D01*
X120094702Y-80958253D01*
X120094698Y-80958258D01*
X119983681Y-81111061D01*
X119970828Y-81136287D01*
X119922853Y-81187082D01*
X119855032Y-81203877D01*
X119788897Y-81181339D01*
X119749859Y-81136286D01*
X119737005Y-81111059D01*
X119736874Y-81110801D01*
X119625804Y-80957927D01*
X119492187Y-80824310D01*
X119339313Y-80713240D01*
X119170950Y-80627454D01*
X118991232Y-80569059D01*
X118804600Y-80539500D01*
X118804595Y-80539500D01*
X117715633Y-80539500D01*
X117715628Y-80539500D01*
X117528995Y-80569059D01*
X117349277Y-80627454D01*
X117180914Y-80713240D01*
X117093693Y-80776610D01*
X117028041Y-80824310D01*
X117028039Y-80824312D01*
X117028038Y-80824312D01*
X116894426Y-80957924D01*
X116894426Y-80957925D01*
X116894424Y-80957927D01*
X116894184Y-80958258D01*
X116783354Y-81110800D01*
X116697568Y-81279163D01*
X116639174Y-81458880D01*
X116632523Y-81500871D01*
X116602593Y-81564006D01*
X116543281Y-81600936D01*
X116473418Y-81599938D01*
X116415186Y-81561327D01*
X116387577Y-81500871D01*
X116380927Y-81458882D01*
X116368267Y-81419920D01*
X116351157Y-81367259D01*
X116322534Y-81279168D01*
X116322532Y-81279165D01*
X116322532Y-81279163D01*
X116249733Y-81136288D01*
X116236747Y-81110801D01*
X116125677Y-80957927D01*
X115992060Y-80824310D01*
X115839186Y-80713240D01*
X115670823Y-80627454D01*
X115491105Y-80569059D01*
X115304473Y-80539500D01*
X115304468Y-80539500D01*
X114215506Y-80539500D01*
X114215501Y-80539500D01*
X114028868Y-80569059D01*
X113849150Y-80627454D01*
X113680787Y-80713240D01*
X113593566Y-80776610D01*
X113527914Y-80824310D01*
X113527912Y-80824312D01*
X113527911Y-80824312D01*
X113394299Y-80957924D01*
X113394299Y-80957925D01*
X113394297Y-80957927D01*
X113394057Y-80958258D01*
X113283227Y-81110800D01*
X113197441Y-81279163D01*
X113139046Y-81458881D01*
X113109487Y-81645513D01*
X110096519Y-81645513D01*
X110100169Y-81631891D01*
X110136532Y-81572235D01*
X110147041Y-81563682D01*
X110282073Y-81465576D01*
X110415690Y-81331959D01*
X110526760Y-81179085D01*
X110612547Y-81010718D01*
X110670940Y-80831004D01*
X110689592Y-80713240D01*
X110700500Y-80644372D01*
X110700500Y-79555399D01*
X110670940Y-79368767D01*
X110612545Y-79189049D01*
X110567290Y-79100233D01*
X110526760Y-79020687D01*
X110415690Y-78867813D01*
X110282073Y-78734196D01*
X110147648Y-78636530D01*
X113909640Y-78636530D01*
X113909640Y-78843469D01*
X113950008Y-79046412D01*
X113950010Y-79046420D01*
X114029198Y-79237596D01*
X114144164Y-79409657D01*
X114290482Y-79555975D01*
X114290485Y-79555977D01*
X114462542Y-79670941D01*
X114653720Y-79750130D01*
X114856670Y-79790499D01*
X114856674Y-79790500D01*
X114856675Y-79790500D01*
X115063606Y-79790500D01*
X115063607Y-79790499D01*
X115266560Y-79750130D01*
X115457738Y-79670941D01*
X115629795Y-79555977D01*
X115776117Y-79409655D01*
X115891081Y-79237598D01*
X115970270Y-79046420D01*
X116010640Y-78843465D01*
X116010640Y-78636535D01*
X116010639Y-78636530D01*
X119409513Y-78636530D01*
X119409513Y-78843469D01*
X119449881Y-79046412D01*
X119449883Y-79046420D01*
X119529071Y-79237596D01*
X119644037Y-79409657D01*
X119790355Y-79555975D01*
X119790358Y-79555977D01*
X119962415Y-79670941D01*
X120153593Y-79750130D01*
X120356543Y-79790499D01*
X120356547Y-79790500D01*
X120356548Y-79790500D01*
X120563479Y-79790500D01*
X120563480Y-79790499D01*
X120766433Y-79750130D01*
X120957611Y-79670941D01*
X121129668Y-79555977D01*
X121275990Y-79409655D01*
X121390954Y-79237598D01*
X121470143Y-79046420D01*
X121510513Y-78843465D01*
X121510513Y-78636535D01*
X121470143Y-78433580D01*
X121390954Y-78242402D01*
X121275990Y-78070345D01*
X121275988Y-78070342D01*
X121129670Y-77924024D01*
X120959953Y-77810624D01*
X120957611Y-77809059D01*
X120927344Y-77796522D01*
X120766433Y-77729870D01*
X120766425Y-77729868D01*
X120563482Y-77689500D01*
X120563478Y-77689500D01*
X120356548Y-77689500D01*
X120356543Y-77689500D01*
X120153600Y-77729868D01*
X120153592Y-77729870D01*
X119962416Y-77809058D01*
X119790355Y-77924024D01*
X119644037Y-78070342D01*
X119529071Y-78242403D01*
X119449883Y-78433579D01*
X119449881Y-78433587D01*
X119409513Y-78636530D01*
X116010639Y-78636530D01*
X115970270Y-78433580D01*
X115891081Y-78242402D01*
X115776117Y-78070345D01*
X115776115Y-78070342D01*
X115629797Y-77924024D01*
X115460080Y-77810624D01*
X115457738Y-77809059D01*
X115427471Y-77796522D01*
X115266560Y-77729870D01*
X115266552Y-77729868D01*
X115063609Y-77689500D01*
X115063605Y-77689500D01*
X114856675Y-77689500D01*
X114856670Y-77689500D01*
X114653727Y-77729868D01*
X114653719Y-77729870D01*
X114462543Y-77809058D01*
X114290482Y-77924024D01*
X114144164Y-78070342D01*
X114029198Y-78242403D01*
X113950010Y-78433579D01*
X113950008Y-78433587D01*
X113909640Y-78636530D01*
X110147648Y-78636530D01*
X110129199Y-78623126D01*
X110129198Y-78623125D01*
X110129196Y-78623124D01*
X110103712Y-78610139D01*
X110052917Y-78562164D01*
X110036122Y-78494343D01*
X110058660Y-78428209D01*
X110103717Y-78389168D01*
X110128941Y-78376316D01*
X110281741Y-78265301D01*
X110281746Y-78265297D01*
X110415310Y-78131733D01*
X110415314Y-78131728D01*
X110526329Y-77978927D01*
X110612085Y-77810624D01*
X110670451Y-77630989D01*
X110700000Y-77444434D01*
X110700000Y-77149987D01*
X109900000Y-77149987D01*
X109900000Y-76649987D01*
X110700000Y-76649987D01*
X110700000Y-76355539D01*
X110670451Y-76168984D01*
X110612085Y-75989349D01*
X110526329Y-75821046D01*
X110415314Y-75668245D01*
X110415310Y-75668240D01*
X110281746Y-75534676D01*
X110281741Y-75534672D01*
X110128940Y-75423657D01*
X109960635Y-75337900D01*
X109781004Y-75279536D01*
X109780995Y-75279534D01*
X109750000Y-75274624D01*
X109750000Y-76234301D01*
X109745606Y-76229907D01*
X109654394Y-76177246D01*
X109552661Y-76149987D01*
X109447339Y-76149987D01*
X109345606Y-76177246D01*
X109254394Y-76229907D01*
X109250000Y-76234301D01*
X109250000Y-75274624D01*
X109249999Y-75274624D01*
X109219004Y-75279534D01*
X109218995Y-75279536D01*
X109039364Y-75337900D01*
X108871059Y-75423657D01*
X108718258Y-75534672D01*
X108718253Y-75534676D01*
X108584689Y-75668240D01*
X108584685Y-75668245D01*
X108473670Y-75821046D01*
X108387914Y-75989349D01*
X108329548Y-76168984D01*
X108300000Y-76355539D01*
X108300000Y-76649987D01*
X109100000Y-76649987D01*
X109100000Y-77149987D01*
X108300000Y-77149987D01*
X108300000Y-77444434D01*
X108329548Y-77630989D01*
X108387914Y-77810624D01*
X108473670Y-77978927D01*
X108584685Y-78131728D01*
X108584689Y-78131733D01*
X108718253Y-78265297D01*
X108718258Y-78265301D01*
X108871058Y-78376316D01*
X108896284Y-78389169D01*
X108947081Y-78437143D01*
X108963877Y-78504963D01*
X108941341Y-78571099D01*
X108896288Y-78610138D01*
X108870805Y-78623122D01*
X108768885Y-78697172D01*
X108717927Y-78734196D01*
X108717925Y-78734198D01*
X108717924Y-78734198D01*
X108584312Y-78867810D01*
X108584312Y-78867811D01*
X108584310Y-78867813D01*
X108536610Y-78933465D01*
X108473240Y-79020686D01*
X108387454Y-79189049D01*
X108329059Y-79368767D01*
X108299500Y-79555399D01*
X108299500Y-80644372D01*
X108325369Y-80807702D01*
X108316414Y-80876995D01*
X108271418Y-80930447D01*
X108204667Y-80951087D01*
X108202896Y-80951100D01*
X104797104Y-80951100D01*
X104730065Y-80931415D01*
X104684310Y-80878611D01*
X104674366Y-80809453D01*
X104674631Y-80807702D01*
X104700500Y-80644372D01*
X104700500Y-79555399D01*
X104670940Y-79368767D01*
X104612545Y-79189049D01*
X104567290Y-79100233D01*
X104526760Y-79020687D01*
X104415690Y-78867813D01*
X104282073Y-78734196D01*
X104129199Y-78623126D01*
X104129198Y-78623125D01*
X104129196Y-78623124D01*
X104103712Y-78610139D01*
X104052917Y-78562164D01*
X104036122Y-78494343D01*
X104058660Y-78428209D01*
X104103717Y-78389168D01*
X104128941Y-78376316D01*
X104281741Y-78265301D01*
X104281746Y-78265297D01*
X104415310Y-78131733D01*
X104415314Y-78131728D01*
X104526329Y-77978927D01*
X104612085Y-77810624D01*
X104616669Y-77796517D01*
X105449500Y-77796517D01*
X105449500Y-78003456D01*
X105489868Y-78206399D01*
X105489870Y-78206407D01*
X105569058Y-78397583D01*
X105684024Y-78569644D01*
X105830342Y-78715962D01*
X105830345Y-78715964D01*
X106002402Y-78830928D01*
X106193580Y-78910117D01*
X106396530Y-78950486D01*
X106396534Y-78950487D01*
X106396535Y-78950487D01*
X106603466Y-78950487D01*
X106603467Y-78950486D01*
X106806420Y-78910117D01*
X106997598Y-78830928D01*
X107169655Y-78715964D01*
X107315977Y-78569642D01*
X107430941Y-78397585D01*
X107510130Y-78206407D01*
X107550500Y-78003452D01*
X107550500Y-77796522D01*
X107510130Y-77593567D01*
X107430941Y-77402389D01*
X107315977Y-77230332D01*
X107315975Y-77230329D01*
X107169657Y-77084011D01*
X107083626Y-77026528D01*
X106997598Y-76969046D01*
X106928682Y-76940500D01*
X106806420Y-76889857D01*
X106806412Y-76889855D01*
X106603469Y-76849487D01*
X106603465Y-76849487D01*
X106396535Y-76849487D01*
X106396530Y-76849487D01*
X106193587Y-76889855D01*
X106193579Y-76889857D01*
X106002403Y-76969045D01*
X105830342Y-77084011D01*
X105684024Y-77230329D01*
X105569058Y-77402390D01*
X105489870Y-77593566D01*
X105489868Y-77593574D01*
X105449500Y-77796517D01*
X104616669Y-77796517D01*
X104670451Y-77630989D01*
X104700000Y-77444434D01*
X104700000Y-77149987D01*
X103900000Y-77149987D01*
X103900000Y-76649987D01*
X104700000Y-76649987D01*
X104700000Y-76355539D01*
X104670451Y-76168984D01*
X104612085Y-75989349D01*
X104526329Y-75821046D01*
X104415314Y-75668245D01*
X104415310Y-75668240D01*
X104281746Y-75534676D01*
X104281741Y-75534672D01*
X104128940Y-75423657D01*
X103960635Y-75337900D01*
X103781004Y-75279536D01*
X103780995Y-75279534D01*
X103750000Y-75274624D01*
X103750000Y-76234301D01*
X103745606Y-76229907D01*
X103654394Y-76177246D01*
X103552661Y-76149987D01*
X103447339Y-76149987D01*
X103345606Y-76177246D01*
X103254394Y-76229907D01*
X103250000Y-76234301D01*
X103250000Y-75274624D01*
X103249999Y-75274624D01*
X103219004Y-75279534D01*
X103218995Y-75279536D01*
X103039364Y-75337900D01*
X102871059Y-75423657D01*
X102718258Y-75534672D01*
X102718253Y-75534676D01*
X102584689Y-75668240D01*
X102584685Y-75668245D01*
X102473670Y-75821046D01*
X102387914Y-75989349D01*
X102329548Y-76168984D01*
X102300000Y-76355539D01*
X102300000Y-76649987D01*
X103100000Y-76649987D01*
X103100000Y-77149987D01*
X102300000Y-77149987D01*
X102300000Y-77444434D01*
X102329548Y-77630989D01*
X102387914Y-77810624D01*
X102473670Y-77978927D01*
X102584685Y-78131728D01*
X102584689Y-78131733D01*
X102718253Y-78265297D01*
X102718258Y-78265301D01*
X102871058Y-78376316D01*
X102896284Y-78389169D01*
X102947081Y-78437143D01*
X102963877Y-78504963D01*
X102941341Y-78571099D01*
X102896288Y-78610138D01*
X102870805Y-78623122D01*
X102768885Y-78697172D01*
X102717927Y-78734196D01*
X102717925Y-78734198D01*
X102717924Y-78734198D01*
X102584312Y-78867810D01*
X102584312Y-78867811D01*
X102584310Y-78867813D01*
X102536610Y-78933465D01*
X102473240Y-79020686D01*
X102387454Y-79189049D01*
X102329059Y-79368767D01*
X102299500Y-79555399D01*
X102299500Y-80644372D01*
X102329059Y-80831004D01*
X102387454Y-81010722D01*
X102473240Y-81179085D01*
X102584310Y-81331959D01*
X102717927Y-81465576D01*
X102852943Y-81563671D01*
X102895608Y-81619000D01*
X102899828Y-81631884D01*
X102914688Y-81687339D01*
X102940423Y-81783384D01*
X103010883Y-81905426D01*
X103027355Y-81973326D01*
X103004502Y-82039353D01*
X102959791Y-82077909D01*
X102870803Y-82123251D01*
X102813044Y-82165216D01*
X102717927Y-82234323D01*
X102717925Y-82234325D01*
X102717924Y-82234325D01*
X102584312Y-82367937D01*
X102584312Y-82367938D01*
X102584310Y-82367940D01*
X102554550Y-82408901D01*
X102473240Y-82520813D01*
X102387454Y-82689176D01*
X102329059Y-82868894D01*
X102299500Y-83055526D01*
X102299500Y-84144499D01*
X102329059Y-84331131D01*
X102387454Y-84510849D01*
X102456787Y-84646921D01*
X102473240Y-84679212D01*
X102584310Y-84832086D01*
X102717927Y-84965703D01*
X102852953Y-85063806D01*
X102895617Y-85119134D01*
X102899838Y-85132020D01*
X102904364Y-85148909D01*
X102940423Y-85283485D01*
X102940426Y-85283490D01*
X103019475Y-85420409D01*
X103019479Y-85420414D01*
X103019480Y-85420416D01*
X103131284Y-85532220D01*
X103131287Y-85532222D01*
X103137677Y-85537125D01*
X103178879Y-85593554D01*
X103183033Y-85663300D01*
X103148819Y-85724220D01*
X103087102Y-85756972D01*
X103062189Y-85759500D01*
X100436666Y-85759500D01*
X100369627Y-85739815D01*
X100348984Y-85723180D01*
X100305692Y-85679887D01*
X100305684Y-85679881D01*
X100228707Y-85634357D01*
X100166395Y-85597506D01*
X100166394Y-85597505D01*
X100166393Y-85597505D01*
X100166390Y-85597504D01*
X100010997Y-85552357D01*
X100010991Y-85552356D01*
X99974697Y-85549500D01*
X99974690Y-85549500D01*
X99565310Y-85549500D01*
X99565302Y-85549500D01*
X99544228Y-85551159D01*
X99475851Y-85536794D01*
X99426094Y-85487743D01*
X99410500Y-85427541D01*
X99410500Y-85124595D01*
X99430185Y-85057556D01*
X99446818Y-85036914D01*
X99451135Y-85032598D01*
X99532869Y-84894393D01*
X99577665Y-84740204D01*
X99580500Y-84704181D01*
X99580499Y-84205820D01*
X99577665Y-84169796D01*
X99532869Y-84015607D01*
X99451135Y-83877402D01*
X99451133Y-83877400D01*
X99451130Y-83877396D01*
X99337603Y-83763869D01*
X99337595Y-83763863D01*
X99199393Y-83682131D01*
X99199388Y-83682129D01*
X99045208Y-83637335D01*
X99045202Y-83637334D01*
X99009181Y-83634500D01*
X98610830Y-83634500D01*
X98610808Y-83634501D01*
X98574794Y-83637335D01*
X98420611Y-83682129D01*
X98420604Y-83682132D01*
X98363119Y-83716128D01*
X98295395Y-83733309D01*
X98236881Y-83716128D01*
X98179395Y-83682132D01*
X98179388Y-83682129D01*
X98025208Y-83637335D01*
X98025202Y-83637334D01*
X97989188Y-83634500D01*
X97989181Y-83634500D01*
X97872900Y-83634500D01*
X97805861Y-83614815D01*
X97760106Y-83562011D01*
X97748900Y-83510500D01*
X97748900Y-83037104D01*
X97768585Y-82970065D01*
X97821389Y-82924310D01*
X97890547Y-82914366D01*
X97892298Y-82914631D01*
X98055627Y-82940500D01*
X98055632Y-82940500D01*
X99144599Y-82940500D01*
X99331231Y-82910940D01*
X99357939Y-82902262D01*
X99510945Y-82852547D01*
X99679312Y-82766760D01*
X99832186Y-82655690D01*
X99965803Y-82522073D01*
X100076873Y-82369199D01*
X100162660Y-82200832D01*
X100221053Y-82021118D01*
X100225982Y-81990000D01*
X100250613Y-81834486D01*
X100250613Y-81645513D01*
X100221053Y-81458881D01*
X100191283Y-81367259D01*
X100162660Y-81279168D01*
X100162658Y-81279165D01*
X100162658Y-81279163D01*
X100089859Y-81136288D01*
X100076873Y-81110801D01*
X99965803Y-80957927D01*
X99832186Y-80824310D01*
X99679312Y-80713240D01*
X99510949Y-80627454D01*
X99331231Y-80569059D01*
X99144599Y-80539500D01*
X99144594Y-80539500D01*
X98055632Y-80539500D01*
X98055627Y-80539500D01*
X97868994Y-80569059D01*
X97689276Y-80627454D01*
X97520913Y-80713240D01*
X97433692Y-80776610D01*
X97368040Y-80824310D01*
X97368038Y-80824312D01*
X97368037Y-80824312D01*
X97234425Y-80957924D01*
X97234418Y-80957933D01*
X97136326Y-81092943D01*
X97080996Y-81135609D01*
X97068103Y-81139832D01*
X96916615Y-81180423D01*
X96794572Y-81250884D01*
X96726672Y-81267355D01*
X96660645Y-81244503D01*
X96622088Y-81199790D01*
X96576747Y-81110802D01*
X96560061Y-81087836D01*
X96465676Y-80957927D01*
X96332059Y-80824310D01*
X96179185Y-80713240D01*
X96010822Y-80627454D01*
X95831104Y-80569059D01*
X95644472Y-80539500D01*
X95644467Y-80539500D01*
X94555505Y-80539500D01*
X94555500Y-80539500D01*
X94368867Y-80569059D01*
X94189149Y-80627454D01*
X94020786Y-80713240D01*
X93933565Y-80776610D01*
X93867913Y-80824310D01*
X93867911Y-80824312D01*
X93867910Y-80824312D01*
X93734298Y-80957924D01*
X93734298Y-80957925D01*
X93734296Y-80957927D01*
X93734056Y-80958258D01*
X93623222Y-81110805D01*
X93610238Y-81136288D01*
X93562263Y-81187083D01*
X93494442Y-81203877D01*
X93428307Y-81181338D01*
X93389269Y-81136284D01*
X93376416Y-81111058D01*
X93265401Y-80958258D01*
X93265397Y-80958253D01*
X93131833Y-80824689D01*
X93131828Y-80824685D01*
X92979027Y-80713670D01*
X92810724Y-80627914D01*
X92631089Y-80569548D01*
X92444534Y-80540000D01*
X92150087Y-80540000D01*
X92150087Y-81340000D01*
X91650087Y-81340000D01*
X91650087Y-80540000D01*
X91355640Y-80540000D01*
X91169084Y-80569548D01*
X90989449Y-80627914D01*
X90821146Y-80713670D01*
X90668345Y-80824685D01*
X90668340Y-80824689D01*
X90534776Y-80958253D01*
X90534772Y-80958258D01*
X90423757Y-81111059D01*
X90338001Y-81279362D01*
X90279635Y-81458997D01*
X90274725Y-81490000D01*
X86225500Y-81490000D01*
X86225500Y-78636530D01*
X91849587Y-78636530D01*
X91849587Y-78843469D01*
X91889955Y-79046412D01*
X91889957Y-79046420D01*
X91969145Y-79237596D01*
X92084111Y-79409657D01*
X92230429Y-79555975D01*
X92230432Y-79555977D01*
X92402489Y-79670941D01*
X92593667Y-79750130D01*
X92796617Y-79790499D01*
X92796621Y-79790500D01*
X92796622Y-79790500D01*
X93003553Y-79790500D01*
X93003554Y-79790499D01*
X93206507Y-79750130D01*
X93397685Y-79670941D01*
X93569742Y-79555977D01*
X93716064Y-79409655D01*
X93831028Y-79237598D01*
X93910217Y-79046420D01*
X93950587Y-78843465D01*
X93950587Y-78636535D01*
X93950586Y-78636530D01*
X97349460Y-78636530D01*
X97349460Y-78843469D01*
X97389828Y-79046412D01*
X97389830Y-79046420D01*
X97469018Y-79237596D01*
X97583984Y-79409657D01*
X97730302Y-79555975D01*
X97730305Y-79555977D01*
X97902362Y-79670941D01*
X98093540Y-79750130D01*
X98296490Y-79790499D01*
X98296494Y-79790500D01*
X98296495Y-79790500D01*
X98503426Y-79790500D01*
X98503427Y-79790499D01*
X98706380Y-79750130D01*
X98897558Y-79670941D01*
X99069615Y-79555977D01*
X99215937Y-79409655D01*
X99330901Y-79237598D01*
X99410090Y-79046420D01*
X99450460Y-78843465D01*
X99450460Y-78636535D01*
X99410090Y-78433580D01*
X99330901Y-78242402D01*
X99215937Y-78070345D01*
X99215935Y-78070342D01*
X99069617Y-77924024D01*
X98899900Y-77810624D01*
X98897558Y-77809059D01*
X98867291Y-77796522D01*
X98706380Y-77729870D01*
X98706372Y-77729868D01*
X98503429Y-77689500D01*
X98503425Y-77689500D01*
X98296495Y-77689500D01*
X98296490Y-77689500D01*
X98093547Y-77729868D01*
X98093539Y-77729870D01*
X97902363Y-77809058D01*
X97730302Y-77924024D01*
X97583984Y-78070342D01*
X97469018Y-78242403D01*
X97389830Y-78433579D01*
X97389828Y-78433587D01*
X97349460Y-78636530D01*
X93950586Y-78636530D01*
X93910217Y-78433580D01*
X93831028Y-78242402D01*
X93716064Y-78070345D01*
X93716062Y-78070342D01*
X93569744Y-77924024D01*
X93400027Y-77810624D01*
X93397685Y-77809059D01*
X93367418Y-77796522D01*
X93206507Y-77729870D01*
X93206499Y-77729868D01*
X93003556Y-77689500D01*
X93003552Y-77689500D01*
X92796622Y-77689500D01*
X92796617Y-77689500D01*
X92593674Y-77729868D01*
X92593666Y-77729870D01*
X92402490Y-77809058D01*
X92230429Y-77924024D01*
X92084111Y-78070342D01*
X91969145Y-78242403D01*
X91889957Y-78433579D01*
X91889955Y-78433587D01*
X91849587Y-78636530D01*
X86225500Y-78636530D01*
X86225500Y-74240117D01*
X86245185Y-74173078D01*
X86297989Y-74127323D01*
X86367147Y-74117379D01*
X86430703Y-74146404D01*
X86462574Y-74189223D01*
X86504455Y-74282279D01*
X86611187Y-74458834D01*
X86673473Y-74561868D01*
X86874954Y-74819039D01*
X87105960Y-75050045D01*
X87363131Y-75251526D01*
X87363134Y-75251528D01*
X87363137Y-75251530D01*
X87642721Y-75420545D01*
X87940639Y-75554627D01*
X87940652Y-75554631D01*
X87940657Y-75554633D01*
X88232304Y-75645513D01*
X88252547Y-75651821D01*
X88573896Y-75710710D01*
X88900000Y-75730436D01*
X89226104Y-75710710D01*
X89547453Y-75651821D01*
X89859361Y-75554627D01*
X90114474Y-75439809D01*
X90183685Y-75430247D01*
X90247080Y-75459621D01*
X90259655Y-75472355D01*
X90274725Y-75490000D01*
X91234401Y-75490000D01*
X91230007Y-75494394D01*
X91177346Y-75585606D01*
X91150087Y-75687339D01*
X91150087Y-75792661D01*
X91177346Y-75894394D01*
X91230007Y-75985606D01*
X91234401Y-75990000D01*
X90274725Y-75990000D01*
X90279635Y-76021002D01*
X90338001Y-76200637D01*
X90423757Y-76368940D01*
X90534772Y-76521741D01*
X90534776Y-76521746D01*
X90668340Y-76655310D01*
X90668345Y-76655314D01*
X90821146Y-76766329D01*
X90989449Y-76852085D01*
X91169084Y-76910451D01*
X91355640Y-76940000D01*
X91650087Y-76940000D01*
X91650087Y-76140000D01*
X92150087Y-76140000D01*
X92150087Y-76940000D01*
X92444534Y-76940000D01*
X92631089Y-76910451D01*
X92810724Y-76852085D01*
X92979027Y-76766329D01*
X93131828Y-76655314D01*
X93131833Y-76655310D01*
X93265397Y-76521746D01*
X93265401Y-76521741D01*
X93376416Y-76368941D01*
X93389268Y-76343717D01*
X93437241Y-76292919D01*
X93505062Y-76276122D01*
X93571197Y-76298657D01*
X93610239Y-76343712D01*
X93623224Y-76369196D01*
X93623226Y-76369199D01*
X93734296Y-76522073D01*
X93867913Y-76655690D01*
X94020787Y-76766760D01*
X94100333Y-76807290D01*
X94189149Y-76852545D01*
X94189151Y-76852545D01*
X94189154Y-76852547D01*
X94285483Y-76883846D01*
X94368867Y-76910940D01*
X94555500Y-76940500D01*
X94555505Y-76940500D01*
X95644472Y-76940500D01*
X95831104Y-76910940D01*
X95895990Y-76889857D01*
X96010818Y-76852547D01*
X96179185Y-76766760D01*
X96332059Y-76655690D01*
X96465676Y-76522073D01*
X96576746Y-76369199D01*
X96622089Y-76280207D01*
X96670062Y-76229413D01*
X96737882Y-76212617D01*
X96794570Y-76229114D01*
X96805626Y-76235497D01*
X96866495Y-76270639D01*
X96866497Y-76270641D01*
X96904551Y-76292611D01*
X96916615Y-76299577D01*
X97068106Y-76340169D01*
X97127764Y-76376533D01*
X97136324Y-76387053D01*
X97234423Y-76522073D01*
X97368040Y-76655690D01*
X97520914Y-76766760D01*
X97600460Y-76807290D01*
X97689276Y-76852545D01*
X97689278Y-76852545D01*
X97689281Y-76852547D01*
X97785610Y-76883846D01*
X97868994Y-76910940D01*
X98055627Y-76940500D01*
X98055632Y-76940500D01*
X99144599Y-76940500D01*
X99331231Y-76910940D01*
X99396117Y-76889857D01*
X99510945Y-76852547D01*
X99679312Y-76766760D01*
X99832186Y-76655690D01*
X99965803Y-76522073D01*
X100076873Y-76369199D01*
X100162660Y-76200832D01*
X100221053Y-76021118D01*
X100226085Y-75989349D01*
X100250613Y-75834486D01*
X100250613Y-75645513D01*
X100221053Y-75458881D01*
X100181743Y-75337900D01*
X100162660Y-75279168D01*
X100162658Y-75279165D01*
X100162658Y-75279163D01*
X100089859Y-75136288D01*
X100076873Y-75110801D01*
X99965803Y-74957927D01*
X99832186Y-74824310D01*
X99679312Y-74713240D01*
X99672523Y-74709781D01*
X99510949Y-74627454D01*
X99331231Y-74569059D01*
X99144599Y-74539500D01*
X99144594Y-74539500D01*
X98055632Y-74539500D01*
X98055627Y-74539500D01*
X97868994Y-74569059D01*
X97689276Y-74627454D01*
X97520913Y-74713240D01*
X97433692Y-74776610D01*
X97368040Y-74824310D01*
X97368038Y-74824312D01*
X97368036Y-74824313D01*
X97312672Y-74879677D01*
X97251349Y-74913161D01*
X97181657Y-74908176D01*
X97137311Y-74879676D01*
X94920990Y-72663355D01*
X94920988Y-72663352D01*
X94802117Y-72544481D01*
X94802116Y-72544480D01*
X94715304Y-72494360D01*
X94715304Y-72494359D01*
X94715300Y-72494358D01*
X94665185Y-72465423D01*
X94512457Y-72424499D01*
X94354343Y-72424499D01*
X94346747Y-72424499D01*
X94346731Y-72424500D01*
X91632693Y-72424500D01*
X91565654Y-72404815D01*
X91519899Y-72352011D01*
X91514308Y-72337390D01*
X91429633Y-72065657D01*
X91429631Y-72065652D01*
X91429627Y-72065639D01*
X91295545Y-71767721D01*
X91126530Y-71488137D01*
X91126528Y-71488134D01*
X91126526Y-71488131D01*
X90925045Y-71230960D01*
X90694039Y-70999954D01*
X90436868Y-70798473D01*
X90395508Y-70773470D01*
X90157279Y-70629455D01*
X90064226Y-70587575D01*
X90011172Y-70542112D01*
X89991120Y-70475181D01*
X90010436Y-70408035D01*
X90062988Y-70361990D01*
X90115118Y-70350500D01*
X123729334Y-70350500D01*
X123796373Y-70370185D01*
G37*
%TD.AperFunction*%
%TA.AperFunction,Conductor*%
G36*
X127173522Y-92529968D02*
G01*
X127173523Y-92529968D01*
X127321112Y-92341586D01*
X127490101Y-92062043D01*
X127490102Y-92062041D01*
X127532424Y-91968007D01*
X127577888Y-91914953D01*
X127644819Y-91894900D01*
X127711965Y-91914216D01*
X127758010Y-91966767D01*
X127769500Y-92018898D01*
X127769500Y-93250358D01*
X127749815Y-93317397D01*
X127733181Y-93338039D01*
X127628039Y-93443181D01*
X127566716Y-93476666D01*
X127540358Y-93479500D01*
X126308898Y-93479500D01*
X126241859Y-93459815D01*
X126196104Y-93407011D01*
X126186160Y-93337853D01*
X126215185Y-93274297D01*
X126258007Y-93242424D01*
X126352041Y-93200102D01*
X126352043Y-93200101D01*
X126631586Y-93031112D01*
X126819968Y-92883523D01*
X126819968Y-92883522D01*
X125677736Y-91741290D01*
X125811602Y-91644033D01*
X125934033Y-91521602D01*
X126031290Y-91387736D01*
X127173522Y-92529968D01*
G37*
%TD.AperFunction*%
%TA.AperFunction,Conductor*%
G36*
X94200342Y-73645185D02*
G01*
X94220984Y-73661819D01*
X94886984Y-74327819D01*
X94920469Y-74389142D01*
X94915485Y-74458834D01*
X94873613Y-74514767D01*
X94808149Y-74539184D01*
X94799303Y-74539500D01*
X94555500Y-74539500D01*
X94368867Y-74569059D01*
X94189149Y-74627454D01*
X94020786Y-74713240D01*
X93933565Y-74776610D01*
X93867913Y-74824310D01*
X93867911Y-74824312D01*
X93867910Y-74824312D01*
X93734298Y-74957924D01*
X93734298Y-74957925D01*
X93734296Y-74957927D01*
X93697272Y-75008885D01*
X93623222Y-75110805D01*
X93610238Y-75136288D01*
X93562263Y-75187083D01*
X93494442Y-75203877D01*
X93428307Y-75181338D01*
X93389269Y-75136284D01*
X93376416Y-75111058D01*
X93265401Y-74958258D01*
X93265397Y-74958253D01*
X93131833Y-74824689D01*
X93131828Y-74824685D01*
X92979027Y-74713670D01*
X92810724Y-74627914D01*
X92631089Y-74569548D01*
X92444534Y-74540000D01*
X92150087Y-74540000D01*
X92150087Y-75340000D01*
X91650087Y-75340000D01*
X91650087Y-74540000D01*
X91359604Y-74540000D01*
X91292565Y-74520315D01*
X91246810Y-74467511D01*
X91236866Y-74398353D01*
X91253485Y-74351852D01*
X91295545Y-74282279D01*
X91429627Y-73984361D01*
X91454719Y-73903837D01*
X91514308Y-73712610D01*
X91553045Y-73654462D01*
X91617070Y-73626488D01*
X91632693Y-73625500D01*
X94133303Y-73625500D01*
X94200342Y-73645185D01*
G37*
%TD.AperFunction*%
%TA.AperFunction,Conductor*%
G36*
X122334346Y-73620185D02*
G01*
X122380101Y-73672989D01*
X122385692Y-73687610D01*
X122470366Y-73959342D01*
X122470370Y-73959354D01*
X122470373Y-73959361D01*
X122604455Y-74257279D01*
X122726300Y-74458834D01*
X122773473Y-74536868D01*
X122858087Y-74644869D01*
X122883936Y-74709781D01*
X122870587Y-74778364D01*
X122822279Y-74828842D01*
X122754349Y-74845191D01*
X122688364Y-74822218D01*
X122687591Y-74821661D01*
X122538949Y-74713667D01*
X122370650Y-74627914D01*
X122191015Y-74569548D01*
X122004460Y-74540000D01*
X121710013Y-74540000D01*
X121710013Y-75340000D01*
X121210013Y-75340000D01*
X121210013Y-74540000D01*
X120915566Y-74540000D01*
X120729010Y-74569548D01*
X120549375Y-74627914D01*
X120381072Y-74713670D01*
X120228271Y-74824685D01*
X120228266Y-74824689D01*
X120094702Y-74958253D01*
X120094698Y-74958258D01*
X119983681Y-75111061D01*
X119970828Y-75136287D01*
X119922853Y-75187082D01*
X119855032Y-75203877D01*
X119788897Y-75181339D01*
X119749859Y-75136286D01*
X119737005Y-75111059D01*
X119736874Y-75110801D01*
X119625804Y-74957927D01*
X119492187Y-74824310D01*
X119339313Y-74713240D01*
X119332524Y-74709781D01*
X119170950Y-74627454D01*
X118991232Y-74569059D01*
X118804600Y-74539500D01*
X118804595Y-74539500D01*
X118560797Y-74539500D01*
X118493758Y-74519815D01*
X118448003Y-74467011D01*
X118438059Y-74397853D01*
X118467084Y-74334297D01*
X118473116Y-74327819D01*
X119164116Y-73636819D01*
X119225439Y-73603334D01*
X119251797Y-73600500D01*
X122267307Y-73600500D01*
X122334346Y-73620185D01*
G37*
%TD.AperFunction*%
%TD*%
M02*
